KleiMedIta.ufo
<glyph name="exclam" format="1">
  <advance width="324"/>
  <unicode hex="0021"/>
  <outline>
    <contour>
      <point x="103.313" y="98" type="curve" smooth="yes"/>
      <point x="129.766" y="98"/>
      <point x="147.573" y="77.3357"/>
      <point x="147.573" y="51.5623" type="curve" smooth="yes"/>
      <point x="147.573" y="12.0326"/>
      <point x="111.517" y="-18"/>
      <point x="79.3135" y="-18" type="curve" smooth="yes"/>
      <point x="52.2133" y="-18"/>
      <point x="35.0002" y="2.47525"/>
      <point x="35.0002" y="27.9925" type="curve" smooth="yes"/>
      <point x="35.0002" y="67.6211"/>
      <point x="69.8651" y="98"/>
    </contour>
    <contour>
      <point x="255.014" y="765.375" type="curve" smooth="yes"/>
      <point x="257.113" y="765.375" type="line" smooth="yes"/>
      <point x="281.287" y="765.375"/>
      <point x="292.622" y="748.78"/>
      <point x="292.622" y="728.962" type="curve" smooth="yes"/>
      <point x="292.622" y="723.006"/>
      <point x="291.76" y="716.901"/>
      <point x="290.14" y="710.421" type="curve"/>
      <point x="158.877" y="220.021" type="line" smooth="yes"/>
      <point x="154.37" y="203.122"/>
      <point x="144.173" y="189.625"/>
      <point x="127.964" y="189.625" type="curve" smooth="yes"/>
      <point x="113.807" y="189.625"/>
      <point x="105.371" y="199.966"/>
      <point x="105.371" y="213.561" type="curve" smooth="yes"/>
      <point x="105.371" y="216.609"/>
      <point x="105.732" y="219.86"/>
      <point x="106.395" y="223.174" type="curve"/>
      <point x="200.92" y="713.655" type="line"/>
      <point x="200.957" y="713.808" type="line" smooth="yes"/>
      <point x="207.672" y="741.791"/>
      <point x="227.325" y="765.375"/>
    </contour>
  </outline>
</glyph>
<glyph name="quotedbl" format="1">
  <advance width="268"/>
  <unicode hex="0022"/>
  <outline>
    <contour>
      <point x="206.22" y="678.15" type="curve" smooth="yes"/>
      <point x="210.42" y="678.15" type="line" smooth="yes"/>
      <point x="227.874" y="678.15"/>
      <point x="238.528" y="665.955"/>
      <point x="238.528" y="649.449" type="curve" smooth="yes"/>
      <point x="238.528" y="642.69"/>
      <point x="235.728" y="634.836"/>
      <point x="233.883" y="629.104" type="curve" smooth="yes"/>
      <point x="194.201" y="505.88" type="line"/>
      <point x="191.55" y="494.848"/>
      <point x="183.81" y="489.85"/>
      <point x="174.72" y="489.85" type="curve" smooth="yes"/>
      <point x="161.07" y="489.85" type="line" smooth="yes"/>
      <point x="152.11" y="489.85"/>
      <point x="146.462" y="496.77"/>
      <point x="146.462" y="504.458" type="curve" smooth="yes"/>
      <point x="146.462" y="505.757"/>
      <point x="146.611" y="507.275"/>
      <point x="146.799" y="508.402" type="curve"/>
      <point x="164.592" y="637.252" type="line"/>
      <point x="168.075" y="660.299"/>
      <point x="188.34" y="678.15"/>
    </contour>
    <contour>
      <point x="93.2197" y="678.15" type="curve" smooth="yes"/>
      <point x="97.4199" y="678.15" type="line" smooth="yes"/>
      <point x="114.874" y="678.15"/>
      <point x="125.528" y="665.955"/>
      <point x="125.528" y="649.449" type="curve" smooth="yes"/>
      <point x="125.528" y="642.69"/>
      <point x="122.728" y="634.836"/>
      <point x="120.883" y="629.104" type="curve" smooth="yes"/>
      <point x="81.201" y="505.88" type="line"/>
      <point x="78.5504" y="494.848"/>
      <point x="70.8102" y="489.85"/>
      <point x="61.7197" y="489.85" type="curve" smooth="yes"/>
      <point x="48.0703" y="489.85" type="line" smooth="yes"/>
      <point x="39.1098" y="489.85"/>
      <point x="33.4619" y="496.77"/>
      <point x="33.4619" y="504.458" type="curve" smooth="yes"/>
      <point x="33.4619" y="505.757"/>
      <point x="33.6113" y="507.275"/>
      <point x="33.7987" y="508.402" type="curve"/>
      <point x="51.5924" y="637.252" type="line"/>
      <point x="55.0749" y="660.299"/>
      <point x="75.3399" y="678.15"/>
    </contour>
  </outline>
</glyph>
<glyph name="dollar" format="1">
  <advance width="536"/>
  <unicode hex="0024"/>
  <outline>
    <contour>
      <point x="287.834" y="274.634" type="curve"/>
      <point x="260.326" y="196.604"/>
      <point x="234.422" y="121.497"/>
      <point x="215.487" y="67.4316" type="curve"/>
      <point x="302.917" y="73.0801"/>
      <point x="351.49" y="118.681"/>
      <point x="351.49" y="175" type="curve" smooth="yes"/>
      <point x="351.49" y="227.486"/>
      <point x="329.671" y="245.694"/>
    </contour>
    <contour>
      <point x="416.361" y="645.595" type="curve" smooth="yes"/>
      <point x="412.143" y="631.526"/>
      <point x="406.377" y="612.699"/>
      <point x="401.795" y="598.27" type="curve"/>
      <point x="453.968" y="590.543"/>
      <point x="488.665" y="574.578"/>
      <point x="488.665" y="530.086" type="curve" smooth="yes"/>
      <point x="488.665" y="499.334"/>
      <point x="458.815" y="495.481"/>
      <point x="450.646" y="495.481" type="curve" smooth="yes"/>
      <point x="439.718" y="495.481"/>
      <point x="426.196" y="503.508"/>
      <point x="426.196" y="516.647" type="curve" smooth="yes"/>
      <point x="426.196" y="525.344"/>
      <point x="430.904" y="533.762"/>
      <point x="430.904" y="538.171" type="curve" smooth="yes"/>
      <point x="430.904" y="549.079"/>
      <point x="427.155" y="564.014"/>
      <point x="392.833" y="568.509" type="curve"/>
      <point x="371.16" y="505.682"/>
      <point x="344.227" y="432.199"/>
      <point x="319.559" y="364.539" type="curve"/>
      <point x="385.334" y="317.424"/>
      <point x="429.646" y="279.464"/>
      <point x="429.646" y="207.073" type="curve" smooth="yes"/>
      <point x="429.646" y="84.0381"/>
      <point x="307.062" y="38.8799"/>
      <point x="201.494" y="37.4014" type="curve"/>
      <point x="188.432" y="0.646484"/>
      <point x="178.816" y="-25.7061"/>
      <point x="178.487" y="-26.6084" type="curve" smooth="yes"/>
      <point x="178.195" y="-27.4111" type="line"/>
      <point x="177.698" y="-28.124" type="line" smooth="yes"/>
      <point x="168.785" y="-40.9404"/>
      <point x="154.945" y="-47"/>
      <point x="142.646" y="-47" type="curve" smooth="yes"/>
      <point x="133.581" y="-47"/>
      <point x="124.942" y="-44.5771"/>
      <point x="119.18" y="-37.374" type="curve" smooth="yes"/>
      <point x="116.694" y="-34.2686" type="line"/>
      <point x="118.091" y="-30.5449" type="line" smooth="yes"/>
      <point x="125.961" y="-9.5625"/>
      <point x="134.484" y="22.9453"/>
      <point x="141.491" y="44.6738" type="curve"/>
      <point x="77.5654" y="58.8135"/>
      <point x="40.6455" y="98.9375"/>
      <point x="40.6455" y="128.974" type="curve" smooth="yes"/>
      <point x="40.6455" y="149.57"/>
      <point x="51.3916" y="183.965"/>
      <point x="86.6455" y="183.965" type="curve" smooth="yes"/>
      <point x="102.673" y="183.965"/>
      <point x="109.129" y="173.351"/>
      <point x="109.129" y="161.761" type="curve" smooth="yes"/>
      <point x="109.129" y="149.676"/>
      <point x="104.944" y="135.686"/>
      <point x="104.944" y="122.743" type="curve" smooth="yes"/>
      <point x="104.944" y="104.209"/>
      <point x="111.811" y="86.7588"/>
      <point x="157.208" y="81.4893" type="curve"/>
      <point x="187.188" y="162.218"/>
      <point x="216.202" y="240.709"/>
      <point x="241.893" y="313.36" type="curve"/>
      <point x="185.155" y="353.547"/>
      <point x="141.646" y="404.427"/>
      <point x="141.646" y="466.923" type="curve" smooth="yes"/>
      <point x="141.646" y="543.612"/>
      <point x="234.572" y="610.551"/>
      <point x="341.704" y="612.845" type="curve"/>
      <point x="348.531" y="632.438"/>
      <point x="356.645" y="653.534"/>
      <point x="362.56" y="671" type="curve" smooth="yes"/>
      <point x="362.672" y="671" type="line"/>
      <point x="362.818" y="671" type="line" smooth="yes"/>
      <point x="367.868" y="673.55"/>
      <point x="382.482" y="675"/>
      <point x="393.646" y="675" type="curve" smooth="yes"/>
      <point x="407.289" y="675"/>
      <point x="417.74" y="665.356"/>
      <point x="417.74" y="653.125" type="curve" smooth="yes"/>
      <point x="417.74" y="650.178"/>
      <point x="416.898" y="647.391"/>
    </contour>
    <contour>
      <point x="273.752" y="399.088" type="curve"/>
      <point x="293.265" y="456.397"/>
      <point x="314.796" y="519.55"/>
      <point x="333.71" y="576.676" type="curve"/>
      <point x="262.338" y="571.879"/>
      <point x="221.758" y="521.442"/>
      <point x="221.758" y="491" type="curve" smooth="yes"/>
      <point x="221.758" y="452.4"/>
      <point x="240.035" y="426.438"/>
    </contour>
  </outline>
</glyph>
<glyph name="percent" format="1">
  <advance width="808"/>
  <unicode hex="0025"/>
  <outline>
    <contour>
      <point x="409.086" y="122.696" type="curve" smooth="yes"/>
      <point x="409.086" y="272.091"/>
      <point x="522.254" y="381.812"/>
      <point x="622.832" y="381.812" type="curve" smooth="yes"/>
      <point x="687.147" y="381.812"/>
      <point x="722.194" y="340.406"/>
      <point x="722.194" y="270.213" type="curve" smooth="yes"/>
      <point x="722.194" y="121.831"/>
      <point x="621.679" y="3.60547"/>
      <point x="519.206" y="3.60547" type="curve" smooth="yes"/>
      <point x="450.671" y="3.60547"/>
      <point x="409.086" y="47.6777"/>
    </contour>
    <contour>
      <point x="613.956" y="351.478" type="curve" smooth="yes"/>
      <point x="563.315" y="351.478"/>
      <point x="482.062" y="237.782"/>
      <point x="482.062" y="124.479" type="curve" smooth="yes"/>
      <point x="482.062" y="69.7549"/>
      <point x="503.373" y="33.8369"/>
      <point x="532.966" y="33.8369" type="curve" smooth="yes"/>
      <point x="594.14" y="33.8369"/>
      <point x="669.575" y="146.531"/>
      <point x="669.575" y="261.793" type="curve" smooth="yes"/>
      <point x="669.575" y="314.778"/>
      <point x="649.17" y="351.478"/>
    </contour>
    <contour>
      <point x="267.949" y="635.848" type="curve" smooth="yes"/>
      <point x="293.725" y="635.848"/>
      <point x="316.078" y="628.948"/>
      <point x="331.422" y="618.037" type="curve"/>
      <point x="393.364" y="609.769"/>
      <point x="428.35" y="600.688"/>
      <point x="458.695" y="600.688" type="curve" smooth="yes"/>
      <point x="601.63" y="600.688"/>
      <point x="571.947" y="662.998"/>
      <point x="643.546" y="662.998" type="curve" smooth="yes"/>
      <point x="649.801" y="662.998"/>
      <point x="656.947" y="662.906"/>
      <point x="661.946" y="657.892" type="curve" smooth="yes"/>
      <point x="672.688" y="647.354" type="line" smooth="yes"/>
      <point x="674.562" y="645.514"/>
      <point x="678.572" y="642.306"/>
      <point x="678.572" y="636.563" type="curve" smooth="yes"/>
      <point x="678.572" y="631.077"/>
      <point x="675.575" y="627.307"/>
      <point x="673.782" y="625.147" type="curve" smooth="yes"/>
      <point x="135.329" y="-8.60742" type="line" smooth="yes"/>
      <point x="132.229" y="-12.4287"/>
      <point x="127.792" y="-13.9043"/>
      <point x="124.124" y="-13.9043" type="curve" smooth="yes"/>
      <point x="117.872" y="-13.9043"/>
      <point x="112.739" y="-10.5801"/>
      <point x="110.006" y="-8.76172" type="curve"/>
      <point x="105.749" y="-5.09863" type="line"/>
      <point x="105.436" y="-4.88281" type="line" smooth="yes"/>
      <point x="101.559" y="-2.22168"/>
      <point x="99.4531" y="2.00195"/>
      <point x="99.4531" y="6.03809" type="curve" smooth="yes"/>
      <point x="99.4531" y="11.1279"/>
      <point x="101.964" y="15.085"/>
      <point x="104.358" y="17.9668" type="curve" smooth="yes"/>
      <point x="598.455" y="604.985" type="line"/>
      <point x="567.371" y="587.382"/>
      <point x="528.781" y="568.94"/>
      <point x="453.794" y="568.94" type="curve" smooth="yes"/>
      <point x="421.031" y="568.94"/>
      <point x="391.989" y="575.032"/>
      <point x="362.728" y="580.715" type="curve"/>
      <point x="368.221" y="564.479"/>
      <point x="370.24" y="549.689"/>
      <point x="370.24" y="530.774" type="curve" smooth="yes"/>
      <point x="370.24" y="382.392"/>
      <point x="266.398" y="264.167"/>
      <point x="163.752" y="264.167" type="curve" smooth="yes"/>
      <point x="97.6182" y="264.167"/>
      <point x="57.9766" y="307.208"/>
      <point x="57.9766" y="380.43" type="curve" smooth="yes"/>
      <point x="57.9766" y="526.157"/>
      <point x="164.752" y="635.848"/>
    </contour>
    <contour>
      <point x="216.188" y="596.515" type="curve"/>
      <point x="176.243" y="567.555"/>
      <point x="128.595" y="470.423"/>
      <point x="128.595" y="384.203" type="curve" smooth="yes"/>
      <point x="128.595" y="330.038"/>
      <point x="148.77" y="294.374"/>
      <point x="178.021" y="294.374" type="curve" smooth="yes"/>
      <point x="239.193" y="294.374"/>
      <point x="316.862" y="407.064"/>
      <point x="316.862" y="522.329" type="curve" smooth="yes"/>
      <point x="316.862" y="556.372"/>
      <point x="306.668" y="589.408"/>
      <point x="292.427" y="600.867" type="curve"/>
      <point x="284.066" y="601.374"/>
      <point x="277.755" y="601.554"/>
      <point x="270.377" y="601.554" type="curve" smooth="yes"/>
      <point x="253.184" y="601.554"/>
      <point x="234.908" y="599.936"/>
    </contour>
  </outline>
</glyph>
<glyph name="ampersand" format="1">
  <advance width="1023"/>
  <unicode hex="0026"/>
  <outline>
    <contour>
      <point x="194.952" y="302.628" type="curve" smooth="yes"/>
      <point x="194.952" y="282.15"/>
      <point x="203.049" y="238.35"/>
      <point x="209.344" y="227.137" type="curve"/>
      <point x="244.776" y="251.033"/>
      <point x="450.812" y="447.44"/>
      <point x="450.812" y="615.608" type="curve" smooth="yes"/>
      <point x="450.812" y="666.236"/>
      <point x="465.587" y="710.734"/>
      <point x="494.92" y="710.734" type="curve" smooth="yes"/>
      <point x="521.685" y="710.734"/>
      <point x="524.233" y="674.09"/>
      <point x="524.233" y="653.694" type="curve" smooth="yes"/>
      <point x="524.233" y="420.689"/>
      <point x="236.067" y="208.828"/>
      <point x="231.945" y="183.3" type="curve"/>
      <point x="232.315" y="163.804"/>
      <point x="293.648" y="58.5264"/>
      <point x="440.099" y="58.5264" type="curve" smooth="yes"/>
      <point x="599.615" y="58.5264"/>
      <point x="727.502" y="177.981"/>
      <point x="727.502" y="346.213" type="curve" smooth="yes"/>
      <point x="727.502" y="376.292"/>
      <point x="722.668" y="397.107"/>
      <point x="645.959" y="425.921" type="curve"/>
      <point x="643.477" y="415.576"/>
      <point x="639.483" y="398.747"/>
      <point x="629.011" y="383.817" type="curve" smooth="yes"/>
      <point x="617.982" y="368.095"/>
      <point x="593.024" y="351.909"/>
      <point x="573.668" y="351.909" type="curve" smooth="yes"/>
      <point x="566.814" y="351.909"/>
      <point x="555.205" y="354.837"/>
      <point x="555.205" y="367.393" type="curve" smooth="yes"/>
      <point x="555.205" y="414.433"/>
      <point x="627.41" y="476.485"/>
      <point x="669.048" y="476.485" type="curve" smooth="yes"/>
      <point x="743.098" y="476.485"/>
      <point x="769.786" y="398.28"/>
      <point x="853.888" y="398.28" type="curve" smooth="yes"/>
      <point x="869.599" y="398.28"/>
      <point x="883.902" y="404.802"/>
      <point x="898.271" y="411.665" type="curve" smooth="yes"/>
      <point x="904.183" y="414.489" type="line"/>
      <point x="915.775" y="393.851" type="line"/>
      <point x="911.845" y="390.098" type="line" smooth="yes"/>
      <point x="902.433" y="381.109"/>
      <point x="876.82" y="323.402"/>
      <point x="844.834" y="323.402" type="curve" smooth="yes"/>
      <point x="814.865" y="323.402"/>
      <point x="785.516" y="343.292"/>
      <point x="773.87" y="347.789" type="curve"/>
      <point x="771.556" y="186.225"/>
      <point x="687.625" y="-17.4961"/>
      <point x="449.812" y="-17.4961" type="curve" smooth="yes"/>
      <point x="245.067" y="-17.4961"/>
      <point x="133.594" y="135.714"/>
      <point x="133.594" y="265.622" type="curve" smooth="yes"/>
      <point x="133.594" y="390.417"/>
      <point x="214.498" y="518.69"/>
      <point x="325.183" y="518.69" type="curve" smooth="yes"/>
      <point x="353.236" y="518.69"/>
      <point x="387.9" y="496.951"/>
      <point x="387.9" y="467.079" type="curve" smooth="yes"/>
      <point x="387.9" y="443.14"/>
      <point x="372.67" y="415.048"/>
      <point x="340.662" y="415.048" type="curve" smooth="yes"/>
      <point x="320.865" y="415.048"/>
      <point x="313.043" y="430.459"/>
      <point x="307.165" y="444.492" type="curve" smooth="yes"/>
      <point x="301.899" y="457.073"/>
      <point x="297.898" y="461.088"/>
      <point x="286.113" y="461.088" type="curve" smooth="yes"/>
      <point x="235.269" y="461.088"/>
      <point x="194.952" y="372.462"/>
    </contour>
  </outline>
</glyph>
<glyph name="quotesingle" format="1">
  <advance width="141"/>
  <unicode hex="0027"/>
  <outline>
    <contour>
      <point x="88.2197" y="678.15" type="curve" smooth="yes"/>
      <point x="92.4199" y="678.15" type="line" smooth="yes"/>
      <point x="109.874" y="678.15"/>
      <point x="120.528" y="665.955"/>
      <point x="120.528" y="649.449" type="curve" smooth="yes"/>
      <point x="120.528" y="642.69"/>
      <point x="117.728" y="634.836"/>
      <point x="115.883" y="629.104" type="curve" smooth="yes"/>
      <point x="76.201" y="505.88" type="line"/>
      <point x="73.5504" y="494.848"/>
      <point x="65.8102" y="489.85"/>
      <point x="56.7197" y="489.85" type="curve" smooth="yes"/>
      <point x="43.0703" y="489.85" type="line" smooth="yes"/>
      <point x="34.1098" y="489.85"/>
      <point x="28.4619" y="496.77"/>
      <point x="28.4619" y="504.458" type="curve" smooth="yes"/>
      <point x="28.4619" y="505.757"/>
      <point x="28.6113" y="507.275"/>
      <point x="28.7987" y="508.402" type="curve"/>
      <point x="46.5924" y="637.252" type="line"/>
      <point x="50.0749" y="660.299"/>
      <point x="70.3399" y="678.15"/>
    </contour>
  </outline>
</glyph>
<glyph name="parenleft" format="1">
  <advance width="376"/>
  <unicode hex="0028"/>
  <outline>
    <contour>
      <point x="341.311" y="752.135" type="line" smooth="yes"/>
      <point x="305.825" y="711.274"/>
      <point x="201.947" y="647.186"/>
      <point x="125.495" y="315.198" type="curve" smooth="yes"/>
      <point x="103.197" y="218.793"/>
      <point x="95.2477" y="145.943"/>
      <point x="95.2477" y="90.2404" type="curve" smooth="yes"/>
      <point x="95.2477" y="-32.0222"/>
      <point x="132.461" y="-70.4274"/>
      <point x="144.109" y="-100.712" type="curve" smooth="yes"/>
      <point x="144.903" y="-102.776" type="line"/>
      <point x="130.182" y="-161.66" type="line"/>
      <point x="121.37" y="-149.281" type="line"/>
      <point x="120.397" y="-147.913"/>
      <point x="33.3714" y="-25.2582"/>
      <point x="33.3714" y="168.145" type="curve" smooth="yes"/>
      <point x="33.3714" y="214.72"/>
      <point x="38.4314" y="265.405"/>
      <point x="50.9543" y="319.398" type="curve" smooth="yes"/>
      <point x="123.001" y="631.957"/>
      <point x="337.792" y="792.786"/>
      <point x="339.941" y="794.4" type="curve"/>
      <point x="354.567" y="805.384" type="line"/>
      <point x="342.448" y="753.445" type="line"/>
    </contour>
  </outline>
</glyph>
<glyph name="comma" format="1">
  <advance width="170"/>
  <unicode hex="002C"/>
  <outline>
    <contour>
      <point x="93" y="98" type="curve" smooth="yes"/>
      <point x="121.062" y="98"/>
      <point x="138.31" y="76.0868"/>
      <point x="138.31" y="51.9434" type="curve" smooth="yes"/>
      <point x="138.31" y="-30.6464"/>
      <point x="71.2246" y="-86"/>
      <point x="17" y="-86" type="curve" smooth="yes"/>
      <point x="3.15034" y="-86"/>
      <point x="-4.15398" y="-81.7987"/>
      <point x="-5.99438" y="-80.7949" type="curve"/>
      <point x="-7.27922" y="-80.094" type="line"/>
      <point x="-17.3262" y="-60" type="line"/>
      <point x="-6" y="-60" type="line" smooth="yes"/>
      <point x="8.0722" y="-60"/>
      <point x="45.2598" y="-41.299"/>
      <point x="45.2598" y="-23.9004" type="curve" smooth="yes"/>
      <point x="45.2598" y="-21.2115"/>
      <point x="43.9464" y="-17.975"/>
      <point x="42.1994" y="-14.9352" type="curve"/>
      <point x="32.225" y="-2.21059"/>
      <point x="20.4102" y="4.83901"/>
      <point x="20.4102" y="24.8506" type="curve" smooth="yes"/>
      <point x="20.4102" y="65.493"/>
      <point x="58.7709" y="98"/>
    </contour>
  </outline>
</glyph>
<glyph name="slash" format="1">
  <advance width="552"/>
  <unicode hex="002F"/>
  <outline>
    <contour>
      <point x="14.2177" y="-108.373" type="line" smooth="yes"/>
      <point x="181.015" y="184.308"/>
      <point x="309.981" y="431.757"/>
      <point x="442.182" y="701.403" type="curve" smooth="yes"/>
      <point x="442.976" y="703.022" type="line"/>
      <point x="443.883" y="704.872" type="line"/>
      <point x="445.571" y="706.054" type="line"/>
      <point x="447.048" y="707.088" type="line" smooth="yes"/>
      <point x="469.253" y="722.632"/>
      <point x="488.368" y="730.8"/>
      <point x="505" y="730.8" type="curve" smooth="yes"/>
      <point x="521.247" y="730.8"/>
      <point x="536.553" y="720.101"/>
      <point x="536.553" y="701.264" type="curve" smooth="yes"/>
      <point x="536.553" y="697.97"/>
      <point x="536.119" y="694.69"/>
      <point x="535.366" y="691.427" type="curve" smooth="yes"/>
      <point x="535.14" y="690.448" type="line"/>
      <point x="534.882" y="689.33" type="line"/>
      <point x="534.32" y="688.329" type="line"/>
      <point x="533.828" y="687.453" type="line" smooth="yes"/>
      <point x="388.441" y="428.644"/>
      <point x="130.842" y="-68.6577"/>
      <point x="123.999" y="-81.874" type="curve" smooth="yes"/>
      <point x="101.363" y="-141.484"/>
      <point x="58.4961" y="-120.274"/>
      <point x="32.4356" y="-129.875" type="curve" smooth="yes"/>
      <point x="14.4363" y="-136.506" type="line"/>
      <point x="-6.13437" y="-144.085" type="line"/>
      <point x="4.72009" y="-125.038" type="line"/>
    </contour>
  </outline>
</glyph>
<glyph name="zero" format="1">
  <advance width="573"/>
  <unicode hex="0030"/>
  <outline>
    <contour>
      <point x="427.47" y="447.136" type="curve" smooth="yes"/>
      <point x="427.47" y="537.337"/>
      <point x="407.478" y="594"/>
      <point x="362.777" y="594" type="curve" smooth="yes"/>
      <point x="275.147" y="594"/>
      <point x="140.397" y="366.136"/>
      <point x="140.397" y="186.288" type="curve" smooth="yes"/>
      <point x="140.397" y="95.1699"/>
      <point x="159.099" y="38"/>
      <point x="205.092" y="38" type="curve" smooth="yes"/>
      <point x="300.176" y="38"/>
      <point x="427.47" y="257.084"/>
    </contour>
    <contour>
      <point x="199.301" y="-8" type="curve" smooth="yes"/>
      <point x="99.2969" y="-8"/>
      <point x="45.2607" y="86.4092"/>
      <point x="45.2607" y="206.386" type="curve" smooth="yes"/>
      <point x="45.2607" y="422.041"/>
      <point x="205.901" y="640"/>
      <point x="368.569" y="640" type="curve" smooth="yes"/>
      <point x="467.938" y="640"/>
      <point x="520.646" y="546.38"/>
      <point x="520.646" y="427.465" type="curve" smooth="yes"/>
      <point x="520.646" y="211.991"/>
      <point x="367.588" y="-8"/>
    </contour>
  </outline>
</glyph>
<glyph name="one" format="1">
  <advance width="480"/>
  <unicode hex="0031"/>
  <outline>
    <contour>
      <point x="265.186" y="43.8516" type="curve"/>
      <point x="265.325" y="38.874"/>
      <point x="266.78" y="32"/>
      <point x="278.839" y="32" type="curve" smooth="yes"/>
      <point x="294.458" y="32" type="line"/>
      <point x="288.658" y="0" type="line"/>
      <point x="119" y="0" type="line"/>
      <point x="127.8" y="32" type="line"/>
      <point x="137.839" y="32" type="line" smooth="yes"/>
      <point x="152.876" y="32"/>
      <point x="162.903" y="42.3926"/>
      <point x="165.168" y="52.1621" type="curve"/>
      <point x="290.183" y="526.707" type="line" smooth="yes"/>
      <point x="291.775" y="533.277"/>
      <point x="294.497" y="545.205"/>
      <point x="294.497" y="546.403" type="curve" smooth="yes"/>
      <point x="294.497" y="548.375"/>
      <point x="293.936" y="552.138"/>
      <point x="293.44" y="553.634" type="curve"/>
      <point x="282.902" y="553.311"/>
      <point x="263.479" y="550.862"/>
      <point x="263.069" y="550.812" type="curve"/>
      <point x="244.889" y="549.306" type="line"/>
      <point x="254.793" y="581.99" type="line"/>
      <point x="260.998" y="584.401" type="line" smooth="yes"/>
      <point x="297.11" y="598.436"/>
      <point x="344.549" y="618.262"/>
      <point x="380.317" y="638.246" type="curve"/>
      <point x="382.596" y="639.574"/>
      <point x="387.766" y="643"/>
      <point x="394.839" y="643" type="curve" smooth="yes"/>
      <point x="399.113" y="643"/>
      <point x="414.03" y="644.565"/>
      <point x="414.03" y="633.958" type="curve" smooth="yes"/>
      <point x="414.03" y="633.893" type="line"/>
      <point x="266.732" y="50.3467" type="line"/>
      <point x="266.418" y="48.8838"/>
      <point x="265.395" y="44.8223"/>
    </contour>
  </outline>
</glyph>
<glyph name="two" format="1">
  <advance width="480"/>
  <unicode hex="0032"/>
  <outline>
    <contour>
      <point x="321.447" y="585" type="curve" smooth="yes"/>
      <point x="265.983" y="585"/>
      <point x="229.621" y="556.938"/>
      <point x="187.772" y="517.816" type="curve" smooth="yes"/>
      <point x="177.907" y="508.594" type="line"/>
      <point x="149.245" y="531.778" type="line"/>
      <point x="156.64" y="540.854" type="line"/>
      <point x="157.564" y="542.002"/>
      <point x="237.725" y="642"/>
      <point x="354.383" y="642" type="curve" smooth="yes"/>
      <point x="438.146" y="642"/>
      <point x="492.543" y="604.683"/>
      <point x="492.543" y="538.044" type="curve" smooth="yes"/>
      <point x="492.543" y="441.58"/>
      <point x="417.781" y="362.072"/>
      <point x="343.572" y="276.432" type="curve" smooth="yes"/>
      <point x="275.32" y="197.666"/>
      <point x="213.775" y="113.015"/>
      <point x="167.043" y="70" type="curve"/>
      <point x="290.779" y="70" type="line" smooth="yes"/>
      <point x="337.138" y="70"/>
      <point x="362.886" y="86.3496"/>
      <point x="378.214" y="114.1" type="curve" smooth="yes"/>
      <point x="382.727" y="122.591" type="line"/>
      <point x="412.821" y="115.387" type="line"/>
      <point x="349.465" y="0" type="line"/>
      <point x="28" y="0" type="line"/>
      <point x="32.0918" y="15.6621" type="line" smooth="yes"/>
      <point x="35.0322" y="26.9199"/>
      <point x="40.0254" y="47.9385"/>
      <point x="40.0254" y="47.9385" type="curve" smooth="yes"/>
      <point x="40.877" y="51.5234" type="line"/>
      <point x="43.6055" y="54.1123" type="line" smooth="yes"/>
      <point x="169.042" y="171.585"/>
      <point x="239" y="268"/>
      <point x="307.13" y="347.528" type="curve" smooth="yes"/>
      <point x="362.886" y="412.613"/>
      <point x="399.78" y="457.246"/>
      <point x="399.78" y="520.322" type="curve" smooth="yes"/>
      <point x="399.78" y="559.537"/>
      <point x="369.164" y="585"/>
    </contour>
  </outline>
</glyph>
<glyph name="three" format="1">
  <advance width="480"/>
  <unicode hex="0033"/>
  <outline>
    <contour>
      <point x="184.675" y="505.293" type="curve" smooth="yes"/>
      <point x="180.246" y="501.184" type="line"/>
      <point x="155.255" y="524.404" type="line"/>
      <point x="159.496" y="528.686" type="line" smooth="yes"/>
      <point x="162.154" y="531.369"/>
      <point x="262.623" y="640"/>
      <point x="382.041" y="640" type="curve" smooth="yes"/>
      <point x="458.8" y="640"/>
      <point x="506.197" y="609.54"/>
      <point x="506.197" y="555.838" type="curve" smooth="yes"/>
      <point x="506.197" y="477.757"/>
      <point x="425.736" y="425.395"/>
      <point x="357.999" y="381.132" type="curve"/>
      <point x="424.736" y="365.217"/>
      <point x="476.702" y="310.454"/>
      <point x="476.702" y="236.157" type="curve" smooth="yes"/>
      <point x="476.702" y="83.3066"/>
      <point x="323.315" y="-7"/>
      <point x="168.669" y="-7" type="curve" smooth="yes"/>
      <point x="115.927" y="-7"/>
      <point x="35" y="10.3711"/>
      <point x="35" y="47.918" type="curve" smooth="yes"/>
      <point x="35" y="54.4648"/>
      <point x="37.8574" y="59.2705"/>
      <point x="38.6279" y="60.8115" type="curve" smooth="yes"/>
      <point x="44.3711" y="72.3115"/>
      <point x="61.3564" y="78"/>
      <point x="75.2568" y="78" type="curve" smooth="yes"/>
      <point x="89.3955" y="78"/>
      <point x="101.364" y="68.2773"/>
      <point x="111.45" y="58.1924" type="curve" smooth="yes"/>
      <point x="124.441" y="45.2002"/>
      <point x="150.438" y="29"/>
      <point x="178.587" y="29" type="curve" smooth="yes"/>
      <point x="279.179" y="29"/>
      <point x="391.884" y="108.452"/>
      <point x="391.884" y="208.988" type="curve" smooth="yes"/>
      <point x="391.884" y="239.25"/>
      <point x="366.095" y="274.004"/>
      <point x="341.969" y="286.781" type="curve" smooth="yes"/>
      <point x="320.509" y="298.146"/>
      <point x="291.221" y="305.011"/>
      <point x="265.611" y="305.011" type="curve" smooth="yes"/>
      <point x="230.599" y="305.011"/>
      <point x="189.509" y="282.499"/>
      <point x="170.669" y="282.499" type="curve" smooth="yes"/>
      <point x="159.022" y="282.499"/>
      <point x="149.257" y="289.196"/>
      <point x="149.257" y="300.117" type="curve" smooth="yes"/>
      <point x="149.257" y="309.518"/>
      <point x="156.097" y="315.707"/>
      <point x="160.688" y="318.34" type="curve"/>
      <point x="169.255" y="323.186"/>
      <point x="398.496" y="449.662"/>
      <point x="398.496" y="531.066" type="curve" smooth="yes"/>
      <point x="398.496" y="558.968"/>
      <point x="380.755" y="582"/>
      <point x="347.285" y="582" type="curve" smooth="yes"/>
      <point x="298.528" y="582"/>
      <point x="232.048" y="549.243"/>
    </contour>
  </outline>
</glyph>
<glyph name="four" format="1">
  <advance width="480"/>
  <unicode hex="0034"/>
  <outline>
    <contour>
      <point x="157.226" y="324.732" type="curve"/>
      <point x="205.745" y="324.097"/>
      <point x="273.229" y="322.549"/>
      <point x="301.389" y="322.11" type="curve"/>
      <point x="315.626" y="374.562"/>
      <point x="348.947" y="483.111"/>
      <point x="351.346" y="497.953" type="curve"/>
      <point x="317.619" y="465.469"/>
      <point x="269.465" y="425.985"/>
      <point x="233.683" y="393.441" type="curve" smooth="yes"/>
      <point x="206.425" y="368.651"/>
      <point x="178.652" y="343.838"/>
    </contour>
    <contour>
      <point x="41" y="283.901" type="curve" smooth="yes"/>
      <point x="41" y="294.369"/>
      <point x="47.8779" y="300.997"/>
      <point x="51.043" y="304.056" type="curve" smooth="yes"/>
      <point x="162.486" y="411.633"/>
      <point x="297.817" y="511.66"/>
      <point x="403.442" y="618.178" type="curve"/>
      <point x="403.442" y="618.178"/>
      <point x="431.126" y="642"/>
      <point x="438.196" y="642" type="curve" smooth="yes"/>
      <point x="441.667" y="642"/>
      <point x="444.814" y="641.6"/>
      <point x="447.646" y="640.793" type="curve" smooth="yes"/>
      <point x="455.888" y="638.486"/>
      <point x="461.364" y="632.304"/>
      <point x="461.364" y="624.777" type="curve" smooth="yes"/>
      <point x="461.364" y="623.429"/>
      <point x="461.194" y="622.089"/>
      <point x="460.877" y="620.781" type="curve" smooth="yes"/>
      <point x="390.675" y="331.273" type="line"/>
      <point x="401.287" y="331.594"/>
      <point x="412.15" y="332.021"/>
      <point x="422.644" y="332.635" type="curve" smooth="yes"/>
      <point x="437.872" y="333.524"/>
      <point x="452.201" y="334.812"/>
      <point x="462.969" y="336.65" type="curve" smooth="yes"/>
      <point x="474.57" y="338.633" type="line"/>
      <point x="469.384" y="328.254" type="line" smooth="yes"/>
      <point x="464.909" y="319.301"/>
      <point x="459.712" y="312.628"/>
      <point x="459.712" y="302.606" type="curve" smooth="yes"/>
      <point x="459.712" y="294.025"/>
      <point x="461.034" y="285.854"/>
      <point x="463.067" y="281.231" type="curve" smooth="yes"/>
      <point x="466.688" y="273.007" type="line"/>
      <point x="378.585" y="273.007" type="line"/>
      <point x="318.467" y="12.0781" type="line"/>
      <point x="317.199" y="6.15527"/>
      <point x="313.35" y="0"/>
      <point x="303.856" y="0" type="curve" smooth="yes"/>
      <point x="251.298" y="0" type="line" smooth="yes"/>
      <point x="250.469" y="0"/>
      <point x="249.636" y="0.00976562"/>
      <point x="248.802" y="0.0283203" type="curve" smooth="yes"/>
      <point x="246.637" y="0.0771484"/>
      <point x="234.322" y="0.0791016"/>
      <point x="232.184" y="0.166992" type="curve" smooth="yes"/>
      <point x="228.634" y="0.3125"/>
      <point x="227.652" y="2.12793"/>
      <point x="227.652" y="4.84082" type="curve" smooth="yes"/>
      <point x="227.652" y="6.59766"/>
      <point x="228.064" y="8.73047"/>
      <point x="228.457" y="11.0303" type="curve" smooth="yes"/>
      <point x="229.036" y="14.4199"/>
      <point x="230.778" y="19.9385"/>
      <point x="230.975" y="20.7891" type="curve" smooth="yes"/>
      <point x="249.86" y="101.696"/>
      <point x="269.845" y="184.71"/>
      <point x="288.558" y="265" type="curve"/>
      <point x="59.1963" y="265" type="line" smooth="yes"/>
      <point x="46.7637" y="265"/>
      <point x="41" y="275.991"/>
    </contour>
  </outline>
</glyph>
<glyph name="five" format="1">
  <advance width="480"/>
  <unicode hex="0035"/>
  <outline>
    <contour>
      <point x="211.687" y="611.098" type="line"/>
      <point x="443.393" y="611.098" type="line" smooth="yes"/>
      <point x="460.423" y="611.098"/>
      <point x="479.241" y="611.976"/>
      <point x="491.54" y="614.683" type="curve" smooth="yes"/>
      <point x="494.548" y="615.359"/>
      <point x="506.155" y="617"/>
      <point x="511.393" y="617" type="curve" smooth="yes"/>
      <point x="518.521" y="617"/>
      <point x="527.546" y="614.553"/>
      <point x="527.546" y="604.151" type="curve" smooth="yes"/>
      <point x="527.546" y="592.392"/>
      <point x="509.912" y="573.785"/>
      <point x="501.494" y="560.602" type="curve" smooth="yes"/>
      <point x="497.694" y="554.653" type="line"/>
      <point x="240.308" y="554.653" type="line"/>
      <point x="159.801" y="391.927" type="line"/>
      <point x="204.044" y="408.118"/>
      <point x="245.519" y="416"/>
      <point x="283.607" y="416" type="curve" smooth="yes"/>
      <point x="382.735" y="416"/>
      <point x="449.55" y="362.094"/>
      <point x="449.55" y="269.247" type="curve" smooth="yes"/>
      <point x="449.55" y="122.903"/>
      <point x="311.279" y="-9"/>
      <point x="162.105" y="-9" type="curve" smooth="yes"/>
      <point x="114.368" y="-9"/>
      <point x="58.3447" y="13.3691"/>
      <point x="16.3936" y="53.6191" type="curve" smooth="yes"/>
      <point x="11.8965" y="57.9316"/>
      <point x="10" y="63.626"/>
      <point x="10" y="68.6074" type="curve" smooth="yes"/>
      <point x="10" y="80.0029"/>
      <point x="20.2842" y="91"/>
      <point x="31.3926" y="91" type="curve" smooth="yes"/>
      <point x="39.0967" y="91"/>
      <point x="42.9062" y="86.7734"/>
      <point x="45.0117" y="84.6699" type="curve"/>
      <point x="69.8223" y="60.0898"/>
      <point x="125.594" y="41"/>
      <point x="161.001" y="41" type="curve" smooth="yes"/>
      <point x="270.275" y="41"/>
      <point x="366.816" y="134.521"/>
      <point x="366.816" y="219.349" type="curve" smooth="yes"/>
      <point x="366.816" y="284.007"/>
      <point x="323.858" y="334"/>
      <point x="245.691" y="334" type="curve" smooth="yes"/>
      <point x="202.866" y="334"/>
      <point x="137.11" y="315.568"/>
      <point x="74.7656" y="280.67" type="curve" smooth="yes"/>
      <point x="39.7559" y="260.975" type="line"/>
    </contour>
  </outline>
</glyph>
<glyph name="six" format="1">
  <advance width="566"/>
  <unicode hex="0036"/>
  <outline>
    <contour>
      <point x="498.955" y="597.133" type="curve" smooth="yes"/>
      <point x="305.974" y="543.072"/>
      <point x="135.747" y="386.028"/>
      <point x="135.747" y="171.436" type="curve" smooth="yes"/>
      <point x="135.747" y="97.0381"/>
      <point x="164.208" y="33"/>
      <point x="224.637" y="33" type="curve" smooth="yes"/>
      <point x="323.968" y="33"/>
      <point x="407.649" y="116.793"/>
      <point x="407.649" y="250.353" type="curve" smooth="yes"/>
      <point x="407.649" y="311.661"/>
      <point x="366.765" y="344.66"/>
      <point x="315.401" y="344.66" type="curve" smooth="yes"/>
      <point x="268.231" y="344.66"/>
      <point x="245.141" y="333.767"/>
      <point x="220.408" y="314.19" type="curve" smooth="yes"/>
      <point x="219.954" y="313.831" type="line"/>
      <point x="219.479" y="313.518" type="line" smooth="yes"/>
      <point x="214.78" y="310.419"/>
      <point x="209.41" y="309.079"/>
      <point x="204.399" y="309.079" type="curve" smooth="yes"/>
      <point x="196.12" y="309.079"/>
      <point x="185.054" y="313.228"/>
      <point x="185.054" y="325.606" type="curve" smooth="yes"/>
      <point x="185.054" y="333.527"/>
      <point x="191.997" y="340.142"/>
      <point x="196.88" y="344.442" type="curve"/>
      <point x="225.503" y="369.474"/>
      <point x="273.677" y="412.309"/>
      <point x="360.493" y="412.309" type="curve" smooth="yes"/>
      <point x="422.22" y="412.309"/>
      <point x="500.31" y="373.396"/>
      <point x="500.31" y="271.431" type="curve" smooth="yes"/>
      <point x="500.31" y="120.531"/>
      <point x="371.286" y="-8"/>
      <point x="211.749" y="-8" type="curve" smooth="yes"/>
      <point x="104.931" y="-8"/>
      <point x="42.2529" y="79.3828"/>
      <point x="42.2529" y="185.563" type="curve" smooth="yes"/>
      <point x="42.2529" y="457.488"/>
      <point x="302.105" y="598.637"/>
      <point x="502.948" y="636.732" type="curve"/>
      <point x="514.437" y="639.126" type="line"/>
      <point x="516.067" y="633.947" type="line" smooth="yes"/>
      <point x="517.178" y="630.421"/>
      <point x="517.77" y="626.701"/>
      <point x="517.77" y="623.023" type="curve" smooth="yes"/>
      <point x="517.77" y="611.736"/>
      <point x="512.198" y="600.843"/>
    </contour>
  </outline>
</glyph>
<glyph name="seven" format="1">
  <advance width="480"/>
  <unicode hex="0037"/>
  <outline>
    <contour>
      <point x="39.0811" y="7.95215" type="line" smooth="yes"/>
      <point x="100.435" y="166.287"/>
      <point x="277.867" y="399.012"/>
      <point x="422.607" y="546" type="curve"/>
      <point x="166.709" y="546" type="line" smooth="yes"/>
      <point x="150.581" y="546"/>
      <point x="143.497" y="527.55"/>
      <point x="142.475" y="526.381" type="curve"/>
      <point x="138.58" y="522" type="line"/>
      <point x="132.742" y="522" type="line" smooth="yes"/>
      <point x="121.881" y="522"/>
      <point x="118.925" y="534.345"/>
      <point x="118.925" y="534.345" type="curve" smooth="yes"/>
      <point x="118.396" y="536.186" type="line"/>
      <point x="120.301" y="541.599" type="line"/>
      <point x="147.128" y="604.908" type="line"/>
      <point x="147.596" y="605.688" type="line" smooth="yes"/>
      <point x="151.721" y="612.565"/>
      <point x="158.401" y="622"/>
      <point x="169.886" y="622" type="curve" smooth="yes"/>
      <point x="521.742" y="622" type="line" smooth="yes"/>
      <point x="533.861" y="622"/>
      <point x="541.988" y="612.626"/>
      <point x="541.988" y="602.45" type="curve" smooth="yes"/>
      <point x="541.988" y="588.893"/>
      <point x="530.83" y="578.947"/>
      <point x="528.899" y="576.595" type="curve"/>
      <point x="375.25" y="395.072"/>
      <point x="190.517" y="163.467"/>
      <point x="128.222" y="3.90137" type="curve" smooth="yes"/>
      <point x="126.766" y="0" type="line"/>
      <point x="36" y="0" type="line"/>
    </contour>
  </outline>
</glyph>
<glyph name="eight" format="1">
  <advance width="480"/>
  <unicode hex="0038"/>
  <outline>
    <contour>
      <point x="271.051" y="321.533" type="curve"/>
      <point x="178.956" y="259.259"/>
      <point x="127.038" y="220.816"/>
      <point x="127.038" y="127.481" type="curve" smooth="yes"/>
      <point x="127.038" y="65.7236"/>
      <point x="158.33" y="32"/>
      <point x="210.481" y="32" type="curve" smooth="yes"/>
      <point x="295.488" y="32"/>
      <point x="363.769" y="102.189"/>
      <point x="363.769" y="178.485" type="curve" smooth="yes"/>
      <point x="363.769" y="231.188"/>
      <point x="320.482" y="283.499"/>
    </contour>
    <contour>
      <point x="358.47" y="607" type="curve" smooth="yes"/>
      <point x="271.789" y="607"/>
      <point x="239.681" y="545.618"/>
      <point x="239.681" y="477.454" type="curve" smooth="yes"/>
      <point x="239.681" y="436.809"/>
      <point x="270.568" y="416.24"/>
      <point x="307.349" y="387.955" type="curve"/>
      <point x="362.612" y="427.746"/>
      <point x="429.978" y="464.14"/>
      <point x="429.978" y="519.715" type="curve" smooth="yes"/>
      <point x="429.978" y="568.467"/>
      <point x="411.333" y="607"/>
    </contour>
    <contour>
      <point x="372.574" y="643" type="curve" smooth="yes"/>
      <point x="444.387" y="643"/>
      <point x="505.329" y="597.554"/>
      <point x="505.329" y="532.452" type="curve" smooth="yes"/>
      <point x="505.329" y="448.643"/>
      <point x="410.998" y="399.168"/>
      <point x="356.186" y="363.708" type="curve"/>
      <point x="408.836" y="316.574"/>
      <point x="452.286" y="267.016"/>
      <point x="452.286" y="194.616" type="curve" smooth="yes"/>
      <point x="452.286" y="87.9463"/>
      <point x="342.295" y="-8"/>
      <point x="200.444" y="-8" type="curve" smooth="yes"/>
      <point x="117.018" y="-8"/>
      <point x="36" y="39.6729"/>
      <point x="36" y="123.052" type="curve" smooth="yes"/>
      <point x="36" y="227.342"/>
      <point x="125.649" y="282.42"/>
      <point x="219.379" y="341.364" type="curve"/>
      <point x="181.188" y="372.051"/>
      <point x="146.442" y="405.29"/>
      <point x="146.442" y="464.972" type="curve" smooth="yes"/>
      <point x="146.442" y="550.57"/>
      <point x="208.755" y="643"/>
    </contour>
  </outline>
</glyph>
<glyph name="nine" format="1">
  <advance width="480"/>
  <unicode hex="0039"/>
  <outline>
    <contour>
      <point x="37.4463" y="-6.58984" type="line"/>
      <point x="36.916" y="-5.18848"/>
      <point x="35" y="-0.00683594"/>
      <point x="35" y="6.95703" type="curve" smooth="yes"/>
      <point x="35" y="19.1992"/>
      <point x="41.7354" y="30.7598"/>
      <point x="55.9062" y="34.6426" type="curve"/>
      <point x="239.912" y="90.2656"/>
      <point x="412.191" y="256.771"/>
      <point x="412.191" y="480.656" type="curve" smooth="yes"/>
      <point x="412.191" y="550.86"/>
      <point x="387.799" y="600"/>
      <point x="317.87" y="600" type="curve" smooth="yes"/>
      <point x="242.772" y="600"/>
      <point x="147.575" y="529.176"/>
      <point x="147.575" y="399.665" type="curve" smooth="yes"/>
      <point x="147.575" y="332.392"/>
      <point x="182" y="310"/>
      <point x="218.966" y="310" type="curve" smooth="yes"/>
      <point x="263.991" y="310"/>
      <point x="306.991" y="328.105"/>
      <point x="329.558" y="347.046" type="curve" smooth="yes"/>
      <point x="335.488" y="352.021"/>
      <point x="341.477" y="353.76"/>
      <point x="347.338" y="353.76" type="curve" smooth="yes"/>
      <point x="356.08" y="353.76"/>
      <point x="364.896" y="346.847"/>
      <point x="364.896" y="337.352" type="curve" smooth="yes"/>
      <point x="364.896" y="328.823"/>
      <point x="360.221" y="322.119"/>
      <point x="357.052" y="318.485" type="curve" smooth="yes"/>
      <point x="356.729" y="318.116" type="line"/>
      <point x="356.327" y="317.729" type="line" smooth="yes"/>
      <point x="327.092" y="289.69"/>
      <point x="285.702" y="246.96"/>
      <point x="199.042" y="246.96" type="curve" smooth="yes"/>
      <point x="139.464" y="246.96"/>
      <point x="63.7148" y="279.288"/>
      <point x="63.7148" y="379.707" type="curve" smooth="yes"/>
      <point x="63.7148" y="529.38"/>
      <point x="193.679" y="641"/>
      <point x="324.691" y="641" type="curve" smooth="yes"/>
      <point x="433.587" y="641"/>
      <point x="498.011" y="583.251"/>
      <point x="498.011" y="472.29" type="curve" smooth="yes"/>
      <point x="498.011" y="185.118"/>
      <point x="244.273" y="30.8545"/>
      <point x="52.9336" y="-14.5879" type="curve"/>
      <point x="41.3721" y="-17.6045" type="line"/>
    </contour>
  </outline>
</glyph>
<glyph name="greater" format="1">
  <advance width="509"/>
  <unicode hex="003E"/>
  <outline>
    <contour>
      <point x="345.915" y="314.854" type="line"/>
      <point x="128.184" y="473.026" type="line"/>
      <point x="145.423" y="551.832" type="line"/>
      <point x="467.706" y="323.115" type="line"/>
      <point x="463.261" y="299.408" type="line"/>
      <point x="34.64" y="70.5325" type="line"/>
      <point x="54.9038" y="156.653" type="line"/>
    </contour>
  </outline>
</glyph>
<glyph name="at" format="1">
  <advance width="723"/>
  <unicode hex="0040"/>
  <outline>
    <contour>
      <point x="307.1" y="-34.6748" type="curve" smooth="yes"/>
      <point x="428.667" y="-34.6748"/>
      <point x="517.528" y="11.7734"/>
      <point x="556.67" y="43.6748" type="curve"/>
      <point x="559.1" y="43.6748" type="line" smooth="yes"/>
      <point x="565.786" y="43.6748"/>
      <point x="573.175" y="40.7061"/>
      <point x="573.175" y="33.5098" type="curve" smooth="yes"/>
      <point x="573.175" y="26.8125"/>
      <point x="569.298" y="22.3223"/>
      <point x="566.171" y="19.2314" type="curve" smooth="yes"/>
      <point x="524.052" y="-16.4082"/>
      <point x="436.061" y="-70.6748"/>
      <point x="297.649" y="-70.6748" type="curve" smooth="yes"/>
      <point x="178.998" y="-70.6748"/>
      <point x="25.3945" y="-11.3213"/>
      <point x="25.3945" y="147.973" type="curve" smooth="yes"/>
      <point x="25.3945" y="369.917"/>
      <point x="221.102" y="529.675"/>
      <point x="460.35" y="529.675" type="curve" smooth="yes"/>
      <point x="586.073" y="529.675"/>
      <point x="693.46" y="463.456"/>
      <point x="693.46" y="330.724" type="curve" smooth="yes"/>
      <point x="693.46" y="169.553"/>
      <point x="584.545" y="56.875"/>
      <point x="430" y="56.875" type="curve" smooth="yes"/>
      <point x="400.771" y="56.875"/>
      <point x="394.594" y="81.6787"/>
      <point x="392.816" y="89.6289" type="curve"/>
      <point x="378.09" y="79.4072"/>
      <point x="333.822" y="52.6748"/>
      <point x="281.35" y="52.6748" type="curve" smooth="yes"/>
      <point x="215.848" y="52.6748"/>
      <point x="172.952" y="101.953"/>
      <point x="172.952" y="161.431" type="curve" smooth="yes"/>
      <point x="172.952" y="333.084"/>
      <point x="354.091" y="402.675"/>
      <point x="435.699" y="402.675" type="curve" smooth="yes"/>
      <point x="464.938" y="402.675"/>
      <point x="503.458" y="391.487"/>
      <point x="508.271" y="391.117" type="curve"/>
      <point x="515.383" y="391.519"/>
      <point x="526.308" y="398.534"/>
      <point x="529.45" y="401.675" type="curve" smooth="yes"/>
      <point x="531.5" y="403.725" type="line"/>
      <point x="534.399" y="403.725" type="line" smooth="yes"/>
      <point x="548.606" y="403.725"/>
      <point x="556.418" y="396.266"/>
      <point x="561.224" y="389.058" type="curve" smooth="yes"/>
      <point x="563.744" y="385.278" type="line"/>
      <point x="561.318" y="381.437" type="line" smooth="yes"/>
      <point x="549.303" y="362.412"/>
      <point x="536.54" y="334.589"/>
      <point x="525.48" y="301.632" type="curve"/>
      <point x="525.217" y="300.842" type="line"/>
      <point x="455.119" y="129.257" type="line"/>
      <point x="455.024" y="128.433"/>
      <point x="454.986" y="127.743"/>
      <point x="454.986" y="127.057" type="curve" smooth="yes"/>
      <point x="454.986" y="116.728"/>
      <point x="466.991" y="110.775"/>
      <point x="493.449" y="110.775" type="curve" smooth="yes"/>
      <point x="551.767" y="110.775"/>
      <point x="626.231" y="219.581"/>
      <point x="626.231" y="319.032" type="curve" smooth="yes"/>
      <point x="626.231" y="420.542"/>
      <point x="571.761" y="491.075"/>
      <point x="441.5" y="491.075" type="curve" smooth="yes"/>
      <point x="280.575" y="491.075"/>
      <point x="101.274" y="362.254"/>
      <point x="101.274" y="161.259" type="curve" smooth="yes"/>
      <point x="101.274" y="25.6611"/>
      <point x="205.108" y="-34.6748"/>
    </contour>
    <contour>
      <point x="247.904" y="183.472" type="curve" smooth="yes"/>
      <point x="247.904" y="147.773"/>
      <point x="269.682" y="98.6748"/>
      <point x="318.6" y="98.6748" type="curve" smooth="yes"/>
      <point x="372.911" y="98.6748"/>
      <point x="394.97" y="132.673"/>
      <point x="405.984" y="156.715" type="curve" smooth="yes"/>
      <point x="428.567" y="206.689"/>
      <point x="449.439" y="257.995"/>
      <point x="471.008" y="308.603" type="curve" smooth="yes"/>
      <point x="471.995" y="313.438"/>
      <point x="472.279" y="316.462"/>
      <point x="472.279" y="319.962" type="curve" smooth="yes"/>
      <point x="472.279" y="345.788"/>
      <point x="448.287" y="355.075"/>
      <point x="418.899" y="355.075" type="curve" smooth="yes"/>
      <point x="359.203" y="355.075"/>
      <point x="247.904" y="285.935"/>
    </contour>
  </outline>
</glyph>
<glyph name="A" format="1">
  <advance width="685"/>
  <unicode hex="0041"/>
  <outline>
    <contour>
      <point x="661.881" y="30" type="line"/>
      <point x="661.881" y="30"/>
      <point x="662.239" y="27.9473"/>
      <point x="662.239" y="25.0059" type="curve" smooth="yes"/>
      <point x="662.239" y="21.9619"/>
      <point x="661.855" y="17.9639"/>
      <point x="660.292" y="14.3047" type="curve" smooth="yes"/>
      <point x="656.936" y="6.44727"/>
      <point x="646.9" y="0"/>
      <point x="646.9" y="0" type="curve"/>
      <point x="439.9" y="0" type="line"/>
      <point x="439.9" y="0"/>
      <point x="439.101" y="2.6875"/>
      <point x="439.101" y="6.43457" type="curve" smooth="yes"/>
      <point x="439.101" y="9.34082"/>
      <point x="439.582" y="12.8848"/>
      <point x="441.292" y="16.3047" type="curve" smooth="yes"/>
      <point x="445.292" y="24.3047"/>
      <point x="452.9" y="30"/>
      <point x="452.9" y="30" type="curve"/>
      <point x="458.435" y="30" type="line" smooth="yes"/>
      <point x="465.663" y="30"/>
      <point x="473.946" y="30.9707"/>
      <point x="481.273" y="31.8623" type="curve" smooth="yes"/>
      <point x="494.891" y="34.835"/>
      <point x="501.201" y="43.1748"/>
      <point x="505.567" y="58.7461" type="curve"/>
      <point x="506.487" y="64.1621"/>
      <point x="506.849" y="72.21"/>
      <point x="506.849" y="76.5059" type="curve" smooth="yes"/>
      <point x="506.849" y="78.1943"/>
      <point x="506.733" y="80.1504"/>
      <point x="506.498" y="81.9834" type="curve" smooth="yes"/>
      <point x="470.56" y="291.724" type="line"/>
      <point x="469.979" y="294.013"/>
      <point x="469.782" y="294.599"/>
      <point x="469.651" y="295" type="curve"/>
      <point x="290.282" y="295" type="line" smooth="yes"/>
      <point x="288.386" y="295"/>
      <point x="288.371" y="294.722"/>
      <point x="284.816" y="290.156" type="curve"/>
      <point x="146.363" y="86.1045" type="line"/>
      <point x="135.752" y="70.0078"/>
      <point x="130.598" y="63.21"/>
      <point x="130.598" y="51.8047" type="curve" smooth="yes"/>
      <point x="130.598" y="45.1133"/>
      <point x="135.047" y="38.0879"/>
      <point x="144.786" y="32.8555" type="curve" smooth="yes"/>
      <point x="149.259" y="30.4531"/>
      <point x="155.413" y="30"/>
      <point x="162.435" y="30" type="curve" smooth="yes"/>
      <point x="170.881" y="30" type="line"/>
      <point x="170.881" y="30"/>
      <point x="171.239" y="27.9473"/>
      <point x="171.239" y="25.0059" type="curve" smooth="yes"/>
      <point x="171.239" y="21.9619"/>
      <point x="170.855" y="17.9639"/>
      <point x="169.292" y="14.3047" type="curve" smooth="yes"/>
      <point x="165.936" y="6.44727"/>
      <point x="155.9" y="0"/>
      <point x="155.9" y="0" type="curve"/>
      <point x="-13.0996" y="0" type="line"/>
      <point x="-13.0996" y="0"/>
      <point x="-13.8994" y="2.6875"/>
      <point x="-13.8994" y="6.43457" type="curve" smooth="yes"/>
      <point x="-13.8994" y="9.34082"/>
      <point x="-13.418" y="12.8848"/>
      <point x="-11.708" y="16.3047" type="curve" smooth="yes"/>
      <point x="-7.70801" y="24.3047"/>
      <point x="-0.0996094" y="30"/>
      <point x="-0.0996094" y="30" type="curve"/>
      <point x="6.43457" y="30" type="line" smooth="yes"/>
      <point x="12.459" y="30"/>
      <point x="21.8369" y="30.377"/>
      <point x="28.0635" y="32.8457" type="curve" smooth="yes"/>
      <point x="43.4766" y="38.957"/>
      <point x="54.4863" y="58.3252"/>
      <point x="65.5088" y="75.0254" type="curve"/>
      <point x="472.139" y="709.146" type="line"/>
      <point x="473.167" y="709.921" type="line" smooth="yes"/>
      <point x="487.96" y="721.076"/>
      <point x="493.707" y="718.951"/>
      <point x="506.109" y="728.504" type="curve" smooth="yes"/>
      <point x="515.62" y="735.977" type="line"/>
      <point x="622.335" y="53.915" type="line" smooth="yes"/>
      <point x="624.261" y="44.4707"/>
      <point x="626.198" y="37.9775"/>
      <point x="631.799" y="33.8398" type="curve" smooth="yes"/>
      <point x="635.877" y="30.8262"/>
      <point x="647.007" y="30"/>
      <point x="653.435" y="30" type="curve" smooth="yes"/>
    </contour>
    <contour>
      <point x="432.767" y="531.947" type="line"/>
      <point x="317.787" y="358" type="line"/>
      <point x="459.435" y="358" type="line" smooth="yes"/>
      <point x="459.731" y="358"/>
      <point x="460" y="358.032"/>
      <point x="460.179" y="358.049" type="curve"/>
      <point x="459.883" y="360.365"/>
      <point x="459.508" y="362.988"/>
      <point x="459.508" y="362.988" type="curve"/>
    </contour>
  </outline>
</glyph>
<glyph name="B" format="1">
  <advance width="616"/>
  <unicode hex="0042"/>
  <outline>
    <contour>
      <point x="143.971" y="700" type="line"/>
      <point x="143.971" y="700"/>
      <point x="143.101" y="702.688"/>
      <point x="143.101" y="706.435" type="curve" smooth="yes"/>
      <point x="143.101" y="709.341"/>
      <point x="143.582" y="712.885"/>
      <point x="145.292" y="716.305" type="curve" smooth="yes"/>
      <point x="149.292" y="724.305"/>
      <point x="156.9" y="730"/>
      <point x="156.9" y="730" type="curve"/>
      <point x="188.555" y="730" type="line" smooth="yes"/>
      <point x="250.834" y="730"/>
      <point x="303.018" y="734"/>
      <point x="364.957" y="734" type="curve" smooth="yes"/>
      <point x="485.002" y="734"/>
      <point x="556.678" y="673.322"/>
      <point x="556.678" y="585.227" type="curve" smooth="yes"/>
      <point x="556.678" y="483.218"/>
      <point x="482.583" y="418.802"/>
      <point x="395.152" y="390.651" type="curve"/>
      <point x="459.882" y="375.898"/>
      <point x="522.793" y="323.447"/>
      <point x="522.793" y="235.921" type="curve" smooth="yes"/>
      <point x="522.793" y="68.1953"/>
      <point x="379.672" y="-2"/>
      <point x="260.577" y="-2" type="curve" smooth="yes"/>
      <point x="192.525" y="-2"/>
      <point x="161.282" y="0"/>
      <point x="65.9658" y="0" type="curve" smooth="yes"/>
      <point x="-15.0996" y="0" type="line"/>
      <point x="-15.0996" y="0"/>
      <point x="-15.8994" y="2.6875"/>
      <point x="-15.8994" y="6.43457" type="curve" smooth="yes"/>
      <point x="-15.8994" y="9.34082"/>
      <point x="-15.418" y="12.8848"/>
      <point x="-13.708" y="16.3047" type="curve" smooth="yes"/>
      <point x="-9.70801" y="24.3047"/>
      <point x="-2.09961" y="30"/>
      <point x="-2.09961" y="30" type="curve"/>
      <point x="0.96582" y="30" type="line" smooth="yes"/>
      <point x="9.08594" y="30"/>
      <point x="16.0723" y="29.9922"/>
      <point x="23.3945" y="31.7852" type="curve"/>
      <point x="39.793" y="35.167"/>
      <point x="49.6963" y="56.6172"/>
      <point x="52.1562" y="67.0566" type="curve"/>
      <point x="82.1729" y="182.71"/>
      <point x="104.146" y="288.184"/>
      <point x="131.284" y="403.742" type="curve" smooth="yes"/>
      <point x="151.56" y="490.078"/>
      <point x="185.85" y="653.242"/>
      <point x="185.85" y="653.242" type="curve"/>
      <point x="186.648" y="656.801"/>
      <point x="190" y="673.499"/>
      <point x="190" y="677" type="curve" smooth="yes"/>
      <point x="190" y="689.967"/>
      <point x="185.611" y="696.006"/>
      <point x="178.133" y="698.346" type="curve"/>
      <point x="172.437" y="699.873"/>
      <point x="164.637" y="700"/>
      <point x="156.329" y="700" type="curve" smooth="yes"/>
    </contour>
    <contour>
      <point x="232.003" y="349.34" type="curve"/>
      <point x="165.172" y="66.2188" type="line" smooth="yes"/>
      <point x="164.654" y="63.5479"/>
      <point x="161.375" y="49.749"/>
      <point x="161.375" y="47.8389" type="curve" smooth="yes"/>
      <point x="161.375" y="40.8115"/>
      <point x="165.381" y="40"/>
      <point x="171.672" y="40" type="curve" smooth="yes"/>
      <point x="187.653" y="40"/>
      <point x="193.311" y="39"/>
      <point x="208.643" y="39" type="curve" smooth="yes"/>
      <point x="366.526" y="39"/>
      <point x="421.461" y="143.081"/>
      <point x="421.461" y="233.94" type="curve" smooth="yes"/>
      <point x="421.461" y="306.993"/>
      <point x="353.469" y="351"/>
      <point x="279.533" y="351" type="curve" smooth="yes"/>
      <point x="263.231" y="351"/>
      <point x="242.22" y="349.849"/>
    </contour>
    <contour>
      <point x="319.561" y="692.055" type="curve"/>
      <point x="310.288" y="691.031"/>
      <point x="307.853" y="689"/>
      <point x="305.417" y="680.647" type="curve" smooth="yes"/>
      <point x="267.873" y="517.655" type="line"/>
      <point x="243.638" y="412" type="line"/>
      <point x="274.314" y="412" type="line" smooth="yes"/>
      <point x="397.536" y="412"/>
      <point x="463.036" y="482.696"/>
      <point x="463.036" y="591.899" type="curve" smooth="yes"/>
      <point x="463.036" y="643.011"/>
      <point x="433.467" y="694"/>
      <point x="353.168" y="694" type="curve" smooth="yes"/>
      <point x="337.986" y="694"/>
      <point x="320.738" y="692.098"/>
    </contour>
  </outline>
</glyph>
<glyph name="C" format="1">
  <advance width="736"/>
  <unicode hex="0043"/>
  <outline>
    <contour>
      <point x="511.452" y="742" type="curve" smooth="yes"/>
      <point x="643.432" y="742"/>
      <point x="688.955" y="657"/>
      <point x="710.392" y="657" type="curve" smooth="yes"/>
      <point x="727.969" y="657"/>
      <point x="732.81" y="684"/>
      <point x="749.392" y="684" type="curve" smooth="yes"/>
      <point x="755.211" y="684"/>
      <point x="760.227" y="679.325"/>
      <point x="760.227" y="670.501" type="curve" smooth="yes"/>
      <point x="760.227" y="668.637"/>
      <point x="760.078" y="665.925"/>
      <point x="759.632" y="663.589" type="curve"/>
      <point x="716.312" y="462.139" type="line"/>
      <point x="714.765" y="455.265"/>
      <point x="708.135" y="450.732"/>
      <point x="700.786" y="450.732" type="curve" smooth="yes"/>
      <point x="695.865" y="450.732"/>
      <point x="688.392" y="456.616"/>
      <point x="688.392" y="466" type="curve" smooth="yes"/>
      <point x="688.392" y="565.635"/>
      <point x="637.836" y="691"/>
      <point x="488.783" y="691" type="curve" smooth="yes"/>
      <point x="279.003" y="691"/>
      <point x="173.698" y="432.79"/>
      <point x="173.698" y="237.338" type="curve" smooth="yes"/>
      <point x="173.698" y="77.2354"/>
      <point x="275.991" y="46"/>
      <point x="332.164" y="46" type="curve" smooth="yes"/>
      <point x="510.13" y="46"/>
      <point x="613.373" y="184.746"/>
      <point x="626" y="203" type="curve"/>
      <point x="662.461" y="188.655" type="line"/>
      <point x="658.635" y="181.823"/>
      <point x="554.586" y="-10"/>
      <point x="324.951" y="-10" type="curve" smooth="yes"/>
      <point x="220.068" y="-10"/>
      <point x="52.3896" y="37.2637"/>
      <point x="52.3896" y="241.982" type="curve" smooth="yes"/>
      <point x="52.3896" y="504.517"/>
      <point x="235.938" y="742"/>
    </contour>
  </outline>
</glyph>
<glyph name="D" format="1">
  <advance width="817"/>
  <unicode hex="0044"/>
  <outline>
    <contour>
      <point x="205.291" y="700" type="line"/>
      <point x="204.9" y="700"/>
      <point x="204.101" y="702.688"/>
      <point x="204.101" y="706.435" type="curve" smooth="yes"/>
      <point x="204.101" y="709.341"/>
      <point x="204.582" y="712.885"/>
      <point x="206.292" y="716.305" type="curve" smooth="yes"/>
      <point x="210.292" y="724.305"/>
      <point x="217.9" y="730"/>
      <point x="217.9" y="730" type="curve"/>
      <point x="356.358" y="730" type="line" smooth="yes"/>
      <point x="406.667" y="730"/>
      <point x="457.07" y="731"/>
      <point x="506.547" y="731" type="curve" smooth="yes"/>
      <point x="663.76" y="731"/>
      <point x="784.99" y="641.958"/>
      <point x="784.99" y="467.927" type="curve" smooth="yes"/>
      <point x="784.99" y="170.607"/>
      <point x="559.869" y="-3"/>
      <point x="322.412" y="-3" type="curve" smooth="yes"/>
      <point x="314.182" y="-3" type="line" smooth="yes"/>
      <point x="302.893" y="-3"/>
      <point x="281.303" y="-2.05371"/>
      <point x="279.992" y="-1.99609" type="curve"/>
      <point x="276.639" y="-1.9248"/>
      <point x="186.074" y="0"/>
      <point x="170.166" y="0" type="curve" smooth="yes"/>
      <point x="42.9004" y="0" type="line"/>
      <point x="42.9004" y="0"/>
      <point x="42.1006" y="2.6875"/>
      <point x="42.1006" y="6.43457" type="curve" smooth="yes"/>
      <point x="42.1006" y="9.34082"/>
      <point x="42.582" y="12.8848"/>
      <point x="44.292" y="16.3047" type="curve" smooth="yes"/>
      <point x="48.292" y="24.3047"/>
      <point x="55.9004" y="30"/>
      <point x="55.9004" y="30" type="curve"/>
      <point x="59.9658" y="30" type="line" smooth="yes"/>
      <point x="68.0859" y="30"/>
      <point x="75.0723" y="30.9922"/>
      <point x="82.3945" y="32.7852" type="curve"/>
      <point x="98.793" y="36.167"/>
      <point x="105.696" y="46.6172"/>
      <point x="108.156" y="57.0566" type="curve"/>
      <point x="137.181" y="172.741"/>
      <point x="157" y="268"/>
      <point x="188.897" y="402.797" type="curve" smooth="yes"/>
      <point x="214" y="509"/>
      <point x="226.395" y="574.76"/>
      <point x="247" y="666" type="curve"/>
      <point x="247.467" y="667.927"/>
      <point x="248.67" y="675.614"/>
      <point x="248.67" y="677.312" type="curve" smooth="yes"/>
      <point x="248.67" y="687.582"/>
      <point x="245.868" y="695.675"/>
      <point x="236.496" y="698.224" type="curve" smooth="yes"/>
      <point x="230.385" y="699.886"/>
      <point x="224" y="700"/>
      <point x="215.514" y="700" type="curve" smooth="yes"/>
    </contour>
    <contour>
      <point x="364.126" y="675.872" type="curve"/>
      <point x="361.056" y="660.779" type="line"/>
      <point x="311.593" y="454.931"/>
      <point x="223.873" y="55.3086"/>
      <point x="223.873" y="55.3086" type="curve"/>
      <point x="223.16" y="51.6934"/>
      <point x="222.752" y="48.4258"/>
      <point x="222.752" y="46.5869" type="curve" smooth="yes"/>
      <point x="222.752" y="44.8672"/>
      <point x="223.071" y="44.1289"/>
      <point x="223.071" y="44.127" type="curve"/>
      <point x="223.208" y="44.0371"/>
      <point x="225.409" y="43.3086"/>
      <point x="228.356" y="43.0029" type="curve"/>
      <point x="299.361" y="44" type="line"/>
      <point x="317.924" y="44" type="line" smooth="yes"/>
      <point x="551.946" y="44"/>
      <point x="668.703" y="260.384"/>
      <point x="668.703" y="480.383" type="curve" smooth="yes"/>
      <point x="668.703" y="626.278"/>
      <point x="587.014" y="682"/>
      <point x="458.256" y="682" type="curve" smooth="yes"/>
      <point x="371.444" y="682" type="line" smooth="yes"/>
      <point x="368.258" y="682"/>
      <point x="364.637" y="678.787"/>
    </contour>
  </outline>
</glyph>
<glyph name="F" format="1">
  <advance width="633"/>
  <unicode hex="0046"/>
  <outline>
    <contour>
      <point x="230.881" y="30" type="line"/>
      <point x="230.881" y="30"/>
      <point x="231.239" y="27.9473"/>
      <point x="231.239" y="25.0059" type="curve" smooth="yes"/>
      <point x="231.239" y="21.9619"/>
      <point x="230.855" y="17.9639"/>
      <point x="229.292" y="14.3047" type="curve" smooth="yes"/>
      <point x="225.936" y="6.44727"/>
      <point x="215.9" y="0"/>
      <point x="215.9" y="0" type="curve"/>
      <point x="8" y="0" type="line"/>
      <point x="8" y="0"/>
      <point x="7.10059" y="2.6875"/>
      <point x="7.10059" y="6.43457" type="curve" smooth="yes"/>
      <point x="7.10059" y="9.34082"/>
      <point x="7.58203" y="12.8848"/>
      <point x="9.29199" y="16.3047" type="curve" smooth="yes"/>
      <point x="13.292" y="24.3047"/>
      <point x="20.9004" y="30"/>
      <point x="20.9004" y="30" type="curve"/>
      <point x="25.9658" y="30" type="line" smooth="yes"/>
      <point x="34.0859" y="30"/>
      <point x="43.0723" y="30.9922"/>
      <point x="50.3945" y="32.7871" type="curve"/>
      <point x="67.0479" y="37.2246"/>
      <point x="75.752" y="55.8867"/>
      <point x="78.29" y="66.5762" type="curve" smooth="yes"/>
      <point x="84.0029" y="84.3105"/>
      <point x="121.196" y="241.565"/>
      <point x="158.082" y="397.241" type="curve" smooth="yes"/>
      <point x="189.253" y="528.799"/>
      <point x="217.34" y="661.555"/>
      <point x="217.367" y="661.676" type="curve"/>
      <point x="217.748" y="663.237"/>
      <point x="222.084" y="682.143"/>
      <point x="222.084" y="682.889" type="curve" smooth="yes"/>
      <point x="222.084" y="690.162"/>
      <point x="218.554" y="696.268"/>
      <point x="207.169" y="698.8" type="curve"/>
      <point x="198.952" y="700.526"/>
      <point x="198.118" y="700.588"/>
      <point x="187.748" y="700.588" type="curve" smooth="yes"/>
      <point x="172.449" y="700.588" type="line"/>
      <point x="172.449" y="700.588"/>
      <point x="171.101" y="702.688"/>
      <point x="171.101" y="706.435" type="curve" smooth="yes"/>
      <point x="171.101" y="709.341"/>
      <point x="171.582" y="712.885"/>
      <point x="173.292" y="716.305" type="curve" smooth="yes"/>
      <point x="177.292" y="724.305"/>
      <point x="184.9" y="730"/>
      <point x="184.9" y="730" type="curve"/>
      <point x="658.811" y="730" type="line"/>
      <point x="637.162" y="565.571" type="line"/>
      <point x="613.743" y="567.466" type="line"/>
      <point x="613.97" y="574.234" type="line" smooth="yes"/>
      <point x="614.065" y="577.105"/>
      <point x="614.114" y="579.907"/>
      <point x="614.114" y="582.636" type="curve" smooth="yes"/>
      <point x="614.114" y="635.01"/>
      <point x="597.532" y="670.828"/>
      <point x="550.075" y="684.26" type="curve"/>
      <point x="514.479" y="693.896"/>
      <point x="464.417" y="695"/>
      <point x="407.438" y="695" type="curve" smooth="yes"/>
      <point x="387.998" y="695"/>
      <point x="378.16" y="694.064"/>
      <point x="358.415" y="692.106" type="curve" smooth="yes"/>
      <point x="342.538" y="690.532"/>
      <point x="332.102" y="668.668"/>
      <point x="329.498" y="658.037" type="curve"/>
      <point x="269.98" y="396.326" type="line"/>
      <point x="305.663" y="394.097"/>
      <point x="350.805" y="392.926"/>
      <point x="387.927" y="392.926" type="curve" smooth="yes"/>
      <point x="433.962" y="392.926"/>
      <point x="463.471" y="394.199"/>
      <point x="479.395" y="418.902" type="curve" smooth="yes"/>
      <point x="485.534" y="428.428"/>
      <point x="489" y="437"/>
      <point x="493.293" y="452" type="curve"/>
      <point x="514.937" y="452" type="line"/>
      <point x="473.338" y="290" type="line"/>
      <point x="455.029" y="290" type="line"/>
      <point x="455.969" y="300.353"/>
      <point x="457.076" y="312.378"/>
      <point x="457.076" y="327.229" type="curve" smooth="yes"/>
      <point x="457.076" y="339.242"/>
      <point x="447.775" y="342.608"/>
      <point x="438.216" y="344.089" type="curve" smooth="yes"/>
      <point x="411.213" y="348.27"/>
      <point x="383.092" y="350"/>
      <point x="351.21" y="350" type="curve" smooth="yes"/>
      <point x="321.472" y="350"/>
      <point x="281.637" y="347.284"/>
      <point x="255.319" y="344.671" type="curve"/>
      <point x="233.179" y="248.196"/>
      <point x="214.65" y="164.109"/>
      <point x="190.165" y="66.9795" type="curve" smooth="yes"/>
      <point x="189.658" y="64.9697"/>
      <point x="188.472" y="58.2744"/>
      <point x="188.472" y="56.6201" type="curve" smooth="yes"/>
      <point x="188.472" y="49.8525"/>
      <point x="188.893" y="37.5322"/>
      <point x="198.243" y="33.4922" type="curve" smooth="yes"/>
      <point x="205.185" y="30.4932"/>
      <point x="211" y="30"/>
      <point x="221.788" y="30" type="curve" smooth="yes"/>
    </contour>
  </outline>
</glyph>
<glyph name="G" format="1">
  <advance width="760"/>
  <unicode hex="0047"/>
  <outline>
    <contour>
      <point x="705.811" y="284" type="line" smooth="yes"/>
      <point x="676.604" y="284"/>
      <point x="657.138" y="266.15"/>
      <point x="652.615" y="247.009" type="curve" smooth="yes"/>
      <point x="633.607" y="167.037" type="line"/>
      <point x="627.302" y="141.385"/>
      <point x="618.449" y="134.321"/>
      <point x="599.401" y="113.422" type="curve"/>
      <point x="548.632" y="58.2988"/>
      <point x="435.815" y="-10"/>
      <point x="303.39" y="-10" type="curve" smooth="yes"/>
      <point x="202.36" y="-10"/>
      <point x="28.0381" y="36.7383"/>
      <point x="28.0381" y="243.393" type="curve" smooth="yes"/>
      <point x="28.0381" y="505.32"/>
      <point x="214.057" y="742"/>
      <point x="488.857" y="742" type="curve" smooth="yes"/>
      <point x="620.834" y="742"/>
      <point x="666.374" y="657"/>
      <point x="687.811" y="657" type="curve" smooth="yes"/>
      <point x="706.369" y="657"/>
      <point x="707.353" y="684"/>
      <point x="727.811" y="684" type="curve" smooth="yes"/>
      <point x="736.384" y="684"/>
      <point x="741.481" y="676.648"/>
      <point x="741.481" y="669.294" type="curve" smooth="yes"/>
      <point x="741.481" y="668.157"/>
      <point x="741.422" y="667.371"/>
      <point x="741.201" y="665.998" type="curve"/>
      <point x="700" y="470" type="line" smooth="yes"/>
      <point x="698.543" y="462.968"/>
      <point x="694.292" y="453"/>
      <point x="684" y="453" type="curve" smooth="yes"/>
      <point x="677.397" y="453"/>
      <point x="667.811" y="459.885"/>
      <point x="667.811" y="468" type="curve" smooth="yes"/>
      <point x="667.811" y="567.635"/>
      <point x="629.255" y="691"/>
      <point x="470.188" y="691" type="curve" smooth="yes"/>
      <point x="271.604" y="691"/>
      <point x="151.694" y="445.552"/>
      <point x="151.694" y="241.036" type="curve" smooth="yes"/>
      <point x="151.694" y="87.5342"/>
      <point x="259.098" y="46"/>
      <point x="315.754" y="46" type="curve" smooth="yes"/>
      <point x="410.436" y="46"/>
      <point x="519.535" y="107.316"/>
      <point x="535.698" y="172.712" type="curve"/>
      <point x="551.244" y="247.226" type="line"/>
      <point x="551.717" y="249.159"/>
      <point x="552.918" y="258.815"/>
      <point x="552.918" y="260.502" type="curve" smooth="yes"/>
      <point x="552.918" y="276.165"/>
      <point x="537.742" y="284"/>
      <point x="519.041" y="284" type="curve" smooth="yes"/>
      <point x="510.351" y="284" type="line"/>
      <point x="516.146" y="309" type="line"/>
      <point x="718.776" y="309" type="line"/>
      <point x="711.276" y="284" type="line"/>
    </contour>
  </outline>
</glyph>
<glyph name="H" format="1">
  <advance width="808"/>
  <unicode hex="0048"/>
  <outline>
    <contour>
      <point x="459" y="0" type="line"/>
      <point x="458.9" y="0"/>
      <point x="458.101" y="2.6875"/>
      <point x="458.101" y="6.43457" type="curve" smooth="yes"/>
      <point x="458.101" y="9.34082"/>
      <point x="458.582" y="12.8848"/>
      <point x="460.292" y="16.3047" type="curve" smooth="yes"/>
      <point x="464.292" y="24.3047"/>
      <point x="471.9" y="30"/>
      <point x="471.9" y="30" type="curve"/>
      <point x="476.966" y="30" type="line" smooth="yes"/>
      <point x="485.062" y="30"/>
      <point x="494" y="31"/>
      <point x="500.357" y="32.7773" type="curve" smooth="yes"/>
      <point x="517.556" y="37.5859"/>
      <point x="526.809" y="56.1201"/>
      <point x="529.144" y="66.0352" type="curve" smooth="yes"/>
      <point x="598" y="365" type="line"/>
      <point x="597.737" y="365.359"/>
      <point x="596.67" y="366"/>
      <point x="595.882" y="366" type="curve"/>
      <point x="543.236" y="366.001"/>
      <point x="481.372" y="368"/>
      <point x="419.255" y="368" type="curve" smooth="yes"/>
      <point x="358.085" y="368"/>
      <point x="310.119" y="366.042"/>
      <point x="261.904" y="366.021" type="curve"/>
      <point x="260.722" y="365.491"/>
      <point x="259.075" y="363.076"/>
      <point x="258.68" y="362.096" type="curve"/>
      <point x="250.919" y="325.679"/>
      <point x="242.958" y="298.2"/>
      <point x="234.485" y="262.688" type="curve"/>
      <point x="216.806" y="192.198"/>
      <point x="206.727" y="144.318"/>
      <point x="189.827" y="74.1465" type="curve"/>
      <point x="188.559" y="68.8848"/>
      <point x="186.595" y="57.1074"/>
      <point x="186.595" y="55.8721" type="curve" smooth="yes"/>
      <point x="186.595" y="45.9746"/>
      <point x="188.205" y="37.4395"/>
      <point x="198.776" y="32.7275" type="curve" smooth="yes"/>
      <point x="204.812" y="30.0371"/>
      <point x="211.852" y="30"/>
      <point x="219.966" y="30" type="curve" smooth="yes"/>
      <point x="228.881" y="30" type="line"/>
      <point x="228.881" y="30"/>
      <point x="229.239" y="27.9473"/>
      <point x="229.239" y="25.0059" type="curve" smooth="yes"/>
      <point x="229.239" y="21.9619"/>
      <point x="228.855" y="17.9639"/>
      <point x="227.292" y="14.3047" type="curve" smooth="yes"/>
      <point x="223.936" y="6.44727"/>
      <point x="214.431" y="0"/>
      <point x="214.431" y="0" type="curve"/>
      <point x="5" y="0" type="line"/>
      <point x="5" y="0"/>
      <point x="4.10059" y="2.6875"/>
      <point x="4.10059" y="6.43457" type="curve" smooth="yes"/>
      <point x="4.10059" y="9.34082"/>
      <point x="4.58203" y="12.8848"/>
      <point x="6.29199" y="16.3047" type="curve" smooth="yes"/>
      <point x="10.292" y="24.3047"/>
      <point x="17.9004" y="30"/>
      <point x="17.9004" y="30" type="curve"/>
      <point x="21.9658" y="30" type="line" smooth="yes"/>
      <point x="30.0859" y="30"/>
      <point x="37.0723" y="30.9922"/>
      <point x="44.3945" y="32.7852" type="curve"/>
      <point x="60.792" y="36.167"/>
      <point x="71.6973" y="56.6221"/>
      <point x="74.1543" y="67.0508" type="curve"/>
      <point x="103.182" y="183.725"/>
      <point x="128.148" y="289.175"/>
      <point x="155.141" y="405.707" type="curve" smooth="yes"/>
      <point x="176.15" y="495.865"/>
      <point x="193.105" y="573.762"/>
      <point x="212.127" y="663.977" type="curve"/>
      <point x="212.595" y="665.962"/>
      <point x="214.784" y="676.603"/>
      <point x="214.784" y="678.316" type="curve" smooth="yes"/>
      <point x="214.784" y="685.697"/>
      <point x="212.201" y="690.779"/>
      <point x="203.245" y="695.251" type="curve" smooth="yes"/>
      <point x="197.73" y="698.005"/>
      <point x="189.851" y="700"/>
      <point x="180.966" y="700" type="curve" smooth="yes"/>
      <point x="169.9" y="700" type="line"/>
      <point x="169.9" y="700"/>
      <point x="169.101" y="702.688"/>
      <point x="169.101" y="706.435" type="curve" smooth="yes"/>
      <point x="169.101" y="709.341"/>
      <point x="169.582" y="712.885"/>
      <point x="171.292" y="716.305" type="curve" smooth="yes"/>
      <point x="175.292" y="724.305"/>
      <point x="182.9" y="730"/>
      <point x="182.9" y="730" type="curve"/>
      <point x="399.077" y="730" type="line"/>
      <point x="399.077" y="730"/>
      <point x="400.239" y="727.947"/>
      <point x="400.239" y="725.006" type="curve" smooth="yes"/>
      <point x="400.239" y="721.962"/>
      <point x="399.855" y="718.964"/>
      <point x="398.292" y="715.305" type="curve" smooth="yes"/>
      <point x="394.936" y="707.447"/>
      <point x="384.9" y="701"/>
      <point x="384.9" y="701" type="curve"/>
      <point x="378.966" y="701" type="line" smooth="yes"/>
      <point x="371.472" y="701"/>
      <point x="363.733" y="700.302"/>
      <point x="354.536" y="698.247" type="curve" smooth="yes"/>
      <point x="340" y="695"/>
      <point x="330.285" y="678.477"/>
      <point x="326.798" y="664.156" type="curve"/>
      <point x="313.756" y="609.367"/>
      <point x="303.81" y="561.075"/>
      <point x="290.771" y="506.298" type="curve"/>
      <point x="283.87" y="479.376"/>
      <point x="278.626" y="455.116"/>
      <point x="272.919" y="430.95" type="curve"/>
      <point x="322.643" y="430.905"/>
      <point x="368.396" y="429"/>
      <point x="429.725" y="429" type="curve" smooth="yes"/>
      <point x="492.819" y="429"/>
      <point x="553.68" y="429.998"/>
      <point x="606.403" y="431" type="curve"/>
      <point x="612.083" y="431"/>
      <point x="612.583" y="432.757"/>
      <point x="613.069" y="433.877" type="curve"/>
      <point x="667.131" y="667.1" type="line"/>
      <point x="667.557" y="669.04"/>
      <point x="668.784" y="676.029"/>
      <point x="668.784" y="677.751" type="curve" smooth="yes"/>
      <point x="668.784" y="685.195"/>
      <point x="666.828" y="689.579"/>
      <point x="659.362" y="695.231" type="curve" smooth="yes"/>
      <point x="654.137" y="699.188"/>
      <point x="646" y="700"/>
      <point x="636.966" y="700" type="curve" smooth="yes"/>
      <point x="627.9" y="700" type="line"/>
      <point x="627.9" y="700"/>
      <point x="627.101" y="702.688"/>
      <point x="627.101" y="706.435" type="curve" smooth="yes"/>
      <point x="627.101" y="709.341"/>
      <point x="627.582" y="712.885"/>
      <point x="629.292" y="716.305" type="curve" smooth="yes"/>
      <point x="633.292" y="724.305"/>
      <point x="640.9" y="730"/>
      <point x="640.9" y="730" type="curve"/>
      <point x="853.931" y="730" type="line"/>
      <point x="853.931" y="730"/>
      <point x="855.239" y="727.947"/>
      <point x="855.239" y="725.006" type="curve" smooth="yes"/>
      <point x="855.239" y="721.962"/>
      <point x="854.855" y="717.964"/>
      <point x="853.292" y="714.305" type="curve" smooth="yes"/>
      <point x="849.936" y="706.447"/>
      <point x="839.9" y="700"/>
      <point x="839.9" y="700" type="curve"/>
      <point x="834.966" y="700" type="line" smooth="yes"/>
      <point x="826.868" y="700"/>
      <point x="818.811" y="699.996"/>
      <point x="811.574" y="698.224" type="curve"/>
      <point x="795.61" y="694.749"/>
      <point x="784.957" y="675.787"/>
      <point x="781.724" y="664.701" type="curve"/>
      <point x="757.818" y="572.988"/>
      <point x="740.771" y="490.736"/>
      <point x="718.785" y="398.717" type="curve"/>
      <point x="691.789" y="283.149"/>
      <point x="669.801" y="182.615"/>
      <point x="643.794" y="67" type="curve"/>
      <point x="643.438" y="65.4873"/>
      <point x="642.287" y="59.1543"/>
      <point x="642.287" y="57.8252" type="curve" smooth="yes"/>
      <point x="642.287" y="50.8662"/>
      <point x="644.553" y="37.0459"/>
      <point x="652.776" y="33.7266" type="curve" smooth="yes"/>
      <point x="660.511" y="30.6045"/>
      <point x="666.852" y="30"/>
      <point x="674.966" y="30" type="curve" smooth="yes"/>
      <point x="683.881" y="30" type="line"/>
      <point x="683.881" y="30"/>
      <point x="684.239" y="27.9473"/>
      <point x="684.239" y="25.0059" type="curve" smooth="yes"/>
      <point x="684.239" y="21.9619"/>
      <point x="683.855" y="17.9639"/>
      <point x="682.292" y="14.3047" type="curve" smooth="yes"/>
      <point x="678.936" y="6.44727"/>
      <point x="668.9" y="0"/>
      <point x="668.9" y="0" type="curve"/>
    </contour>
  </outline>
</glyph>
<glyph name="I" format="1">
  <advance width="357"/>
  <unicode hex="0049"/>
  <outline>
    <contour>
      <point x="217.077" y="31" type="line"/>
      <point x="217.077" y="31"/>
      <point x="218.239" y="27.9473"/>
      <point x="218.239" y="25.0059" type="curve" smooth="yes"/>
      <point x="218.239" y="21.9619"/>
      <point x="217.855" y="18.9639"/>
      <point x="216.292" y="15.3047" type="curve" smooth="yes"/>
      <point x="212.936" y="7.44727"/>
      <point x="202.9" y="0"/>
      <point x="202.9" y="0" type="curve"/>
      <point x="-15.0996" y="0" type="line"/>
      <point x="-15.0996" y="0"/>
      <point x="-15.8994" y="2.6875"/>
      <point x="-15.8994" y="6.43457" type="curve" smooth="yes"/>
      <point x="-15.8994" y="9.34082"/>
      <point x="-15.418" y="12.8848"/>
      <point x="-13.708" y="16.3047" type="curve" smooth="yes"/>
      <point x="-9.70801" y="24.3047"/>
      <point x="-2.09961" y="30"/>
      <point x="-2.09961" y="30" type="curve"/>
      <point x="2.96582" y="30" type="line" smooth="yes"/>
      <point x="11.0859" y="30"/>
      <point x="18.0996" y="30.8232"/>
      <point x="26.3945" y="33.7852" type="curve" smooth="yes"/>
      <point x="41" y="39"/>
      <point x="51.5293" y="52.8545"/>
      <point x="55.1543" y="67.0498" type="curve" smooth="yes"/>
      <point x="105.432" y="263.928"/>
      <point x="154.576" y="466.961"/>
      <point x="196.136" y="662.015" type="curve" smooth="yes"/>
      <point x="196.543" y="663.926"/>
      <point x="197.785" y="670.626"/>
      <point x="197.785" y="672.315" type="curve" smooth="yes"/>
      <point x="197.785" y="683.443"/>
      <point x="197" y="689"/>
      <point x="187.042" y="695.305" type="curve" smooth="yes"/>
      <point x="181.966" y="698.519"/>
      <point x="175.013" y="700"/>
      <point x="166.966" y="700" type="curve" smooth="yes"/>
      <point x="156.9" y="700" type="line"/>
      <point x="156.9" y="700"/>
      <point x="156.101" y="702.688"/>
      <point x="156.101" y="706.435" type="curve" smooth="yes"/>
      <point x="156.101" y="709.341"/>
      <point x="156.582" y="712.885"/>
      <point x="158.292" y="716.305" type="curve" smooth="yes"/>
      <point x="162.292" y="724.305"/>
      <point x="169.5" y="730"/>
      <point x="169.5" y="730" type="curve"/>
      <point x="373.931" y="730" type="line"/>
      <point x="373.931" y="730"/>
      <point x="375.239" y="726.947"/>
      <point x="375.239" y="724.006" type="curve" smooth="yes"/>
      <point x="375.239" y="720.962"/>
      <point x="374.855" y="717.964"/>
      <point x="373.292" y="714.305" type="curve" smooth="yes"/>
      <point x="369.936" y="706.447"/>
      <point x="359.9" y="700"/>
      <point x="359.9" y="700" type="curve"/>
      <point x="353.966" y="700" type="line" smooth="yes"/>
      <point x="350.296" y="700"/>
      <point x="345.85" y="699.47"/>
      <point x="338.182" y="697.146" type="curve" smooth="yes"/>
      <point x="324.433" y="692.978"/>
      <point x="314.34" y="674.95"/>
      <point x="311.771" y="664.889" type="curve" smooth="yes"/>
      <point x="264.32" y="478.964"/>
      <point x="211.552" y="252.546"/>
      <point x="171" y="69" type="curve" smooth="yes"/>
      <point x="169.855" y="63.8184"/>
      <point x="168.122" y="58.0332"/>
      <point x="168.122" y="52.3633" type="curve" smooth="yes"/>
      <point x="168.122" y="45.0703"/>
      <point x="170.833" y="37.6143"/>
      <point x="178.316" y="34.7266" type="curve" smooth="yes"/>
      <point x="184.025" y="32.5244"/>
      <point x="192.852" y="31"/>
      <point x="200.966" y="31" type="curve" smooth="yes"/>
    </contour>
  </outline>
</glyph>
<glyph name="J" format="1">
  <advance width="306"/>
  <unicode hex="004A"/>
  <outline>
    <contour>
      <point x="292.668" y="664.779" type="curve"/>
      <point x="277.669" y="604.736"/>
      <point x="258.735" y="520.055"/>
      <point x="236.689" y="422.847" type="curve" smooth="yes"/>
      <point x="196.581" y="245.994"/>
      <point x="151.247" y="60.6416"/>
      <point x="145.89" y="37.9873" type="curve"/>
      <point x="110.766" y="-99.2529"/>
      <point x="3.7998" y="-175"/>
      <point x="-177.91" y="-179.996" type="curve" smooth="yes"/>
      <point x="-187" y="-180.288" type="line"/>
      <point x="-176.029" y="-138.413" type="line"/>
      <point x="-172.07" y="-137.273" type="line" smooth="yes"/>
      <point x="-39.9912" y="-100.341"/>
      <point x="3.03418" y="-66.1289"/>
      <point x="42.2803" y="84.9102" type="curve"/>
      <point x="49.7471" y="112.347"/>
      <point x="100.341" y="318.154"/>
      <point x="133.687" y="467.432" type="curve" smooth="yes"/>
      <point x="151.961" y="549.239"/>
      <point x="165.032" y="606.821"/>
      <point x="177.032" y="661.905" type="curve" smooth="yes"/>
      <point x="177.439" y="663.816"/>
      <point x="178.682" y="670.517"/>
      <point x="178.682" y="672.206" type="curve" smooth="yes"/>
      <point x="178.682" y="683.334"/>
      <point x="177.896" y="688.891"/>
      <point x="167.938" y="695.195" type="curve" smooth="yes"/>
      <point x="162.862" y="698.409"/>
      <point x="155.909" y="699.891"/>
      <point x="147.862" y="699.891" type="curve" smooth="yes"/>
      <point x="137.797" y="699.891" type="line"/>
      <point x="137.797" y="699.891"/>
      <point x="136.997" y="702.578"/>
      <point x="136.997" y="706.325" type="curve" smooth="yes"/>
      <point x="136.997" y="709.231"/>
      <point x="137.479" y="712.775"/>
      <point x="139.188" y="716.195" type="curve" smooth="yes"/>
      <point x="143.188" y="724.195"/>
      <point x="150.396" y="729.891"/>
      <point x="150.396" y="729.891" type="curve"/>
      <point x="354.827" y="729.891" type="line"/>
      <point x="354.827" y="729.891"/>
      <point x="356.136" y="726.838"/>
      <point x="356.136" y="723.896" type="curve" smooth="yes"/>
      <point x="356.136" y="720.853"/>
      <point x="355.752" y="717.854"/>
      <point x="354.188" y="714.195" type="curve" smooth="yes"/>
      <point x="350.832" y="706.338"/>
      <point x="340.797" y="699.891"/>
      <point x="340.797" y="699.891" type="curve"/>
      <point x="334.862" y="699.891" type="line" smooth="yes"/>
      <point x="331.192" y="699.891"/>
      <point x="326.746" y="699.36"/>
      <point x="319.078" y="697.036" type="curve" smooth="yes"/>
      <point x="305.329" y="692.869"/>
      <point x="295.236" y="674.841"/>
    </contour>
  </outline>
</glyph>
<glyph name="K" format="1">
  <advance width="669"/>
  <unicode hex="004B"/>
  <outline>
    <contour>
      <point x="608.431" y="0" type="curve"/>
      <point x="400.531" y="0" type="line"/>
      <point x="400.531" y="0"/>
      <point x="399.101" y="2.6875"/>
      <point x="399.101" y="6.43457" type="curve" smooth="yes"/>
      <point x="399.101" y="9.34082"/>
      <point x="399.582" y="12.8848"/>
      <point x="401.292" y="16.3047" type="curve" smooth="yes"/>
      <point x="405.292" y="24.3047"/>
      <point x="412.5" y="30"/>
      <point x="412.5" y="30" type="curve"/>
      <point x="415.966" y="30" type="line" smooth="yes"/>
      <point x="422" y="30"/>
      <point x="431.247" y="30.8076"/>
      <point x="438.844" y="32.9111" type="curve" smooth="yes"/>
      <point x="450" y="36"/>
      <point x="458.902" y="47.125"/>
      <point x="458.902" y="60.1191" type="curve" smooth="yes"/>
      <point x="458.902" y="65.2207"/>
      <point x="457.208" y="74.1924"/>
      <point x="452.538" y="84.2207" type="curve" smooth="yes"/>
      <point x="408.562" y="178.658"/>
      <point x="354.455" y="263.345"/>
      <point x="307.063" y="356.708" type="curve"/>
      <point x="293.971" y="346.67"/>
      <point x="276.32" y="337.34"/>
      <point x="265" y="334" type="curve"/>
      <point x="202" y="74" type="line" smooth="yes"/>
      <point x="200.667" y="68.4307"/>
      <point x="198.098" y="59.4678"/>
      <point x="198.098" y="53.2031" type="curve" smooth="yes"/>
      <point x="198.098" y="45.3057"/>
      <point x="199.914" y="35.8789"/>
      <point x="208.228" y="32.8906" type="curve" smooth="yes"/>
      <point x="216.205" y="30.0225"/>
      <point x="224.472" y="30"/>
      <point x="230.966" y="30" type="curve" smooth="yes"/>
      <point x="239.931" y="30" type="line"/>
      <point x="239.931" y="30"/>
      <point x="241.239" y="26.9473"/>
      <point x="241.239" y="24.0059" type="curve" smooth="yes"/>
      <point x="241.239" y="20.9619"/>
      <point x="240.855" y="17.9639"/>
      <point x="239.292" y="14.3047" type="curve" smooth="yes"/>
      <point x="235.936" y="6.44727"/>
      <point x="225.9" y="0"/>
      <point x="225.9" y="0" type="curve"/>
      <point x="16.9004" y="0" type="line"/>
      <point x="16.9004" y="0"/>
      <point x="16.1006" y="2.6875"/>
      <point x="16.1006" y="6.43457" type="curve" smooth="yes"/>
      <point x="16.1006" y="9.34082"/>
      <point x="16.582" y="12.8848"/>
      <point x="18.292" y="16.3047" type="curve" smooth="yes"/>
      <point x="22.292" y="24.3047"/>
      <point x="29.5" y="30"/>
      <point x="29.5" y="30" type="curve"/>
      <point x="32.9658" y="30" type="line" smooth="yes"/>
      <point x="39.1523" y="30"/>
      <point x="47.4307" y="30.9688"/>
      <point x="54.8457" y="31.875" type="curve"/>
      <point x="71.7803" y="35.7295"/>
      <point x="81.6895" y="55.79"/>
      <point x="85.1426" y="67.0049" type="curve"/>
      <point x="115.18" y="182.738"/>
      <point x="139.132" y="288.126"/>
      <point x="166.138" y="403.732" type="curve" smooth="yes"/>
      <point x="187.15" y="494.885"/>
      <point x="206.103" y="574.768"/>
      <point x="225.125" y="665.969" type="curve"/>
      <point x="225.597" y="667.97"/>
      <point x="226.784" y="675.599"/>
      <point x="226.784" y="677.316" type="curve" smooth="yes"/>
      <point x="226.784" y="683.103"/>
      <point x="225.289" y="689.874"/>
      <point x="215.042" y="695.305" type="curve" smooth="yes"/>
      <point x="209.525" y="698.229"/>
      <point x="200.967" y="700"/>
      <point x="193.966" y="700" type="curve" smooth="yes"/>
      <point x="184.9" y="700" type="line"/>
      <point x="184.9" y="700"/>
      <point x="184.101" y="702.688"/>
      <point x="184.101" y="706.435" type="curve" smooth="yes"/>
      <point x="184.101" y="709.341"/>
      <point x="184.582" y="712.885"/>
      <point x="186.292" y="716.305" type="curve" smooth="yes"/>
      <point x="190.292" y="724.305"/>
      <point x="197.5" y="730"/>
      <point x="197.5" y="730" type="curve"/>
      <point x="408.4" y="730" type="line"/>
      <point x="408.4" y="730"/>
      <point x="410.239" y="726.947"/>
      <point x="410.239" y="724.006" type="curve" smooth="yes"/>
      <point x="410.239" y="720.962"/>
      <point x="409.855" y="717.964"/>
      <point x="408.292" y="714.305" type="curve" smooth="yes"/>
      <point x="404.936" y="706.447"/>
      <point x="394.9" y="700"/>
      <point x="394.9" y="700" type="curve"/>
      <point x="391.966" y="700" type="line" smooth="yes"/>
      <point x="384.886" y="700"/>
      <point x="375.027" y="698.797"/>
      <point x="366.536" y="696.177" type="curve" smooth="yes"/>
      <point x="353" y="692"/>
      <point x="342.132" y="674.591"/>
      <point x="339.786" y="664.428" type="curve" smooth="yes"/>
      <point x="277.784" y="406.431" type="line"/>
      <point x="294.078" y="414.228"/>
      <point x="312.85" y="425.415"/>
      <point x="339.828" y="450.755" type="curve"/>
      <point x="547.867" y="643.797" type="line"/>
      <point x="566.884" y="663.869"/>
      <point x="574.509" y="671.015"/>
      <point x="574.509" y="678.726" type="curve" smooth="yes"/>
      <point x="574.509" y="683.628"/>
      <point x="573.513" y="688.963"/>
      <point x="566.814" y="694.096" type="curve" smooth="yes"/>
      <point x="563.175" y="696.885"/>
      <point x="554.969" y="700"/>
      <point x="546.966" y="700" type="curve" smooth="yes"/>
      <point x="535.167" y="700" type="line"/>
      <point x="535.167" y="700"/>
      <point x="534.101" y="702.688"/>
      <point x="534.101" y="706.435" type="curve" smooth="yes"/>
      <point x="534.101" y="709.341"/>
      <point x="534.582" y="712.885"/>
      <point x="536.292" y="716.305" type="curve" smooth="yes"/>
      <point x="540.292" y="724.305"/>
      <point x="547.5" y="730"/>
      <point x="547.5" y="730" type="curve"/>
      <point x="713.931" y="730" type="line"/>
      <point x="713.931" y="730"/>
      <point x="715.239" y="726.947"/>
      <point x="715.239" y="724.006" type="curve" smooth="yes"/>
      <point x="715.239" y="720.962"/>
      <point x="714.855" y="717.964"/>
      <point x="713.292" y="714.305" type="curve" smooth="yes"/>
      <point x="709.936" y="706.447"/>
      <point x="699.9" y="700"/>
      <point x="699.9" y="700" type="curve"/>
      <point x="696.966" y="700" type="line" smooth="yes"/>
      <point x="690.585" y="700"/>
      <point x="679.202" y="699.122"/>
      <point x="670.411" y="696.209" type="curve"/>
      <point x="658.533" y="692.882"/>
      <point x="644.314" y="672.829"/>
      <point x="629.096" y="656.929" type="curve"/>
      <point x="382.262" y="415.624" type="line"/>
      <point x="404.299" y="374.777" type="line"/>
      <point x="484.27" y="241.62"/>
      <point x="548.343" y="119.254"/>
      <point x="574.405" y="59.3613" type="curve" smooth="yes"/>
      <point x="581.849" y="42.251"/>
      <point x="593" y="30"/>
      <point x="612.966" y="30" type="curve" smooth="yes"/>
      <point x="621.931" y="30" type="line"/>
      <point x="621.931" y="30"/>
      <point x="623.239" y="26.9473"/>
      <point x="623.239" y="24.0059" type="curve" smooth="yes"/>
      <point x="623.239" y="20.9619"/>
      <point x="622.855" y="17.9639"/>
      <point x="621.292" y="14.3047" type="curve" smooth="yes"/>
      <point x="617.936" y="6.44727"/>
      <point x="608.431" y="0"/>
    </contour>
  </outline>
</glyph>
<glyph name="L" format="1">
  <advance width="578"/>
  <unicode hex="004C"/>
  <outline>
    <contour>
      <point x="-13" y="0" type="line"/>
      <point x="-13" y="0"/>
      <point x="-13.8994" y="2.6875"/>
      <point x="-13.8994" y="6.43457" type="curve" smooth="yes"/>
      <point x="-13.8994" y="9.34082"/>
      <point x="-13.418" y="12.8848"/>
      <point x="-11.708" y="16.3047" type="curve" smooth="yes"/>
      <point x="-7.70801" y="24.3047"/>
      <point x="-0.5" y="30"/>
      <point x="-0.5" y="30" type="curve"/>
      <point x="9.97683" y="30.9668"/>
      <point x="15.0441" y="30.3666"/>
      <point x="24.5576" y="32.2324" type="curve" smooth="yes"/>
      <point x="40.6494" y="35.5537"/>
      <point x="49.7012" y="56.0654"/>
      <point x="52.1562" y="66.4922" type="curve"/>
      <point x="81.1719" y="182.241"/>
      <point x="107.683" y="287.835"/>
      <point x="134.829" y="403.473" type="curve" smooth="yes"/>
      <point x="156.507" y="495.814"/>
      <point x="174.117" y="575.736"/>
      <point x="194.133" y="666.982" type="curve"/>
      <point x="194.587" y="668.912"/>
      <point x="195.785" y="675.603"/>
      <point x="195.785" y="677.3" type="curve" smooth="yes"/>
      <point x="195.785" y="684.688"/>
      <point x="194.202" y="691.775"/>
      <point x="184.245" y="696.25" type="curve" smooth="yes"/>
      <point x="178.623" y="698.776"/>
      <point x="172.851" y="700"/>
      <point x="164.966" y="700" type="curve" smooth="yes"/>
      <point x="152.9" y="700" type="line"/>
      <point x="152.9" y="700"/>
      <point x="152.101" y="702.688"/>
      <point x="152.101" y="706.435" type="curve" smooth="yes"/>
      <point x="152.101" y="709.341"/>
      <point x="152.582" y="712.885"/>
      <point x="154.292" y="716.305" type="curve" smooth="yes"/>
      <point x="158.292" y="724.305"/>
      <point x="165.5" y="730"/>
      <point x="165.5" y="730" type="curve"/>
      <point x="377.931" y="730" type="line"/>
      <point x="377.931" y="730"/>
      <point x="379.239" y="726.947"/>
      <point x="379.239" y="724.006" type="curve" smooth="yes"/>
      <point x="379.239" y="720.962"/>
      <point x="378.855" y="717.964"/>
      <point x="377.292" y="714.305" type="curve" smooth="yes"/>
      <point x="373.936" y="706.447"/>
      <point x="363.9" y="700"/>
      <point x="363.9" y="700" type="curve"/>
      <point x="360.966" y="700" type="line" smooth="yes"/>
      <point x="349" y="700"/>
      <point x="341.678" y="699.326"/>
      <point x="334.116" y="696.396" type="curve" smooth="yes"/>
      <point x="321.099" y="691.351"/>
      <point x="311.127" y="673.909"/>
      <point x="308.775" y="663.932" type="curve"/>
      <point x="283.749" y="571.762"/>
      <point x="267.869" y="490.75"/>
      <point x="246.783" y="398.757" type="curve" smooth="yes"/>
      <point x="220.681" y="284.879"/>
      <point x="196.845" y="184.673"/>
      <point x="171.235" y="70.9912" type="curve"/>
      <point x="170.793" y="69.2949"/>
      <point x="167.603" y="54.7764"/>
      <point x="167.603" y="53.21" type="curve" smooth="yes"/>
      <point x="167.603" y="45.5176"/>
      <point x="171.955" y="39.1143"/>
      <point x="183.646" y="37.8936" type="curve" smooth="yes"/>
      <point x="203.519" y="35.9346"/>
      <point x="212.861" y="35"/>
      <point x="233.538" y="35" type="curve" smooth="yes"/>
      <point x="296.367" y="35"/>
      <point x="342.498" y="36.0635"/>
      <point x="387.636" y="45.8008" type="curve"/>
      <point x="448.107" y="60.251"/>
      <point x="478.08" y="100.024"/>
      <point x="503.543" y="158.783" type="curve" smooth="yes"/>
      <point x="505.248" y="162.719" type="line"/>
      <point x="532.058" y="164.645" type="line"/>
      <point x="475.932" y="0" type="line"/>
    </contour>
  </outline>
</glyph>
<glyph name="M" format="1">
  <advance width="820"/>
  <unicode hex="004D"/>
  <outline>
    <contour>
      <point x="898.791" y="730" type="line"/>
      <point x="898.791" y="730"/>
      <point x="900.239" y="726.947"/>
      <point x="900.239" y="724.006" type="curve" smooth="yes"/>
      <point x="900.239" y="720.962"/>
      <point x="899.855" y="717.964"/>
      <point x="898.292" y="714.305" type="curve" smooth="yes"/>
      <point x="894.936" y="706.447"/>
      <point x="884.9" y="700"/>
      <point x="884.9" y="700" type="curve"/>
      <point x="880.356" y="700" type="line" smooth="yes"/>
      <point x="872.38" y="700"/>
      <point x="864.268" y="698.005"/>
      <point x="855.782" y="696.18" type="curve" smooth="yes"/>
      <point x="841" y="693"/>
      <point x="832.576" y="678.102"/>
      <point x="829.17" y="664.921" type="curve" smooth="yes"/>
      <point x="813.502" y="604.292"/>
      <point x="804" y="564"/>
      <point x="787.18" y="492.769" type="curve" smooth="yes"/>
      <point x="748" y="321"/>
      <point x="724.17" y="214.876"/>
      <point x="688.238" y="69.2461" type="curve"/>
      <point x="688.238" y="69.2461"/>
      <point x="686.611" y="57.332"/>
      <point x="686.611" y="55.3115" type="curve" smooth="yes"/>
      <point x="686.611" y="48.3418"/>
      <point x="687.73" y="37.7734"/>
      <point x="698.054" y="33.7539" type="curve" smooth="yes"/>
      <point x="704.981" y="31.0566"/>
      <point x="714.337" y="30"/>
      <point x="722.356" y="30" type="curve" smooth="yes"/>
      <point x="727.931" y="30" type="line"/>
      <point x="727.931" y="30"/>
      <point x="729.239" y="26.9473"/>
      <point x="729.239" y="24.0059" type="curve" smooth="yes"/>
      <point x="729.239" y="20.9619"/>
      <point x="728.855" y="17.9639"/>
      <point x="727.292" y="14.3047" type="curve" smooth="yes"/>
      <point x="723.936" y="6.44727"/>
      <point x="713.821" y="0"/>
      <point x="713.821" y="0" type="curve"/>
      <point x="505.391" y="0" type="line"/>
      <point x="505.391" y="0"/>
      <point x="504.101" y="2.6875"/>
      <point x="504.101" y="6.43457" type="curve" smooth="yes"/>
      <point x="504.101" y="9.34082"/>
      <point x="504.582" y="12.8848"/>
      <point x="506.292" y="16.3047" type="curve" smooth="yes"/>
      <point x="510.292" y="24.3047"/>
      <point x="517.5" y="30"/>
      <point x="517.5" y="30" type="curve"/>
      <point x="520.356" y="30" type="line" smooth="yes"/>
      <point x="528.477" y="30"/>
      <point x="535.798" y="30.4766"/>
      <point x="543.785" y="32.8232" type="curve" smooth="yes"/>
      <point x="558" y="37"/>
      <point x="571.084" y="56.9521"/>
      <point x="573.55" y="67.6357" type="curve"/>
      <point x="589.553" y="131.648"/>
      <point x="602.756" y="185.668"/>
      <point x="618.541" y="249.599" type="curve" smooth="yes"/>
      <point x="638.548" y="330.628"/>
      <point x="654.63" y="397.581"/>
      <point x="674.269" y="479.601" type="curve"/>
      <point x="681.67" y="509.685"/>
      <point x="687.057" y="541.48"/>
      <point x="693.432" y="569.044" type="curve"/>
      <point x="405.173" y="149.016" type="line"/>
      <point x="402.021" y="144.464"/>
      <point x="388.374" y="127"/>
      <point x="375.541" y="127" type="curve" smooth="yes"/>
      <point x="364.71" y="127"/>
      <point x="349.608" y="141.338"/>
      <point x="348.038" y="149.571" type="curve" smooth="yes"/>
      <point x="348.038" y="149.571"/>
      <point x="260.691" y="482.498"/>
      <point x="236.604" y="587.667" type="curve"/>
      <point x="116.217" y="69.5645" type="line"/>
      <point x="115.733" y="66.5596"/>
      <point x="114.003" y="56.375"/>
      <point x="113.979" y="56.0947" type="curve"/>
      <point x="114.245" y="46.9268"/>
      <point x="114.716" y="39.5117"/>
      <point x="125.167" y="33.7627" type="curve" smooth="yes"/>
      <point x="131.267" y="30.4072"/>
      <point x="140.242" y="30"/>
      <point x="148.356" y="30" type="curve" smooth="yes"/>
      <point x="156.61" y="30" type="line"/>
      <point x="156.61" y="30"/>
      <point x="158.239" y="26.9473"/>
      <point x="158.239" y="24.0059" type="curve" smooth="yes"/>
      <point x="158.239" y="20.9619"/>
      <point x="157.855" y="17.9639"/>
      <point x="156.292" y="14.3047" type="curve" smooth="yes"/>
      <point x="152.936" y="6.44727"/>
      <point x="142.9" y="0"/>
      <point x="142.9" y="0" type="curve"/>
      <point x="-18.6094" y="0" type="line"/>
      <point x="-18.6094" y="0"/>
      <point x="-19.8994" y="2.6875"/>
      <point x="-19.8994" y="6.43457" type="curve" smooth="yes"/>
      <point x="-19.8994" y="9.34082"/>
      <point x="-19.418" y="12.8848"/>
      <point x="-17.708" y="16.3047" type="curve" smooth="yes"/>
      <point x="-13.708" y="24.3047"/>
      <point x="-6.5" y="30"/>
      <point x="-6.5" y="30" type="curve"/>
      <point x="-2.64355" y="30" type="line" smooth="yes"/>
      <point x="5.47656" y="30"/>
      <point x="13.3604" y="30.4922"/>
      <point x="22.7852" y="32.7852" type="curve" smooth="yes"/>
      <point x="36" y="36"/>
      <point x="47.1182" y="58.1289"/>
      <point x="49.6289" y="70.3066" type="curve"/>
      <point x="104.543" y="273.736"/>
      <point x="139.584" y="456.649"/>
      <point x="189.573" y="663.288" type="curve"/>
      <point x="190.404" y="666.435"/>
      <point x="192.182" y="676.479"/>
      <point x="192.182" y="677.597" type="curve" smooth="yes"/>
      <point x="192.182" y="696.056"/>
      <point x="178" y="700"/>
      <point x="158.356" y="700" type="curve" smooth="yes"/>
      <point x="149.9" y="700" type="line"/>
      <point x="149.9" y="700"/>
      <point x="149.101" y="702.688"/>
      <point x="149.101" y="706.435" type="curve" smooth="yes"/>
      <point x="149.101" y="709.341"/>
      <point x="149.582" y="712.885"/>
      <point x="151.292" y="716.305" type="curve" smooth="yes"/>
      <point x="155.292" y="724.305"/>
      <point x="162.5" y="730"/>
      <point x="162.5" y="730" type="curve"/>
      <point x="318.957" y="730" type="line"/>
      <point x="440.467" y="298.085" type="line"/>
      <point x="732.692" y="730" type="line"/>
    </contour>
  </outline>
</glyph>
<glyph name="N" format="1">
  <advance width="809"/>
  <unicode hex="004E"/>
  <outline>
    <contour>
      <point x="681.9" y="700" type="line"/>
      <point x="681.9" y="700"/>
      <point x="681.101" y="702.688"/>
      <point x="681.101" y="706.435" type="curve" smooth="yes"/>
      <point x="681.101" y="709.341"/>
      <point x="681.582" y="712.885"/>
      <point x="683.292" y="716.305" type="curve" smooth="yes"/>
      <point x="687.292" y="724.305"/>
      <point x="694.5" y="730"/>
      <point x="694.5" y="730" type="curve"/>
      <point x="857.4" y="730" type="line"/>
      <point x="857.4" y="730"/>
      <point x="859.239" y="726.947"/>
      <point x="859.239" y="724.006" type="curve" smooth="yes"/>
      <point x="859.239" y="720.962"/>
      <point x="858.855" y="717.964"/>
      <point x="857.292" y="714.305" type="curve" smooth="yes"/>
      <point x="853.936" y="706.447"/>
      <point x="843.9" y="700"/>
      <point x="843.9" y="700" type="curve"/>
      <point x="839.966" y="700" type="line" smooth="yes"/>
      <point x="832.034" y="700"/>
      <point x="823.432" y="699.267"/>
      <point x="816.568" y="697.222" type="curve" smooth="yes"/>
      <point x="801.709" y="692.795"/>
      <point x="791.992" y="676.877"/>
      <point x="788.724" y="665.663" type="curve"/>
      <point x="764.81" y="573.852"/>
      <point x="746.384" y="490.869"/>
      <point x="725.785" y="398.502" type="curve" smooth="yes"/>
      <point x="696.498" y="267.175"/>
      <point x="665.531" y="136.996"/>
      <point x="632.563" y="5.68359" type="curve" smooth="yes"/>
      <point x="630.179" y="-3.81445"/>
      <point x="621.527" y="-9"/>
      <point x="614.118" y="-9" type="curve" smooth="yes"/>
      <point x="601.82" y="-9"/>
      <point x="597.535" y="3.46484"/>
      <point x="597.535" y="3.46484" type="curve"/>
      <point x="472.468" y="207.394"/>
      <point x="365.029" y="377.072"/>
      <point x="241.816" y="579.537" type="curve"/>
      <point x="229.967" y="528.833"/>
      <point x="224.517" y="510.056"/>
      <point x="212.782" y="460.41" type="curve"/>
      <point x="146.793" y="170.456" type="line"/>
      <point x="138.817" y="134.564"/>
      <point x="128.688" y="98.8877"/>
      <point x="120.88" y="63.8457" type="curve"/>
      <point x="120.787" y="63.002"/>
      <point x="119.548" y="56.3574"/>
      <point x="119.548" y="53.6621" type="curve" smooth="yes"/>
      <point x="119.548" y="46.6465"/>
      <point x="120.521" y="35.3262"/>
      <point x="129.776" y="32.7627" type="curve" smooth="yes"/>
      <point x="135.596" y="31.1504"/>
      <point x="143.906" y="30"/>
      <point x="151.966" y="30" type="curve" smooth="yes"/>
      <point x="160.931" y="30" type="line"/>
      <point x="160.931" y="30"/>
      <point x="162.239" y="26.9473"/>
      <point x="162.239" y="24.0059" type="curve" smooth="yes"/>
      <point x="162.239" y="20.9619"/>
      <point x="161.855" y="17.9639"/>
      <point x="160.292" y="14.3047" type="curve" smooth="yes"/>
      <point x="156.936" y="6.44727"/>
      <point x="146.9" y="0"/>
      <point x="146.9" y="0" type="curve"/>
      <point x="-15" y="0" type="line"/>
      <point x="-15" y="0"/>
      <point x="-15.8994" y="2.6875"/>
      <point x="-15.8994" y="6.43457" type="curve" smooth="yes"/>
      <point x="-15.8994" y="9.34082"/>
      <point x="-15.418" y="12.8848"/>
      <point x="-13.708" y="16.3047" type="curve" smooth="yes"/>
      <point x="-9.70801" y="24.3047"/>
      <point x="-2.5" y="30"/>
      <point x="-2.5" y="30" type="curve"/>
      <point x="0.96582" y="30" type="line" smooth="yes"/>
      <point x="9.08594" y="30"/>
      <point x="15.6846" y="30.7031"/>
      <point x="23.3945" y="32.7852" type="curve" smooth="yes"/>
      <point x="39" y="37"/>
      <point x="50.6367" y="58.3037"/>
      <point x="54.1514" y="69.9746" type="curve"/>
      <point x="54.1514" y="69.9746"/>
      <point x="103.826" y="267.271"/>
      <point x="134.141" y="399.832" type="curve" smooth="yes"/>
      <point x="158.716" y="507.297"/>
      <point x="192.09" y="663.87"/>
      <point x="192.09" y="663.87" type="curve"/>
      <point x="192.09" y="663.87"/>
      <point x="194.878" y="675.633"/>
      <point x="194.878" y="677.351" type="curve" smooth="yes"/>
      <point x="194.878" y="686.393"/>
      <point x="192.625" y="689.378"/>
      <point x="184.042" y="695.305" type="curve" smooth="yes"/>
      <point x="178.46" y="699.159"/>
      <point x="169.984" y="700"/>
      <point x="161.966" y="700" type="curve" smooth="yes"/>
      <point x="153.9" y="700" type="line"/>
      <point x="153.9" y="700"/>
      <point x="153.101" y="702.688"/>
      <point x="153.101" y="706.435" type="curve" smooth="yes"/>
      <point x="153.101" y="709.341"/>
      <point x="153.582" y="712.885"/>
      <point x="155.292" y="716.305" type="curve" smooth="yes"/>
      <point x="159.292" y="724.305"/>
      <point x="166.5" y="730"/>
      <point x="166.5" y="730" type="curve"/>
      <point x="291.933" y="730" type="line"/>
      <point x="609.346" y="207.48" type="line"/>
      <point x="722.091" y="666.34" type="line"/>
      <point x="722.091" y="666.34"/>
      <point x="723.785" y="673.808"/>
      <point x="723.785" y="675.309" type="curve" smooth="yes"/>
      <point x="723.785" y="682.943"/>
      <point x="722.639" y="691.533"/>
      <point x="712.042" y="696.27" type="curve" smooth="yes"/>
      <point x="706.664" y="698.673"/>
      <point x="698.984" y="700"/>
      <point x="690.966" y="700" type="curve" smooth="yes"/>
    </contour>
  </outline>
</glyph>
<glyph name="O" format="1">
  <advance width="735"/>
  <unicode hex="004F"/>
  <outline>
    <contour>
      <point x="28.1074" y="241.868" type="curve" smooth="yes"/>
      <point x="28.1074" y="544.682"/>
      <point x="205.053" y="734"/>
      <point x="471.899" y="734" type="curve" smooth="yes"/>
      <point x="622.144" y="734"/>
      <point x="731.174" y="643.687"/>
      <point x="731.174" y="473.903" type="curve" smooth="yes"/>
      <point x="731.174" y="180.783"/>
      <point x="472.188" y="-11"/>
      <point x="292.474" y="-11" type="curve" smooth="yes"/>
      <point x="197.599" y="-11"/>
      <point x="28.1074" y="37.0938"/>
    </contour>
    <contour>
      <point x="451.275" y="685" type="curve" smooth="yes"/>
      <point x="216.873" y="685"/>
      <point x="150.054" y="373.399"/>
      <point x="150.054" y="234.335" type="curve" smooth="yes"/>
      <point x="150.054" y="72.167"/>
      <point x="251.831" y="41"/>
      <point x="307.941" y="41" type="curve" smooth="yes"/>
      <point x="416.058" y="41"/>
      <point x="618.391" y="210.418"/>
      <point x="618.391" y="494.999" type="curve" smooth="yes"/>
      <point x="618.391" y="604.614"/>
      <point x="580.007" y="685"/>
    </contour>
  </outline>
</glyph>
<glyph name="P" format="1">
  <advance width="642"/>
  <unicode hex="0050"/>
  <outline>
    <contour>
      <point x="190.9" y="700" type="line"/>
      <point x="190.9" y="700"/>
      <point x="190.101" y="702.688"/>
      <point x="190.101" y="706.435" type="curve" smooth="yes"/>
      <point x="190.101" y="709.341"/>
      <point x="190.582" y="712.885"/>
      <point x="192.292" y="716.305" type="curve" smooth="yes"/>
      <point x="196.292" y="724.305"/>
      <point x="203.5" y="730"/>
      <point x="203.5" y="730" type="curve"/>
      <point x="229.566" y="730" type="line" smooth="yes"/>
      <point x="291.746" y="730"/>
      <point x="378.235" y="732"/>
      <point x="439.691" y="732" type="curve" smooth="yes"/>
      <point x="563.512" y="732"/>
      <point x="659.562" y="687.309"/>
      <point x="659.562" y="567.904" type="curve" smooth="yes"/>
      <point x="659.562" y="369.967"/>
      <point x="479.547" y="267"/>
      <point x="342.331" y="267" type="curve" smooth="yes"/>
      <point x="330.465" y="267"/>
      <point x="318.802" y="267.03"/>
      <point x="308.361" y="269.035" type="curve" smooth="yes"/>
      <point x="298.362" y="270.955"/>
      <point x="288.825" y="285.435"/>
      <point x="288.825" y="296.676" type="curve" smooth="yes"/>
      <point x="288.825" y="310.155"/>
      <point x="299.769" y="328"/>
      <point x="314.279" y="328" type="curve" smooth="yes"/>
      <point x="428.993" y="328"/>
      <point x="552.987" y="401.885"/>
      <point x="552.987" y="575.353" type="curve" smooth="yes"/>
      <point x="552.987" y="649.186"/>
      <point x="501.01" y="690"/>
      <point x="396.173" y="690" type="curve" smooth="yes"/>
      <point x="349.377" y="690" type="line"/>
      <point x="324.515" y="590.433"/>
      <point x="304.64" y="493.705"/>
      <point x="282.661" y="394.678" type="curve" smooth="yes"/>
      <point x="257.41" y="280.905"/>
      <point x="233.635" y="176.67"/>
      <point x="205.641" y="62.0146" type="curve"/>
      <point x="205.214" y="60.2676"/>
      <point x="204.04" y="54.7969"/>
      <point x="204.04" y="53.3057" type="curve" smooth="yes"/>
      <point x="204.04" y="47.8525"/>
      <point x="204.856" y="37.1602"/>
      <point x="215.124" y="32.7256" type="curve" smooth="yes"/>
      <point x="221.27" y="30.0713"/>
      <point x="229.737" y="30"/>
      <point x="238.138" y="30" type="curve" smooth="yes"/>
      <point x="244.931" y="30" type="line"/>
      <point x="244.931" y="30"/>
      <point x="246.239" y="26.9473"/>
      <point x="246.239" y="24.0059" type="curve" smooth="yes"/>
      <point x="246.239" y="20.9619"/>
      <point x="245.855" y="17.9639"/>
      <point x="244.292" y="14.3047" type="curve" smooth="yes"/>
      <point x="240.936" y="6.44727"/>
      <point x="230.9" y="0"/>
      <point x="230.9" y="0" type="curve"/>
      <point x="21.9004" y="0" type="line"/>
      <point x="21.9004" y="0"/>
      <point x="21.1006" y="2.6875"/>
      <point x="21.1006" y="6.43457" type="curve" smooth="yes"/>
      <point x="21.1006" y="9.34082"/>
      <point x="21.582" y="12.8848"/>
      <point x="23.292" y="16.3047" type="curve" smooth="yes"/>
      <point x="27.292" y="24.3047"/>
      <point x="34.5" y="30"/>
      <point x="34.5" y="30" type="curve"/>
      <point x="37.4346" y="30" type="line" smooth="yes"/>
      <point x="45.5312" y="30"/>
      <point x="52.6484" y="30.0186"/>
      <point x="59.8643" y="31.7852" type="curve"/>
      <point x="76.0879" y="35.1309"/>
      <point x="89.0957" y="56.3203"/>
      <point x="91.625" y="67.0566" type="curve"/>
      <point x="120.632" y="182.67"/>
      <point x="140.753" y="267.289"/>
      <point x="171.567" y="401.788" type="curve" smooth="yes"/>
      <point x="195.087" y="504.445"/>
      <point x="228.846" y="654.221"/>
      <point x="228.846" y="654.221" type="curve"/>
      <point x="229.65" y="657.824"/>
      <point x="233.196" y="673.217"/>
      <point x="233.196" y="677.05" type="curve" smooth="yes"/>
      <point x="233.196" y="687.232"/>
      <point x="230.212" y="692.322"/>
      <point x="222.222" y="697.346" type="curve" smooth="yes"/>
      <point x="218" y="700"/>
      <point x="207.784" y="700"/>
      <point x="199.515" y="700" type="curve" smooth="yes"/>
    </contour>
  </outline>
</glyph>
<glyph name="R" format="1">
  <advance width="669"/>
  <unicode hex="0052"/>
  <outline>
    <contour>
      <point x="147.9" y="700" type="line"/>
      <point x="147.9" y="700"/>
      <point x="147.101" y="702.688"/>
      <point x="147.101" y="706.435" type="curve" smooth="yes"/>
      <point x="147.101" y="709.341"/>
      <point x="147.582" y="712.885"/>
      <point x="149.292" y="716.305" type="curve" smooth="yes"/>
      <point x="153.292" y="724.305"/>
      <point x="160.5" y="730"/>
      <point x="160.5" y="730" type="curve"/>
      <point x="188.158" y="730" type="line" smooth="yes"/>
      <point x="250.182" y="730"/>
      <point x="336.669" y="734"/>
      <point x="398.286" y="734" type="curve" smooth="yes"/>
      <point x="520.604" y="734"/>
      <point x="605.604" y="691.567"/>
      <point x="605.604" y="588.395" type="curve" smooth="yes"/>
      <point x="605.604" y="459.519"/>
      <point x="533.148" y="392.076"/>
      <point x="419.186" y="366.2" type="curve"/>
      <point x="496.819" y="350.636"/>
      <point x="548.225" y="301.362"/>
      <point x="548.225" y="234.171" type="curve" smooth="yes"/>
      <point x="548.225" y="231.372"/>
      <point x="548.134" y="228.548"/>
      <point x="547.952" y="225.698" type="curve" smooth="yes"/>
      <point x="544.35" y="169.303"/>
      <point x="537.628" y="148.368"/>
      <point x="534.951" y="107.252" type="curve" smooth="yes"/>
      <point x="534.637" y="102.414"/>
      <point x="534.485" y="97.9492"/>
      <point x="534.485" y="93.832" type="curve" smooth="yes"/>
      <point x="534.485" y="58.8545"/>
      <point x="544.41" y="31.9287"/>
      <point x="567.688" y="31.9287" type="curve" smooth="yes"/>
      <point x="579.099" y="31.9287"/>
      <point x="595.489" y="35.5889"/>
      <point x="600.835" y="38.2607" type="curve"/>
      <point x="604.265" y="9.38867" type="line" smooth="yes"/>
      <point x="580.817" y="1.23242"/>
      <point x="535.786" y="-4.91602"/>
      <point x="496.973" y="-5" type="curve"/>
      <point x="443.219" y="-5"/>
      <point x="415.584" y="35.5996"/>
      <point x="415.584" y="78.417" type="curve" smooth="yes"/>
      <point x="415.584" y="80.0449"/>
      <point x="415.616" y="82.5645"/>
      <point x="415.694" y="84.3047" type="curve" smooth="yes"/>
      <point x="417.785" y="130.47"/>
      <point x="422.688" y="198.965"/>
      <point x="426.188" y="233.677" type="curve" smooth="yes"/>
      <point x="426.543" y="237.183"/>
      <point x="427.715" y="248.549"/>
      <point x="427.715" y="251.783" type="curve" smooth="yes"/>
      <point x="427.715" y="317.847"/>
      <point x="340.625" y="343.593"/>
      <point x="231.491" y="352.555" type="curve"/>
      <point x="162.188" y="62.4609" type="line" smooth="yes"/>
      <point x="161.832" y="60.9385"/>
      <point x="159.661" y="52.5127"/>
      <point x="159.661" y="51.1982" type="curve" smooth="yes"/>
      <point x="159.661" y="44.1016"/>
      <point x="161.136" y="36.5586"/>
      <point x="172.754" y="32.7627" type="curve" smooth="yes"/>
      <point x="178.937" y="30.7432"/>
      <point x="186.3" y="30"/>
      <point x="194.931" y="30" type="curve"/>
      <point x="194.931" y="30"/>
      <point x="196.239" y="26.9473"/>
      <point x="196.239" y="24.0059" type="curve" smooth="yes"/>
      <point x="196.239" y="20.9619"/>
      <point x="195.855" y="17.9639"/>
      <point x="194.292" y="14.3047" type="curve" smooth="yes"/>
      <point x="190.936" y="6.44727"/>
      <point x="180.9" y="0"/>
      <point x="180.9" y="0" type="curve"/>
      <point x="-22.0996" y="0" type="line"/>
      <point x="-22.0996" y="0"/>
      <point x="-22.8994" y="2.6875"/>
      <point x="-22.8994" y="6.43457" type="curve" smooth="yes"/>
      <point x="-22.8994" y="9.34082"/>
      <point x="-22.418" y="12.8848"/>
      <point x="-20.708" y="16.3047" type="curve" smooth="yes"/>
      <point x="-16.708" y="24.3047"/>
      <point x="-9.5" y="30"/>
      <point x="-9.5" y="30" type="curve"/>
      <point x="-4.03418" y="30" type="line" smooth="yes"/>
      <point x="4.08594" y="30"/>
      <point x="15.6357" y="31.8037"/>
      <point x="21.3945" y="33.7852" type="curve" smooth="yes"/>
      <point x="34.5557" y="38.3125"/>
      <point x="45.6973" y="56.6221"/>
      <point x="48.1543" y="67.0508" type="curve"/>
      <point x="78.1807" y="183.721"/>
      <point x="103.394" y="288.892"/>
      <point x="130.196" y="405.701" type="curve" smooth="yes"/>
      <point x="149.98" y="491.923"/>
      <point x="166.739" y="566.057"/>
      <point x="185.427" y="652.191" type="curve"/>
      <point x="186.246" y="655.864"/>
      <point x="190.648" y="673.501"/>
      <point x="190.648" y="678.032" type="curve" smooth="yes"/>
      <point x="190.648" y="689.727"/>
      <point x="184.974" y="693.562"/>
      <point x="178.306" y="696.213" type="curve" smooth="yes"/>
      <point x="172.032" y="698.708"/>
      <point x="165.166" y="700"/>
      <point x="157.067" y="700" type="curve" smooth="yes"/>
    </contour>
    <contour>
      <point x="246.413" y="422.788" type="curve" smooth="yes"/>
      <point x="244.234" y="413.103"/>
      <point x="242.11" y="403.942"/>
      <point x="240.084" y="395.081" type="curve"/>
      <point x="249.124" y="395.05"/>
      <point x="256.818" y="395"/>
      <point x="265.301" y="395" type="curve" smooth="yes"/>
      <point x="389.565" y="395"/>
      <point x="495.969" y="454.325"/>
      <point x="495.969" y="591.837" type="curve" smooth="yes"/>
      <point x="495.969" y="666.392"/>
      <point x="449.224" y="700"/>
      <point x="349.767" y="700" type="curve" smooth="yes"/>
      <point x="310.018" y="700" type="line"/>
      <point x="284.138" y="600.743"/>
      <point x="268.579" y="521.32"/>
    </contour>
  </outline>
</glyph>
<glyph name="S" format="1">
  <advance width="538"/>
  <unicode hex="0053"/>
  <outline>
    <contour>
      <point x="73.8613" y="171.627" type="curve" smooth="yes"/>
      <point x="73.8613" y="139.073"/>
      <point x="116.296" y="40"/>
      <point x="203.639" y="40" type="curve" smooth="yes"/>
      <point x="302.52" y="40"/>
      <point x="373.903" y="119.686"/>
      <point x="373.903" y="202.549" type="curve" smooth="yes"/>
      <point x="373.903" y="264.198"/>
      <point x="321.898" y="317.314"/>
      <point x="261.637" y="365.164" type="curve" smooth="yes"/>
      <point x="198.815" y="415.046"/>
      <point x="121.27" y="453.823"/>
      <point x="121.27" y="535.593" type="curve" smooth="yes"/>
      <point x="121.27" y="655.252"/>
      <point x="251.556" y="742"/>
      <point x="396.188" y="742" type="curve" smooth="yes"/>
      <point x="474.705" y="742"/>
      <point x="556.034" y="715.725"/>
      <point x="556.034" y="688.427" type="curve" smooth="yes"/>
      <point x="556.034" y="687.436"/>
      <point x="556.171" y="686.549"/>
      <point x="555.719" y="684.509" type="curve"/>
      <point x="552.732" y="670.576"/>
      <point x="527.025" y="598"/>
      <point x="508.879" y="598" type="curve" smooth="yes"/>
      <point x="480.228" y="598"/>
      <point x="457.413" y="696"/>
      <point x="373.213" y="696" type="curve" smooth="yes"/>
      <point x="295.538" y="696"/>
      <point x="235.839" y="624.69"/>
      <point x="235.839" y="558.649" type="curve" smooth="yes"/>
      <point x="235.839" y="507.937"/>
      <point x="288.015" y="479.572"/>
      <point x="342.77" y="435.629" type="curve" smooth="yes"/>
      <point x="416.069" y="376.802"/>
      <point x="486.221" y="320.464"/>
      <point x="486.221" y="243.134" type="curve" smooth="yes"/>
      <point x="486.221" y="140.841"/>
      <point x="422.84" y="75.7861"/>
      <point x="366.645" y="37.4102" type="curve" smooth="yes"/>
      <point x="321.699" y="6.53125"/>
      <point x="259.526" y="-10"/>
      <point x="182.107" y="-10" type="curve" smooth="yes"/>
      <point x="52.0791" y="-10"/>
      <point x="-13.9883" y="66.6621"/>
      <point x="-13.9883" y="114.759" type="curve" smooth="yes"/>
      <point x="-13.9883" y="118.158"/>
      <point x="-13.666" y="121.357"/>
      <point x="-12.9404" y="124.579" type="curve"/>
      <point x="-7.37598" y="147.949"/>
      <point x="40.1436" y="201"/>
      <point x="62.8789" y="201" type="curve" smooth="yes"/>
      <point x="63.1416" y="201"/>
      <point x="75.0752" y="200.845"/>
      <point x="75.0752" y="191.402" type="curve" smooth="yes"/>
      <point x="75.0752" y="189.831"/>
      <point x="75.0156" y="190.182"/>
      <point x="74.6523" y="187.564" type="curve"/>
      <point x="74.2812" y="184.149"/>
      <point x="73.8613" y="177.104"/>
    </contour>
  </outline>
</glyph>
<glyph name="T" format="1">
  <advance width="673"/>
  <unicode hex="0054"/>
  <outline>
    <contour>
      <point x="346.931" y="30" type="line"/>
      <point x="346.931" y="30"/>
      <point x="348.239" y="26.9473"/>
      <point x="348.239" y="24.0059" type="curve" smooth="yes"/>
      <point x="348.239" y="20.9619"/>
      <point x="347.855" y="17.9639"/>
      <point x="346.292" y="14.3047" type="curve" smooth="yes"/>
      <point x="342.936" y="6.44727"/>
      <point x="332.9" y="0"/>
      <point x="332.9" y="0" type="curve"/>
      <point x="122.9" y="0" type="line"/>
      <point x="122.9" y="0"/>
      <point x="122.101" y="2.6875"/>
      <point x="122.101" y="6.43457" type="curve" smooth="yes"/>
      <point x="122.101" y="9.34082"/>
      <point x="122.582" y="12.8848"/>
      <point x="124.292" y="16.3047" type="curve" smooth="yes"/>
      <point x="128.292" y="24.3047"/>
      <point x="135.5" y="30"/>
      <point x="135.5" y="30" type="curve"/>
      <point x="140.052" y="30" type="line" smooth="yes"/>
      <point x="148" y="30"/>
      <point x="158.682" y="31.4668"/>
      <point x="166.9" y="35.6045" type="curve" smooth="yes"/>
      <point x="179.673" y="42.0342"/>
      <point x="186.889" y="46.084"/>
      <point x="189.243" y="56.0762" type="curve"/>
      <point x="212.25" y="147.188"/>
      <point x="234.246" y="239.232"/>
      <point x="256.227" y="330.233" type="curve"/>
      <point x="332.398" y="663.881" type="line"/>
      <point x="333.182" y="667.58"/>
      <point x="336.021" y="679"/>
      <point x="336.021" y="682.332" type="curve" smooth="yes"/>
      <point x="336.021" y="690.067"/>
      <point x="330.772" y="693.365"/>
      <point x="326.709" y="694.132" type="curve"/>
      <point x="321.848" y="694.896"/>
      <point x="312.359" y="695"/>
      <point x="298.966" y="695" type="curve" smooth="yes"/>
      <point x="266.212" y="695"/>
      <point x="215.614" y="691.993"/>
      <point x="186.301" y="687.112" type="curve" smooth="yes"/>
      <point x="145.764" y="679.391"/>
      <point x="106" y="618"/>
      <point x="98.7549" y="590" type="curve"/>
      <point x="71" y="590" type="line"/>
      <point x="120.619" y="728.787" type="line" smooth="yes"/>
      <point x="122.998" y="733.571"/>
      <point x="127.549" y="736"/>
      <point x="132.052" y="736" type="curve" smooth="yes"/>
      <point x="139.188" y="736"/>
      <point x="151.857" y="734"/>
      <point x="158.154" y="734" type="curve"/>
      <point x="192.385" y="732.993"/>
      <point x="308.601" y="730"/>
      <point x="425.729" y="730" type="curve"/>
      <point x="529.463" y="731"/>
      <point x="569.228" y="731.993"/>
      <point x="653.927" y="735" type="curve"/>
      <point x="656.974" y="735"/>
      <point x="679.979" y="737"/>
      <point x="687.052" y="737" type="curve" smooth="yes"/>
      <point x="689.972" y="737"/>
      <point x="703.18" y="735.201"/>
      <point x="703.18" y="727.972" type="curve" smooth="yes"/>
      <point x="703.18" y="724.999"/>
      <point x="702.225" y="721.821"/>
      <point x="701.829" y="720.25" type="curve"/>
      <point x="668" y="590" type="line"/>
      <point x="642.753" y="589.505" type="line"/>
      <point x="644.285" y="597.915"/>
      <point x="650.271" y="622.366"/>
      <point x="650.271" y="645.008" type="curve" smooth="yes"/>
      <point x="650.271" y="673.52"/>
      <point x="646.464" y="685.945"/>
      <point x="630.339" y="689.212" type="curve" smooth="yes"/>
      <point x="607.165" y="693.906"/>
      <point x="583.832" y="695"/>
      <point x="526.865" y="695" type="curve" smooth="yes"/>
      <point x="510.562" y="695"/>
      <point x="492.904" y="694"/>
      <point x="474.984" y="694" type="curve" smooth="yes"/>
      <point x="456.446" y="694"/>
      <point x="449.62" y="671.23"/>
      <point x="446.852" y="659.906" type="curve"/>
      <point x="417.768" y="545.204"/>
      <point x="397.923" y="461.961"/>
      <point x="368.312" y="327.143" type="curve" smooth="yes"/>
      <point x="345" y="221"/>
      <point x="334" y="176"/>
      <point x="307.884" y="68.9922" type="curve" smooth="yes"/>
      <point x="307.367" y="66.875"/>
      <point x="306.232" y="59.377"/>
      <point x="306.232" y="57.6807" type="curve" smooth="yes"/>
      <point x="306.232" y="50.1621"/>
      <point x="306.874" y="39.8008"/>
      <point x="314.975" y="34.6953" type="curve" smooth="yes"/>
      <point x="319.951" y="31.5586"/>
      <point x="330.032" y="30"/>
      <point x="338.052" y="30" type="curve" smooth="yes"/>
    </contour>
  </outline>
</glyph>
<glyph name="U" format="1">
  <advance width="744"/>
  <unicode hex="0055"/>
  <outline>
    <contour>
      <point x="804.932" y="730" type="line"/>
      <point x="805.931" y="730"/>
      <point x="807.239" y="726.947"/>
      <point x="807.239" y="724.006" type="curve" smooth="yes"/>
      <point x="807.239" y="720.962"/>
      <point x="806.855" y="717.964"/>
      <point x="805.292" y="714.305" type="curve" smooth="yes"/>
      <point x="801.936" y="706.447"/>
      <point x="791.9" y="700"/>
      <point x="791.9" y="700" type="curve"/>
      <point x="786.966" y="700" type="line" smooth="yes"/>
      <point x="779" y="700"/>
      <point x="773.811" y="699.996"/>
      <point x="766.574" y="698.222" type="curve" smooth="yes"/>
      <point x="749.769" y="694.558"/>
      <point x="738.982" y="678.59"/>
      <point x="735.729" y="665.663" type="curve" smooth="yes"/>
      <point x="729.377" y="640.427"/>
      <point x="707.132" y="541.394"/>
      <point x="686.785" y="454.206" type="curve" smooth="yes"/>
      <point x="667.784" y="372.787"/>
      <point x="655.814" y="313.471"/>
      <point x="647" y="279" type="curve" smooth="yes"/>
      <point x="585.879" y="39.9678"/>
      <point x="470.748" y="-9.65527"/>
      <point x="310.362" y="-9.65527" type="curve" smooth="yes"/>
      <point x="192.6" y="-9.65527"/>
      <point x="52.5527" y="37.7686"/>
      <point x="52.5527" y="206.39" type="curve" smooth="yes"/>
      <point x="52.5527" y="232.952"/>
      <point x="60.0186" y="262.327"/>
      <point x="67.54" y="294.982" type="curve" smooth="yes"/>
      <point x="151.162" y="665.132" type="line" smooth="yes"/>
      <point x="151.748" y="667.705"/>
      <point x="153.082" y="676.897"/>
      <point x="153.082" y="679.021" type="curve" smooth="yes"/>
      <point x="153.082" y="687.965"/>
      <point x="148.312" y="693.619"/>
      <point x="141.364" y="696.221" type="curve" smooth="yes"/>
      <point x="136.28" y="698.125"/>
      <point x="128" y="700"/>
      <point x="120.966" y="700" type="curve" smooth="yes"/>
      <point x="110.9" y="700" type="line"/>
      <point x="110.9" y="700"/>
      <point x="110.101" y="702.688"/>
      <point x="110.101" y="706.435" type="curve" smooth="yes"/>
      <point x="110.101" y="709.341"/>
      <point x="110.582" y="712.885"/>
      <point x="112.292" y="716.305" type="curve" smooth="yes"/>
      <point x="116.292" y="724.305"/>
      <point x="123.5" y="730"/>
      <point x="123.5" y="730" type="curve"/>
      <point x="334.932" y="730" type="line"/>
      <point x="334.932" y="730"/>
      <point x="337.239" y="726.947"/>
      <point x="337.239" y="724.006" type="curve" smooth="yes"/>
      <point x="337.239" y="720.962"/>
      <point x="336.855" y="717.964"/>
      <point x="335.292" y="714.305" type="curve" smooth="yes"/>
      <point x="331.936" y="706.447"/>
      <point x="321.9" y="700"/>
      <point x="321.9" y="700" type="curve"/>
      <point x="317.966" y="700" type="line" smooth="yes"/>
      <point x="310" y="700"/>
      <point x="302.59" y="699.069"/>
      <point x="293.569" y="696.224" type="curve" smooth="yes"/>
      <point x="277.167" y="691.049"/>
      <point x="268.54" y="676.086"/>
      <point x="264.966" y="662.73" type="curve" smooth="yes"/>
      <point x="262.374" y="654.496"/>
      <point x="262.103" y="652.131"/>
      <point x="259.782" y="642.41" type="curve" smooth="yes"/>
      <point x="241.774" y="566.968"/>
      <point x="186.217" y="319.125"/>
      <point x="186.158" y="318.899" type="curve" smooth="yes"/>
      <point x="174.132" y="267.599"/>
      <point x="168.634" y="228.088"/>
      <point x="168.634" y="192.963" type="curve" smooth="yes"/>
      <point x="168.634" y="97.0967"/>
      <point x="218.29" y="45.3447"/>
      <point x="318.637" y="45.3447" type="curve" smooth="yes"/>
      <point x="456.461" y="45.3447"/>
      <point x="530.278" y="119.834"/>
      <point x="577.494" y="308.358" type="curve" smooth="yes"/>
      <point x="585.096" y="338.713"/>
      <point x="652.913" y="635.788"/>
      <point x="660.167" y="666.093" type="curve" smooth="yes"/>
      <point x="660.772" y="668.622"/>
      <point x="662.062" y="677.267"/>
      <point x="662.062" y="678.861" type="curve" smooth="yes"/>
      <point x="662.062" y="685.078"/>
      <point x="657.563" y="691.102"/>
      <point x="650.043" y="695.305" type="curve" smooth="yes"/>
      <point x="643.079" y="699.197"/>
      <point x="634" y="700"/>
      <point x="625.966" y="700" type="curve" smooth="yes"/>
      <point x="618.9" y="700" type="line"/>
      <point x="618.9" y="700"/>
      <point x="618.101" y="702.688"/>
      <point x="618.101" y="706.435" type="curve" smooth="yes"/>
      <point x="618.101" y="709.341"/>
      <point x="618.582" y="712.885"/>
      <point x="620.292" y="716.305" type="curve" smooth="yes"/>
      <point x="624.292" y="724.305"/>
      <point x="631.5" y="730"/>
      <point x="631.5" y="730" type="curve"/>
    </contour>
  </outline>
</glyph>
<glyph name="V" format="1">
  <advance width="651"/>
  <unicode hex="0056"/>
  <outline>
    <contour>
      <point x="776.931" y="730" type="line"/>
      <point x="776.931" y="730"/>
      <point x="778.239" y="726.947"/>
      <point x="778.239" y="724.006" type="curve" smooth="yes"/>
      <point x="778.239" y="720.962"/>
      <point x="777.855" y="717.964"/>
      <point x="776.292" y="714.305" type="curve" smooth="yes"/>
      <point x="772.936" y="706.447"/>
      <point x="762.9" y="700"/>
      <point x="762.9" y="700" type="curve"/>
      <point x="757.966" y="700" type="line" smooth="yes"/>
      <point x="723.728" y="700"/>
      <point x="719.828" y="681.767"/>
      <point x="702.861" y="656.928" type="curve"/>
      <point x="562.376" y="436.383"/>
      <point x="427.96" y="220.886"/>
      <point x="288.827" y="5.3457" type="curve" smooth="yes"/>
      <point x="285.752" y="0.486328"/>
      <point x="275.29" y="-10"/>
      <point x="264.25" y="-10" type="curve" smooth="yes"/>
      <point x="252.989" y="-10"/>
      <point x="243.794" y="0.230469"/>
      <point x="242.812" y="7.68652" type="curve"/>
      <point x="240.78" y="20.21"/>
      <point x="170.023" y="474.334"/>
      <point x="145.048" y="644.813" type="curve"/>
      <point x="144.067" y="650.583"/>
      <point x="143.042" y="659.589"/>
      <point x="142.044" y="664.479" type="curve" smooth="yes"/>
      <point x="138.94" y="679.686"/>
      <point x="138.593" y="689.349"/>
      <point x="132.528" y="694.185" type="curve" smooth="yes"/>
      <point x="127.479" y="698.211"/>
      <point x="119.623" y="700"/>
      <point x="112.966" y="700" type="curve" smooth="yes"/>
      <point x="102.9" y="700" type="line"/>
      <point x="102.9" y="700"/>
      <point x="102.101" y="702.688"/>
      <point x="102.101" y="706.435" type="curve" smooth="yes"/>
      <point x="102.101" y="709.341"/>
      <point x="102.582" y="712.885"/>
      <point x="104.292" y="716.305" type="curve" smooth="yes"/>
      <point x="108.292" y="724.305"/>
      <point x="114.866" y="730"/>
      <point x="114.866" y="730" type="curve"/>
      <point x="327" y="730" type="line"/>
      <point x="327" y="730"/>
      <point x="329.239" y="726.947"/>
      <point x="329.239" y="724.006" type="curve" smooth="yes"/>
      <point x="329.239" y="720.962"/>
      <point x="328.855" y="717.964"/>
      <point x="327.292" y="714.305" type="curve" smooth="yes"/>
      <point x="323.936" y="706.447"/>
      <point x="313.9" y="700"/>
      <point x="313.9" y="700" type="curve"/>
      <point x="310.23" y="700" type="line" smooth="yes"/>
      <point x="303.124" y="700"/>
      <point x="290.992" y="698.498"/>
      <point x="284.012" y="696.18" type="curve" smooth="yes"/>
      <point x="267.702" y="690.763"/>
      <point x="256.755" y="683.488"/>
      <point x="256.755" y="665.137" type="curve" smooth="yes"/>
      <point x="256.755" y="662.384"/>
      <point x="257.986" y="651.353"/>
      <point x="258.495" y="648.024" type="curve" smooth="yes"/>
      <point x="333.218" y="189.077" type="line"/>
      <point x="629.635" y="645.724" type="line"/>
      <point x="640.755" y="662.455"/>
      <point x="643.802" y="669.115"/>
      <point x="643.802" y="680.947" type="curve" smooth="yes"/>
      <point x="643.802" y="691.556"/>
      <point x="634.588" y="700"/>
      <point x="612.919" y="700" type="curve" smooth="yes"/>
      <point x="602.9" y="700" type="line"/>
      <point x="602.9" y="700"/>
      <point x="602.101" y="702.688"/>
      <point x="602.101" y="706.435" type="curve" smooth="yes"/>
      <point x="602.101" y="709.341"/>
      <point x="602.582" y="712.885"/>
      <point x="604.292" y="716.305" type="curve" smooth="yes"/>
      <point x="608.292" y="724.305"/>
      <point x="615.5" y="730"/>
      <point x="615.5" y="730" type="curve"/>
    </contour>
  </outline>
</glyph>
<glyph name="X" format="1">
  <advance width="672"/>
  <unicode hex="0058"/>
  <outline>
    <contour>
      <point x="588.431" y="0" type="curve"/>
      <point x="368" y="0" type="line"/>
      <point x="367.9" y="0"/>
      <point x="367.101" y="2.6875"/>
      <point x="367.101" y="6.43457" type="curve" smooth="yes"/>
      <point x="367.101" y="9.34082"/>
      <point x="367.582" y="12.8848"/>
      <point x="369.292" y="16.3047" type="curve" smooth="yes"/>
      <point x="373.292" y="24.3047"/>
      <point x="379.866" y="30"/>
      <point x="379.866" y="30" type="curve"/>
      <point x="385.966" y="30" type="line" smooth="yes"/>
      <point x="408" y="30"/>
      <point x="425.732" y="41.4072"/>
      <point x="425.732" y="59.209" type="curve" smooth="yes"/>
      <point x="425.732" y="65.3848"/>
      <point x="423.966" y="74.585"/>
      <point x="420.402" y="84.5635" type="curve"/>
      <point x="319.876" y="310.858" type="line"/>
      <point x="110.104" y="86.2461" type="line"/>
      <point x="95.1836" y="68.3301"/>
      <point x="84.5059" y="55.8193"/>
      <point x="81.7383" y="50.2295" type="curve" smooth="yes"/>
      <point x="79.958" y="46.6338"/>
      <point x="79.0898" y="43.5391"/>
      <point x="79.0898" y="40.9238" type="curve" smooth="yes"/>
      <point x="79.0898" y="33.3008"/>
      <point x="86.4609" y="29.75"/>
      <point x="100.091" y="29.75" type="curve" smooth="yes"/>
      <point x="103.114" y="29.75"/>
      <point x="106.67" y="30"/>
      <point x="110.966" y="30" type="curve" smooth="yes"/>
      <point x="121" y="30" type="line"/>
      <point x="121" y="30"/>
      <point x="123.239" y="26.9473"/>
      <point x="123.239" y="24.0059" type="curve" smooth="yes"/>
      <point x="123.239" y="20.9619"/>
      <point x="122.855" y="17.9639"/>
      <point x="121.292" y="14.3047" type="curve" smooth="yes"/>
      <point x="117.936" y="6.44727"/>
      <point x="107.9" y="0"/>
      <point x="107.9" y="0" type="curve"/>
      <point x="-70.0996" y="0" type="line"/>
      <point x="-70.0996" y="0"/>
      <point x="-70.8994" y="2.6875"/>
      <point x="-70.8994" y="6.43457" type="curve" smooth="yes"/>
      <point x="-70.8994" y="9.34082"/>
      <point x="-70.418" y="12.8848"/>
      <point x="-68.708" y="16.3047" type="curve" smooth="yes"/>
      <point x="-64.708" y="24.3047"/>
      <point x="-58.1338" y="30"/>
      <point x="-58.1338" y="30" type="curve"/>
      <point x="-53.0342" y="30" type="line" smooth="yes"/>
      <point x="-17.9844" y="30"/>
      <point x="-9.92773" y="49.2881"/>
      <point x="12.8066" y="73.042" type="curve"/>
      <point x="290.896" y="367.46" type="line"/>
      <point x="239.961" y="497.595"/>
      <point x="187.768" y="620.694"/>
      <point x="162" y="677" type="curve"/>
      <point x="155.059" y="693.317"/>
      <point x="147.876" y="700"/>
      <point x="121.966" y="700" type="curve" smooth="yes"/>
      <point x="114.9" y="700" type="line"/>
      <point x="114.9" y="700"/>
      <point x="114.101" y="702.688"/>
      <point x="114.101" y="706.435" type="curve" smooth="yes"/>
      <point x="114.101" y="709.341"/>
      <point x="114.582" y="712.885"/>
      <point x="116.292" y="716.305" type="curve" smooth="yes"/>
      <point x="120.292" y="724.305"/>
      <point x="126.866" y="730"/>
      <point x="126.866" y="730" type="curve"/>
      <point x="339" y="730" type="line"/>
      <point x="339" y="730"/>
      <point x="341.239" y="726.947"/>
      <point x="341.239" y="724.006" type="curve" smooth="yes"/>
      <point x="341.239" y="720.962"/>
      <point x="340.855" y="717.964"/>
      <point x="339.292" y="714.305" type="curve" smooth="yes"/>
      <point x="335.936" y="706.447"/>
      <point x="325.9" y="700"/>
      <point x="326.431" y="700" type="curve"/>
      <point x="320.966" y="700" type="line" smooth="yes"/>
      <point x="293.595" y="700"/>
      <point x="278.77" y="687.362"/>
      <point x="278.77" y="666.755" type="curve" smooth="yes"/>
      <point x="278.77" y="662.033"/>
      <point x="282.496" y="653.086"/>
      <point x="285.473" y="645.58" type="curve" smooth="yes"/>
      <point x="374.536" y="447.006" type="line"/>
      <point x="568.775" y="642.697" type="line"/>
      <point x="587.625" y="663.642"/>
      <point x="595.275" y="669.682"/>
      <point x="595.275" y="680.925" type="curve" smooth="yes"/>
      <point x="595.275" y="686.442"/>
      <point x="586.811" y="700"/>
      <point x="567.966" y="700" type="curve" smooth="yes"/>
      <point x="556.9" y="700" type="line"/>
      <point x="556.9" y="700"/>
      <point x="556.101" y="702.688"/>
      <point x="556.101" y="706.435" type="curve" smooth="yes"/>
      <point x="556.101" y="709.341"/>
      <point x="556.582" y="712.885"/>
      <point x="558.292" y="716.305" type="curve" smooth="yes"/>
      <point x="562.292" y="724.305"/>
      <point x="568.866" y="730"/>
      <point x="568.866" y="730" type="curve"/>
      <point x="751" y="730" type="line"/>
      <point x="751" y="730"/>
      <point x="753.239" y="726.947"/>
      <point x="753.239" y="724.006" type="curve" smooth="yes"/>
      <point x="753.239" y="720.962"/>
      <point x="752.855" y="717.964"/>
      <point x="751.292" y="714.305" type="curve" smooth="yes"/>
      <point x="747.936" y="706.447"/>
      <point x="737.9" y="700"/>
      <point x="737.9" y="700" type="curve"/>
      <point x="732.966" y="700" type="line" smooth="yes"/>
      <point x="697.879" y="700"/>
      <point x="685.911" y="679.723"/>
      <point x="664.117" y="656.951" type="curve"/>
      <point x="407.353" y="389.765" type="line"/>
      <point x="413.219" y="375.079" type="line"/>
      <point x="476.499" y="238.978"/>
      <point x="527.53" y="117.836"/>
      <point x="554.397" y="58.3789" type="curve"/>
      <point x="561.915" y="40.707"/>
      <point x="568.72" y="30"/>
      <point x="592.966" y="30" type="curve" smooth="yes"/>
      <point x="601" y="30" type="line"/>
      <point x="601" y="30"/>
      <point x="603.239" y="26.9473"/>
      <point x="603.239" y="24.0059" type="curve" smooth="yes"/>
      <point x="603.239" y="20.9619"/>
      <point x="602.855" y="17.9639"/>
      <point x="601.292" y="14.3047" type="curve" smooth="yes"/>
      <point x="597.936" y="6.44727"/>
      <point x="587.9" y="0"/>
    </contour>
  </outline>
</glyph>
<glyph name="Y" format="1">
  <advance width="633"/>
  <unicode hex="0059"/>
  <outline>
    <contour>
      <point x="725.931" y="730" type="line"/>
      <point x="726" y="730"/>
      <point x="728.239" y="726.947"/>
      <point x="728.239" y="724.006" type="curve" smooth="yes"/>
      <point x="728.239" y="720.962"/>
      <point x="727.855" y="717.964"/>
      <point x="726.292" y="714.305" type="curve" smooth="yes"/>
      <point x="722.936" y="706.447"/>
      <point x="712.9" y="700"/>
      <point x="712.9" y="700" type="curve"/>
      <point x="705.966" y="700" type="line" smooth="yes"/>
      <point x="674.868" y="700"/>
      <point x="659.799" y="680.884"/>
      <point x="650.229" y="669.807" type="curve"/>
      <point x="387.284" y="391.95" type="line"/>
      <point x="374.563" y="346.952"/>
      <point x="366.243" y="302.264"/>
      <point x="355.676" y="256.682" type="curve" smooth="yes"/>
      <point x="339.993" y="189.036"/>
      <point x="329.764" y="146.349"/>
      <point x="312.841" y="79.0654" type="curve"/>
      <point x="312.841" y="79.0654"/>
      <point x="308.146" y="62.5723"/>
      <point x="308.146" y="56.6006" type="curve" smooth="yes"/>
      <point x="308.146" y="41.6777"/>
      <point x="318.697" y="30"/>
      <point x="340.187" y="30" type="curve" smooth="yes"/>
      <point x="349" y="30" type="line"/>
      <point x="349" y="30"/>
      <point x="351.239" y="26.9473"/>
      <point x="351.239" y="24.0059" type="curve" smooth="yes"/>
      <point x="351.239" y="20.9619"/>
      <point x="350.855" y="17.9639"/>
      <point x="349.292" y="14.3047" type="curve" smooth="yes"/>
      <point x="345.936" y="6.44727"/>
      <point x="335.9" y="0"/>
      <point x="336.742" y="0" type="curve"/>
      <point x="115" y="0" type="line"/>
      <point x="114.9" y="0"/>
      <point x="114.101" y="2.6875"/>
      <point x="114.101" y="6.43457" type="curve" smooth="yes"/>
      <point x="114.101" y="9.34082"/>
      <point x="114.582" y="12.8848"/>
      <point x="116.292" y="16.3047" type="curve" smooth="yes"/>
      <point x="120.292" y="24.3047"/>
      <point x="126.866" y="30"/>
      <point x="126.866" y="30" type="curve"/>
      <point x="132.966" y="30" type="line" smooth="yes"/>
      <point x="141.086" y="30"/>
      <point x="149.04" y="30.9932"/>
      <point x="157.395" y="33.7852" type="curve" smooth="yes"/>
      <point x="173" y="39"/>
      <point x="182.713" y="56.6875"/>
      <point x="185.153" y="67.0479" type="curve" smooth="yes"/>
      <point x="202.195" y="135.781"/>
      <point x="217.168" y="193.263"/>
      <point x="233.147" y="260.764" type="curve" smooth="yes"/>
      <point x="242.905" y="301.862"/>
      <point x="253.185" y="345.393"/>
      <point x="261.724" y="384.931" type="curve"/>
      <point x="213.597" y="508.672"/>
      <point x="162.438" y="626.969"/>
      <point x="137.547" y="680.61" type="curve"/>
      <point x="130.5" y="697.177"/>
      <point x="125.604" y="700"/>
      <point x="101.966" y="700" type="curve" smooth="yes"/>
      <point x="93.9004" y="700" type="line"/>
      <point x="93.9004" y="700"/>
      <point x="93.1006" y="702.688"/>
      <point x="93.1006" y="706.435" type="curve" smooth="yes"/>
      <point x="93.1006" y="709.341"/>
      <point x="93.582" y="712.885"/>
      <point x="95.292" y="716.305" type="curve" smooth="yes"/>
      <point x="99.292" y="724.305"/>
      <point x="105.866" y="730"/>
      <point x="105.5" y="730" type="curve"/>
      <point x="312.4" y="730" type="line"/>
      <point x="313" y="730"/>
      <point x="315.239" y="726.947"/>
      <point x="315.239" y="724.006" type="curve" smooth="yes"/>
      <point x="315.239" y="720.962"/>
      <point x="314.855" y="717.964"/>
      <point x="313.292" y="714.305" type="curve" smooth="yes"/>
      <point x="309.936" y="706.447"/>
      <point x="299.9" y="700"/>
      <point x="299.9" y="700" type="curve"/>
      <point x="293.966" y="700" type="line" smooth="yes"/>
      <point x="270.172" y="700"/>
      <point x="255.199" y="685.212"/>
      <point x="255.199" y="667.791" type="curve" smooth="yes"/>
      <point x="255.199" y="662.626"/>
      <point x="256.973" y="655.392"/>
      <point x="260.521" y="645.455" type="curve"/>
      <point x="353.613" y="431.013" type="line"/>
      <point x="558.801" y="641.725" type="line" smooth="yes"/>
      <point x="576.683" y="661.271"/>
      <point x="588.554" y="673.879"/>
      <point x="588.554" y="682.007" type="curve" smooth="yes"/>
      <point x="588.554" y="692.407"/>
      <point x="577.742" y="700"/>
      <point x="556.966" y="700" type="curve" smooth="yes"/>
      <point x="547.9" y="700" type="line"/>
      <point x="547.9" y="700"/>
      <point x="547.101" y="702.688"/>
      <point x="547.101" y="706.435" type="curve" smooth="yes"/>
      <point x="547.101" y="709.341"/>
      <point x="547.582" y="712.885"/>
      <point x="549.292" y="716.305" type="curve" smooth="yes"/>
      <point x="553.292" y="724.305"/>
      <point x="559.866" y="730"/>
      <point x="559.866" y="730" type="curve"/>
    </contour>
  </outline>
</glyph>
<glyph name="Z" format="1">
  <advance width="713"/>
  <unicode hex="005A"/>
  <outline>
    <contour>
      <point x="718.697" y="671.641" type="curve" smooth="yes"/>
      <point x="195.072" y="49.0195" type="line"/>
      <point x="226.75" y="45.0605"/>
      <point x="262.001" y="43"/>
      <point x="298.862" y="43" type="curve" smooth="yes"/>
      <point x="341.105" y="43"/>
      <point x="431.633" y="43.0596"/>
      <point x="480.252" y="49.9297" type="curve" smooth="yes"/>
      <point x="544.742" y="58.7168"/>
      <point x="583.318" y="108.241"/>
      <point x="612.43" y="176.744" type="curve"/>
      <point x="636.759" y="178.593" type="line"/>
      <point x="565.97" y="0" type="line"/>
      <point x="64.3701" y="0" type="line" smooth="yes"/>
      <point x="56.7207" y="0"/>
      <point x="37.3701" y="3.43555"/>
      <point x="37.3701" y="23.5254" type="curve" smooth="yes"/>
      <point x="37.3701" y="33.2324"/>
      <point x="44.9111" y="44.5439"/>
      <point x="48.9541" y="49.498" type="curve"/>
      <point x="592.928" y="686.734" type="line"/>
      <point x="565.47" y="687.907"/>
      <point x="512.187" y="690"/>
      <point x="471.749" y="690" type="curve" smooth="yes"/>
      <point x="415.042" y="690"/>
      <point x="381.212" y="688.956"/>
      <point x="340.907" y="680.169" type="curve" smooth="yes"/>
      <point x="271.615" y="665.138"/>
      <point x="234.031" y="627.67"/>
      <point x="206.005" y="567.295" type="curve"/>
      <point x="184.351" y="565.25" type="line"/>
      <point x="255.659" y="726.883" type="line" smooth="yes"/>
      <point x="259.297" y="732.172"/>
      <point x="266.621" y="734"/>
      <point x="272.99" y="734" type="curve" smooth="yes"/>
      <point x="284.359" y="734"/>
      <point x="302.356" y="730"/>
      <point x="307" y="730" type="curve" smooth="yes"/>
      <point x="734.393" y="730" type="line"/>
      <point x="734.393" y="730"/>
      <point x="735.202" y="720.745"/>
      <point x="735.37" y="716.117" type="curve" smooth="yes"/>
      <point x="735.37" y="700.814"/>
      <point x="729.326" y="683.547"/>
    </contour>
  </outline>
</glyph>
<glyph name="bracketleft" format="1">
  <advance width="438"/>
  <unicode hex="005B"/>
  <outline>
    <contour>
      <point x="280.084" y="698.95" type="line"/>
      <point x="108.702" y="-51.9502" type="line"/>
      <point x="215.88" y="-51.9502" type="line" smooth="yes"/>
      <point x="236.53" y="-51.9502"/>
      <point x="236.094" y="-74.7126"/>
      <point x="236.094" y="-78.6455" type="curve" smooth="yes"/>
      <point x="236.094" y="-92.0833"/>
      <point x="231.301" y="-118.15"/>
      <point x="207.38" y="-118.15" type="curve" smooth="yes"/>
      <point x="46.7305" y="-118.15" type="line" smooth="yes"/>
      <point x="31.2373" y="-118.15"/>
      <point x="17.0775" y="-108.227"/>
      <point x="17.0775" y="-90.3568" type="curve" smooth="yes"/>
      <point x="17.0775" y="-86.5403"/>
      <point x="17.5682" y="-82.9494"/>
      <point x="18.4382" y="-78.8899" type="curve" smooth="yes"/>
      <point x="204.288" y="725.411" type="line" smooth="yes"/>
      <point x="208.805" y="746.485"/>
      <point x="224.95" y="758.15"/>
      <point x="246.23" y="758.15" type="curve" smooth="yes"/>
      <point x="402.68" y="758.15" type="line" smooth="yes"/>
      <point x="422.554" y="758.15"/>
      <point x="422.142" y="736.561"/>
      <point x="422.142" y="733.502" type="curve" smooth="yes"/>
      <point x="422.142" y="721.417"/>
      <point x="419.187" y="698.95"/>
      <point x="395.18" y="698.95" type="curve" smooth="yes"/>
    </contour>
  </outline>
</glyph>
<glyph name="backslash" format="1">
  <advance width="398"/>
  <unicode hex="005C"/>
  <outline>
    <contour>
      <point x="363.073" y="-109.316" type="line" smooth="yes"/>
      <point x="352.044" y="-115.035"/>
      <point x="339.509" y="-118.052"/>
      <point x="327" y="-118.052" type="curve" smooth="yes"/>
      <point x="297.342" y="-118.052"/>
      <point x="277.243" y="-97.5583"/>
      <point x="267.669" y="-61.888" type="curve" smooth="yes"/>
      <point x="117.906" y="419.864"/>
      <point x="28.8624" y="670.987" type="curve" smooth="yes"/>
      <point x="28.46" y="672.122" type="line"/>
      <point x="28" y="673.419" type="line"/>
      <point x="28" y="674.796" type="line"/>
      <point x="28" y="676" type="line" smooth="yes"/>
      <point x="28" y="697.766"/>
      <point x="44.4196" y="711.256"/>
      <point x="64" y="711.256" type="curve" smooth="yes"/>
      <point x="81.2984" y="711.256"/>
      <point x="100.301" y="702.678"/>
      <point x="119.377" y="687.84" type="curve" smooth="yes"/>
      <point x="121.198" y="686.424" type="line"/>
      <point x="123.278" y="684.806" type="line"/>
      <point x="123.99" y="682.268" type="line"/>
      <point x="124.612" y="680.047" type="line" smooth="yes"/>
      <point x="196.546" y="423.282"/>
      <point x="269.406" y="187.735"/>
      <point x="370.272" y="-90.8942" type="curve" smooth="yes"/>
      <point x="372.362" y="-96.6657" type="line"/>
      <point x="374.749" y="-103.262" type="line"/>
      <point x="368.522" y="-106.491" type="line"/>
    </contour>
  </outline>
</glyph>
<glyph name="bracketright" format="1">
  <advance width="441"/>
  <unicode hex="005D"/>
  <outline>
    <contour>
      <point x="331.924" y="697.95" type="line"/>
      <point x="223.737" y="697.95" type="line" smooth="yes"/>
      <point x="203.325" y="697.95"/>
      <point x="203.815" y="721.045"/>
      <point x="203.815" y="724.382" type="curve" smooth="yes"/>
      <point x="203.815" y="736.14"/>
      <point x="205.757" y="758.15"/>
      <point x="230.237" y="758.15" type="curve" smooth="yes"/>
      <point x="387.737" y="758.15" type="line" smooth="yes"/>
      <point x="404.117" y="758.15"/>
      <point x="421.46" y="749.712"/>
      <point x="421.46" y="729.399" type="curve" smooth="yes"/>
      <point x="421.46" y="725.858"/>
      <point x="421.017" y="722.563"/>
      <point x="420.23" y="718.89" type="curve" smooth="yes"/>
      <point x="233.904" y="-87.4688" type="line" smooth="yes"/>
      <point x="229.634" y="-105.482"/>
      <point x="214.463" y="-118.15"/>
      <point x="195.588" y="-118.15" type="curve" smooth="yes"/>
      <point x="34.9375" y="-118.15" type="line" smooth="yes"/>
      <point x="14.5231" y="-118.15"/>
      <point x="15.0156" y="-95.0526"/>
      <point x="15.0156" y="-91.7164" type="curve" smooth="yes"/>
      <point x="15.0156" y="-80.1062"/>
      <point x="17.8932" y="-51.9502"/>
      <point x="43.4375" y="-51.9502" type="curve" smooth="yes"/>
      <point x="158.559" y="-51.9502" type="line"/>
    </contour>
  </outline>
</glyph>
<glyph name="grave" format="1">
  <advance width="283"/>
  <unicode hex="0060"/>
  <outline>
    <contour>
      <point x="203.833" y="528.676" type="line" smooth="yes"/>
      <point x="162.237" y="564.185"/>
      <point x="74.9455" y="647.029"/>
      <point x="63.5536" y="664.117" type="curve" smooth="yes"/>
      <point x="58.67" y="671.442"/>
      <point x="55.9996" y="680.024"/>
      <point x="55.9996" y="689.172" type="curve" smooth="yes"/>
      <point x="55.9996" y="722.775"/>
      <point x="86.692" y="751"/>
      <point x="115.378" y="751" type="curve" smooth="yes"/>
      <point x="128.011" y="751"/>
      <point x="140.617" y="746.26"/>
      <point x="148.202" y="734.883" type="curve" smooth="yes"/>
      <point x="159.402" y="718.084"/>
      <point x="208.66" y="602.116"/>
      <point x="230.825" y="549.727" type="curve" smooth="yes"/>
      <point x="232.874" y="544.884" type="line"/>
      <point x="208.267" y="524.891" type="line"/>
    </contour>
  </outline>
</glyph>
<glyph name="a" format="1">
  <advance width="565"/>
  <unicode hex="0061"/>
  <outline>
    <contour>
      <point x="457.256" y="52.5371" type="curve"/>
      <point x="457.256" y="21.835" type="line"/>
      <point x="432.203" y="5.65332"/>
      <point x="410.297" y="-7.27539"/>
      <point x="382.446" y="-7.27539" type="curve" smooth="yes"/>
      <point x="358.599" y="-7.27539"/>
      <point x="328.051" y="11.8076"/>
      <point x="325.301" y="28.5898" type="curve"/>
      <point x="286.704" y="3.90918"/>
      <point x="245.325" y="-10.4248"/>
      <point x="195.945" y="-10.4248" type="curve" smooth="yes"/>
      <point x="80.4961" y="-10.4248"/>
      <point x="22.2217" y="52.9668"/>
      <point x="22.2217" y="166.87" type="curve" smooth="yes"/>
      <point x="22.2217" y="377.188"/>
      <point x="155.98" y="511.425"/>
      <point x="320.353" y="511.425" type="curve" smooth="yes"/>
      <point x="359.702" y="511.425"/>
      <point x="395.243" y="503.098"/>
      <point x="424.613" y="474.852" type="curve"/>
      <point x="426.954" y="485.384" type="line"/>
      <point x="431.647" y="486.137" type="line" smooth="yes"/>
      <point x="459.358" y="490.581"/>
      <point x="505.347" y="496.212"/>
      <point x="532.081" y="503.09" type="curve"/>
      <point x="429.826" y="60.4814" type="line" smooth="yes"/>
      <point x="426.042" y="44.5205" type="line"/>
      <point x="436.262" y="47.0684"/>
      <point x="446.93" y="49.7969"/>
    </contour>
    <contour>
      <point x="332" y="83" type="curve"/>
      <point x="399" y="362" type="line"/>
      <point x="399.373" y="368.484"/>
      <point x="404.539" y="387.396"/>
      <point x="404.539" y="393.235" type="curve" smooth="yes"/>
      <point x="404.539" y="439.095"/>
      <point x="385.391" y="471.375"/>
      <point x="322.947" y="471.375" type="curve" smooth="yes"/>
      <point x="216.621" y="471.375"/>
      <point x="134.577" y="339.807"/>
      <point x="134.577" y="169.765" type="curve" smooth="yes"/>
      <point x="134.577" y="131.276"/>
      <point x="151.372" y="48.0752"/>
      <point x="223.382" y="48.0752" type="curve" smooth="yes"/>
      <point x="268.192" y="48.0752"/>
      <point x="325.255" y="69.708"/>
    </contour>
  </outline>
</glyph>
<glyph name="b" format="1">
  <advance width="559"/>
  <unicode hex="0062"/>
  <outline>
    <contour>
      <point x="311.346" y="745.498" type="curve" smooth="yes"/>
      <point x="247.874" y="480.834" type="line"/>
      <point x="280.974" y="501.122"/>
      <point x="312.788" y="511.9"/>
      <point x="356.319" y="511.9" type="curve" smooth="yes"/>
      <point x="463.86" y="511.9"/>
      <point x="542.312" y="480.563"/>
      <point x="542.312" y="329.054" type="curve" smooth="yes"/>
      <point x="542.312" y="124.735"/>
      <point x="424.102" y="-9.9502"/>
      <point x="230.794" y="-9.9502" type="curve" smooth="yes"/>
      <point x="193.442" y="-9.9502"/>
      <point x="163.903" y="-0.825195"/>
      <point x="133.668" y="22.7725" type="curve"/>
      <point x="107.562" y="3.89062"/>
      <point x="63.2852" y="-3.65039"/>
      <point x="6.42676" y="-3.65039" type="curve" smooth="yes"/>
      <point x="-2.2002" y="-3.65039" type="line"/>
      <point x="5.94727" y="29.623" type="line"/>
      <point x="11.627" y="29.623" type="line" smooth="yes"/>
      <point x="31.5479" y="29.623"/>
      <point x="44.0449" y="46.0703"/>
      <point x="46.6064" y="56.9453" type="curve" smooth="yes"/>
      <point x="190.895" y="677.578" type="line" smooth="yes"/>
      <point x="191.977" y="682.011"/>
      <point x="194.562" y="693.323"/>
      <point x="194.562" y="697.165" type="curve" smooth="yes"/>
      <point x="194.562" y="705.987"/>
      <point x="192.419" y="712.472"/>
      <point x="187.816" y="715.488" type="curve" smooth="yes"/>
      <point x="184.914" y="717.391"/>
      <point x="177.693" y="718.95"/>
      <point x="168.851" y="718.95" type="curve" smooth="yes"/>
      <point x="159.565" y="718.95" type="line"/>
      <point x="164.972" y="745.254" type="line"/>
      <point x="289.367" y="770.701" type="line" smooth="yes"/>
      <point x="291.318" y="771.208"/>
      <point x="297.186" y="774"/>
      <point x="302.398" y="774" type="curve" smooth="yes"/>
      <point x="305.929" y="774"/>
      <point x="313.897" y="770.192"/>
      <point x="313.897" y="760.41" type="curve" smooth="yes"/>
      <point x="313.897" y="755.986"/>
      <point x="312.88" y="751.8"/>
    </contour>
    <contour>
      <point x="236" y="429" type="curve"/>
      <point x="158" y="104" type="line" smooth="yes"/>
      <point x="156.955" y="99.6445"/>
      <point x="157.502" y="97.2637"/>
      <point x="157.502" y="93.8682" type="curve" smooth="yes"/>
      <point x="157.502" y="60.0664"/>
      <point x="196.387" y="35.1504"/>
      <point x="252.521" y="35.1504" type="curve" smooth="yes"/>
      <point x="363.276" y="35.1504"/>
      <point x="435.996" y="184.238"/>
      <point x="435.996" y="338.887" type="curve" smooth="yes"/>
      <point x="435.996" y="405.891"/>
      <point x="396.327" y="471.4"/>
      <point x="340.052" y="471.4" type="curve" smooth="yes"/>
      <point x="304.197" y="471.4"/>
      <point x="272.628" y="456.823"/>
    </contour>
  </outline>
</glyph>
<glyph name="c" format="1">
  <advance width="492"/>
  <unicode hex="0063"/>
  <outline>
    <contour>
      <point x="323.126" y="511.425" type="curve" smooth="yes"/>
      <point x="376.292" y="511.425"/>
      <point x="435.956" y="490.004"/>
      <point x="474.178" y="417.226" type="curve" smooth="yes"/>
      <point x="475.799" y="414.138"/>
      <point x="477.71" y="410.977"/>
      <point x="477.71" y="406.657" type="curve" smooth="yes"/>
      <point x="477.71" y="381.821"/>
      <point x="439.677" y="370.875"/>
      <point x="423.048" y="370.875" type="curve" smooth="yes"/>
      <point x="354.816" y="370.875"/>
      <point x="389.072" y="474.325"/>
      <point x="313.64" y="474.325" type="curve" smooth="yes"/>
      <point x="230.338" y="474.325"/>
      <point x="126.371" y="332.743"/>
      <point x="126.371" y="195.656" type="curve" smooth="yes"/>
      <point x="126.371" y="122.196"/>
      <point x="160.448" y="47.6748"/>
      <point x="239.962" y="47.6748" type="curve" smooth="yes"/>
      <point x="281.373" y="47.6748"/>
      <point x="342.601" y="63.6504"/>
      <point x="390.691" y="101.139" type="curve"/>
      <point x="407.208" y="72.3486" type="line"/>
      <point x="340.063" y="11.6934"/>
      <point x="289.004" y="-10.4248"/>
      <point x="198.38" y="-10.4248" type="curve" smooth="yes"/>
      <point x="97.4697" y="-10.4248"/>
      <point x="13.6279" y="38.0186"/>
      <point x="13.6279" y="174.27" type="curve" smooth="yes"/>
      <point x="13.6279" y="381.378"/>
      <point x="153.362" y="511.425"/>
    </contour>
  </outline>
</glyph>
<glyph name="d" format="1">
  <advance width="598"/>
  <unicode hex="0064"/>
  <outline>
    <contour>
      <point x="467.466" y="59.5801" type="line"/>
      <point x="467.466" y="22.5596" type="line"/>
      <point x="435.07" y="7.9043"/>
      <point x="399.67" y="-6.7998"/>
      <point x="362.184" y="-6.7998" type="curve" smooth="yes"/>
      <point x="341.264" y="-6.7998"/>
      <point x="326.294" y="10.6992"/>
      <point x="326.294" y="23.2354" type="curve" smooth="yes"/>
      <point x="326.294" y="23.2354"/>
      <point x="257.04" y="-9.9502"/>
      <point x="209.223" y="-9.9502" type="curve" smooth="yes"/>
      <point x="108.479" y="-9.9502"/>
      <point x="30.2793" y="41.5879"/>
      <point x="30.2793" y="161.988" type="curve" smooth="yes"/>
      <point x="30.2793" y="383.97"/>
      <point x="164.479" y="511.9"/>
      <point x="327.389" y="511.9" type="curve" smooth="yes"/>
      <point x="366.37" y="511.9"/>
      <point x="401.465" y="503.636"/>
      <point x="432.21" y="475.252" type="curve"/>
      <point x="478.817" y="671.632" type="line"/>
      <point x="480.423" y="678.054"/>
      <point x="483.119" y="686.343"/>
      <point x="483.119" y="693.812" type="curve" smooth="yes"/>
      <point x="483.119" y="700.366"/>
      <point x="482.751" y="708.142"/>
      <point x="479.095" y="711.639" type="curve" smooth="yes"/>
      <point x="473.752" y="716.75"/>
      <point x="463.622" y="719.101"/>
      <point x="456.802" y="719.101" type="curve" smooth="yes"/>
      <point x="448.585" y="719.101" type="line"/>
      <point x="453.96" y="744.472" type="line"/>
      <point x="491.499" y="753.923"/>
      <point x="549.609" y="762.804"/>
      <point x="586.678" y="772.726" type="curve" smooth="yes"/>
      <point x="587.421" y="772.958"/>
      <point x="589.761" y="774.15"/>
      <point x="593.225" y="774.15" type="curve" smooth="yes"/>
      <point x="601.236" y="774.15"/>
      <point x="604.062" y="766.616"/>
      <point x="604.062" y="762.415" type="curve" smooth="yes"/>
      <point x="604.062" y="757.738"/>
      <point x="602.61" y="752.53"/>
      <point x="601.13" y="746.608" type="curve"/>
      <point x="441.791" y="69.6436" type="line"/>
      <point x="437.719" y="52.4678" type="line"/>
    </contour>
    <contour>
      <point x="342" y="89" type="curve"/>
      <point x="408" y="368" type="line"/>
      <point x="409.367" y="375.102"/>
      <point x="412.518" y="390.247"/>
      <point x="412.518" y="396.291" type="curve" smooth="yes"/>
      <point x="412.518" y="437.248"/>
      <point x="393.014" y="475.85"/>
      <point x="341.083" y="475.85" type="curve" smooth="yes"/>
      <point x="219.85" y="475.85"/>
      <point x="136.592" y="318.977"/>
      <point x="136.592" y="165.941" type="curve" smooth="yes"/>
      <point x="136.592" y="98.5303"/>
      <point x="163.483" y="35.5498"/>
      <point x="231.416" y="35.5498" type="curve" smooth="yes"/>
      <point x="281.608" y="35.5498"/>
      <point x="335.011" y="72.3447"/>
    </contour>
  </outline>
</glyph>
<glyph name="e" format="1">
  <advance width="532"/>
  <unicode hex="0065"/>
  <outline>
    <contour>
      <point x="490.616" y="427.644" type="curve" smooth="yes"/>
      <point x="490.616" y="257.021"/>
      <point x="218.218" y="240.302"/>
      <point x="133.851" y="221.783" type="curve"/>
      <point x="131.535" y="207.759"/>
      <point x="130.383" y="187.097"/>
      <point x="130.383" y="173.983" type="curve" smooth="yes"/>
      <point x="130.383" y="105.862"/>
      <point x="171.287" y="47.2002"/>
      <point x="240.99" y="47.2002" type="curve" smooth="yes"/>
      <point x="292.364" y="47.2002"/>
      <point x="357.451" y="64.8389"/>
      <point x="414.931" y="103.958" type="curve"/>
      <point x="417.66" y="96.8535"/>
      <point x="418.845" y="83.2422"/>
      <point x="418.845" y="74.4854" type="curve" smooth="yes"/>
      <point x="418.845" y="72.1357"/>
      <point x="418.255" y="70.208"/>
      <point x="416.813" y="68.959" type="curve" smooth="yes"/>
      <point x="351.78" y="14.5322"/>
      <point x="302.147" y="-10.4502"/>
      <point x="208.815" y="-10.4502" type="curve" smooth="yes"/>
      <point x="106.472" y="-10.4502"/>
      <point x="16.6162" y="48.7646"/>
      <point x="16.6162" y="165.73" type="curve" smooth="yes"/>
      <point x="16.6162" y="396.784"/>
      <point x="164.237" y="512.45"/>
      <point x="330.999" y="512.45" type="curve" smooth="yes"/>
      <point x="426.094" y="512.45"/>
      <point x="490.616" y="486.993"/>
    </contour>
    <contour>
      <point x="321.799" y="470.866" type="curve" smooth="yes"/>
      <point x="256.679" y="470.866"/>
      <point x="154.985" y="405.893"/>
      <point x="128.658" y="274.613" type="curve"/>
      <point x="226.739" y="292.837"/>
      <point x="385.336" y="328.188"/>
      <point x="385.336" y="409.685" type="curve" smooth="yes"/>
      <point x="385.336" y="449.355"/>
      <point x="362.001" y="470.866"/>
    </contour>
  </outline>
</glyph>
<glyph name="f" format="1">
  <advance width="492"/>
  <unicode hex="0066"/>
  <outline>
    <contour>
      <point x="384.007" y="484.899" type="curve" smooth="yes"/>
      <point x="384.007" y="477.925"/>
      <point x="372.596" y="448.948"/>
      <point x="370" y="444" type="curve" smooth="yes"/>
      <point x="366.181" y="437.063" type="line"/>
      <point x="361.468" y="437.063" type="line" smooth="yes"/>
      <point x="355.899" y="437.063"/>
      <point x="282.714" y="440.798"/>
      <point x="244.059" y="441.155" type="curve"/>
      <point x="142.749" y="16.6807" type="line" smooth="yes"/>
      <point x="110.55" y="-123.777"/>
      <point x="39.6878" y="-179.2"/>
      <point x="-89.4502" y="-179.2" type="curve" smooth="yes"/>
      <point x="-137.66" y="-179.2"/>
      <point x="-174.853" y="-155.871"/>
      <point x="-201.646" y="-106.752" type="curve"/>
      <point x="-201.646" y="-106.752"/>
      <point x="-205.013" y="-97.9775"/>
      <point x="-205.013" y="-95.6182" type="curve" smooth="yes"/>
      <point x="-205.013" y="-72.9561"/>
      <point x="-172.56" y="-60.8496"/>
      <point x="-158.75" y="-60.8496" type="curve" smooth="yes"/>
      <point x="-94.6309" y="-60.8496"/>
      <point x="-120.513" y="-141.05"/>
      <point x="-69.8848" y="-141.05" type="curve" smooth="yes"/>
      <point x="-18.6221" y="-141.05"/>
      <point x="21.2324" y="-78.9805"/>
      <point x="43.0303" y="24.125" type="curve" smooth="yes"/>
      <point x="138.121" y="440.808" type="line"/>
      <point x="114.453" y="440.043"/>
      <point x="95.2588" y="436.942"/>
      <point x="95.165" y="436.928" type="curve" smooth="yes"/>
      <point x="82.3438" y="434.916" type="line"/>
      <point x="102.4" y="497.561" type="line"/>
      <point x="151.882" y="497.561" type="line"/>
      <point x="153.668" y="504.469"/>
      <point x="156.554" y="515.831"/>
      <point x="159.558" y="528.693" type="curve" smooth="yes"/>
      <point x="161.815" y="538.568"/>
      <point x="165.029" y="548.917"/>
      <point x="167.194" y="557.333" type="curve"/>
      <point x="214.352" y="718.222"/>
      <point x="288.688" y="768.825"/>
      <point x="417.418" y="768.825" type="curve" smooth="yes"/>
      <point x="466.097" y="768.825"/>
      <point x="502.133" y="753.033"/>
      <point x="527.194" y="700.774" type="curve"/>
      <point x="530.299" y="695.022"/>
      <point x="531.107" y="690.452"/>
      <point x="531.107" y="687.188" type="curve" smooth="yes"/>
      <point x="531.107" y="663.235"/>
      <point x="503.674" y="649.125"/>
      <point x="488.518" y="649.125" type="curve" smooth="yes"/>
      <point x="427.876" y="649.125"/>
      <point x="447.88" y="732.775"/>
      <point x="397.854" y="732.775" type="curve" smooth="yes"/>
      <point x="345.974" y="732.775"/>
      <point x="295.921" y="666.279"/>
      <point x="267.078" y="547.616" type="curve" smooth="yes"/>
      <point x="255.772" y="501.99" type="line"/>
      <point x="353.66" y="501.99" type="line" smooth="yes"/>
      <point x="370.135" y="501.99"/>
      <point x="384.007" y="497.937"/>
    </contour>
  </outline>
</glyph>
<glyph name="g" format="1">
  <advance width="572"/>
  <unicode hex="0067"/>
  <outline>
    <contour>
      <point x="163.166" y="-231.4" type="curve" smooth="yes"/>
      <point x="259.46" y="-231.4"/>
      <point x="351.614" y="-174.095"/>
      <point x="351.614" y="-99.335" type="curve" smooth="yes"/>
      <point x="351.614" y="-51.4746"/>
      <point x="289.376" y="-47.9971"/>
      <point x="216.248" y="-40.3848" type="curve"/>
      <point x="127.639" y="-65.5537"/>
      <point x="59.2607" y="-84.0752"/>
      <point x="59.2607" y="-165.913" type="curve" smooth="yes"/>
      <point x="59.2607" y="-209.377"/>
      <point x="100.17" y="-231.4"/>
    </contour>
    <contour>
      <point x="191.766" y="249.908" type="curve" smooth="yes"/>
      <point x="191.766" y="188.441"/>
      <point x="205.081" y="136.8"/>
      <point x="255.572" y="136.8" type="curve" smooth="yes"/>
      <point x="356.071" y="136.8"/>
      <point x="393.859" y="265.962"/>
      <point x="393.859" y="375.751" type="curve" smooth="yes"/>
      <point x="393.859" y="433.856"/>
      <point x="380.646" y="467.2"/>
      <point x="322.704" y="467.2" type="curve" smooth="yes"/>
      <point x="234.872" y="467.2"/>
      <point x="191.766" y="351.437"/>
    </contour>
    <contour>
      <point x="445.086" y="-60.3281" type="curve" smooth="yes"/>
      <point x="445.086" y="-202.842"/>
      <point x="260.582" y="-271.65"/>
      <point x="143.596" y="-271.65" type="curve" smooth="yes"/>
      <point x="58.1592" y="-271.65"/>
      <point x="-40.1611" y="-254.417"/>
      <point x="-40.1611" y="-180.487" type="curve" smooth="yes"/>
      <point x="-40.1611" y="-83.6943"/>
      <point x="72.9131" y="-52.6943"/>
      <point x="148.799" y="-30.707" type="curve"/>
      <point x="129.253" y="-28.457"/>
      <point x="112.801" y="-25.5742"/>
      <point x="99.584" y="-22.2393" type="curve"/>
      <point x="75.3486" y="-16.7148"/>
      <point x="53.04" y="1.61523"/>
      <point x="53.04" y="24.7061" type="curve" smooth="yes"/>
      <point x="53.04" y="69.1846"/>
      <point x="146.725" y="93.3682"/>
      <point x="192.357" y="106.225" type="curve"/>
      <point x="139.58" y="121.164"/>
      <point x="85.8613" y="164.925"/>
      <point x="85.8613" y="246.746" type="curve" smooth="yes"/>
      <point x="85.8613" y="409.14"/>
      <point x="209.229" y="511.65"/>
      <point x="336.318" y="511.65" type="curve" smooth="yes"/>
      <point x="373.142" y="511.65"/>
      <point x="416.792" y="501.15"/>
      <point x="441.829" y="476.864" type="curve"/>
      <point x="475.047" y="497.014"/>
      <point x="500.625" y="506.5"/>
      <point x="537.336" y="506.5" type="curve" smooth="yes"/>
      <point x="549.008" y="506.5"/>
      <point x="554.375" y="496.336"/>
      <point x="554.375" y="487.185" type="curve" smooth="yes"/>
      <point x="554.375" y="442.045"/>
      <point x="510.05" y="435.302"/>
      <point x="480.972" y="435.302" type="curve" smooth="yes"/>
      <point x="477.965" y="435.302"/>
      <point x="470.295" y="435.705"/>
      <point x="468" y="436" type="curve"/>
      <point x="477" y="418"/>
      <point x="487.333" y="388.027"/>
      <point x="487.333" y="363.354" type="curve" smooth="yes"/>
      <point x="487.333" y="118.681"/>
      <point x="299.972" y="110.385"/>
      <point x="181.947" y="57.4541" type="curve" smooth="yes"/>
      <point x="175.674" y="54.6406"/>
      <point x="170.786" y="49.0938"/>
      <point x="170.786" y="45.5918" type="curve" smooth="yes"/>
      <point x="170.786" y="41.377"/>
      <point x="174.838" y="36.9043"/>
      <point x="183.777" y="34.6338" type="curve" smooth="yes"/>
      <point x="187.948" y="33.5752"/>
      <point x="210.172" y="31.0947"/>
      <point x="223.796" y="29.8848" type="curve" smooth="yes"/>
      <point x="249.812" y="27.5752"/>
      <point x="262.252" y="27.4414"/>
      <point x="291.89" y="25.6738" type="curve" smooth="yes"/>
      <point x="374.229" y="20.7637"/>
      <point x="445.086" y="5.27051"/>
    </contour>
  </outline>
</glyph>
<glyph name="h" format="1">
  <advance width="617"/>
  <unicode hex="0068"/>
  <outline>
    <contour>
      <point x="362.131" y="44.2266" type="curve"/>
      <point x="362.131" y="70.5518"/>
      <point x="370.697" y="100.813"/>
      <point x="380.388" y="140.297" type="curve" smooth="yes"/>
      <point x="421" y="315" type="line" smooth="yes"/>
      <point x="423.804" y="326.758"/>
      <point x="425.133" y="340.994"/>
      <point x="425.133" y="351.494" type="curve" smooth="yes"/>
      <point x="425.133" y="420.543"/>
      <point x="406.32" y="472.375"/>
      <point x="348.754" y="472.375" type="curve" smooth="yes"/>
      <point x="318.284" y="472.375"/>
      <point x="267.327" y="451.027"/>
      <point x="202.731" y="388.499" type="curve"/>
      <point x="110.045" y="-0.325195" type="line"/>
      <point x="7.58008" y="-0.325195" type="line"/>
      <point x="166.915" y="675.568" type="line"/>
      <point x="168.03" y="680.301"/>
      <point x="171.637" y="695.863"/>
      <point x="171.637" y="699.424" type="curve" smooth="yes"/>
      <point x="171.637" y="708.062"/>
      <point x="169.965" y="711.385"/>
      <point x="164.798" y="715.438" type="curve" smooth="yes"/>
      <point x="162.169" y="717.502"/>
      <point x="149.498" y="718.899"/>
      <point x="144.592" y="718.899" type="curve" smooth="yes"/>
      <point x="135.525" y="718.899" type="line"/>
      <point x="141.146" y="745.281" type="line"/>
      <point x="264.927" y="770.649" type="line" smooth="yes"/>
      <point x="267.471" y="771.308"/>
      <point x="275.332" y="773.949"/>
      <point x="277.551" y="773.949" type="curve" smooth="yes"/>
      <point x="281.009" y="773.949"/>
      <point x="290.602" y="772.837"/>
      <point x="290.602" y="763.37" type="curve" smooth="yes"/>
      <point x="290.602" y="759.028"/>
      <point x="289.64" y="754.012"/>
      <point x="288.033" y="747.423" type="curve" smooth="yes"/>
      <point x="216.415" y="446.698" type="line"/>
      <point x="266.528" y="496.115"/>
      <point x="322.073" y="511.925"/>
      <point x="374.4" y="511.925" type="curve" smooth="yes"/>
      <point x="441.216" y="511.925"/>
      <point x="519.653" y="455.935"/>
      <point x="519.653" y="358.564" type="curve" smooth="yes"/>
      <point x="519.653" y="345.805"/>
      <point x="518.028" y="332.156"/>
      <point x="514.535" y="317.425" type="curve" smooth="yes"/>
      <point x="468.755" y="129.737" type="line" smooth="yes"/>
      <point x="463.508" y="107.337"/>
      <point x="456.185" y="69.3945"/>
      <point x="456.185" y="59.0752" type="curve" smooth="yes"/>
      <point x="456.185" y="47.7861"/>
      <point x="464.286" y="43.6074"/>
      <point x="473.006" y="43.6074" type="curve" smooth="yes"/>
      <point x="487.613" y="43.6074"/>
      <point x="512.567" y="52.3389"/>
      <point x="525.482" y="65.0244" type="curve"/>
      <point x="539.981" y="52.1572" type="line" smooth="yes"/>
      <point x="519.378" y="19.8887"/>
      <point x="466.613" y="-9.97461"/>
      <point x="422.188" y="-9.97461" type="curve" smooth="yes"/>
      <point x="391.179" y="-9.97461"/>
      <point x="362.399" y="9.83105"/>
    </contour>
  </outline>
</glyph>
<glyph name="i" format="1">
  <advance width="326"/>
  <unicode hex="0069"/>
  <outline>
    <contour>
      <point x="218" y="726" type="curve" smooth="yes"/>
      <point x="244.452" y="726"/>
      <point x="262.26" y="705.336"/>
      <point x="262.26" y="679.562" type="curve" smooth="yes"/>
      <point x="262.26" y="640.032"/>
      <point x="226.203" y="610"/>
      <point x="194" y="610" type="curve" smooth="yes"/>
      <point x="166.899" y="610"/>
      <point x="149.687" y="630.476"/>
      <point x="149.687" y="655.992" type="curve" smooth="yes"/>
      <point x="149.687" y="695.621"/>
      <point x="184.552" y="726"/>
    </contour>
    <contour>
      <point x="241.874" y="474.575" type="curve"/>
      <point x="241.874" y="447.423"/>
      <point x="226.903" y="394.032"/>
      <point x="217.71" y="354.94" type="curve" smooth="yes"/>
      <point x="165.557" y="133.363" type="line" smooth="yes"/>
      <point x="159.412" y="108.682"/>
      <point x="152.671" y="75.168"/>
      <point x="152.671" y="61.5371" type="curve" smooth="yes"/>
      <point x="152.671" y="53.3896"/>
      <point x="157.98" y="44.125"/>
      <point x="166.847" y="44.125" type="curve" smooth="yes"/>
      <point x="183.312" y="44.125"/>
      <point x="205.903" y="52.2285"/>
      <point x="226.725" y="67.8457" type="curve"/>
      <point x="237.312" y="58.3594" type="line"/>
      <point x="215.612" y="19.7832"/>
      <point x="159.697" y="-9.22461"/>
      <point x="111.002" y="-9.22461" type="curve" smooth="yes"/>
      <point x="77.1758" y="-9.22461"/>
      <point x="47" y="15.3105"/>
      <point x="47" y="48.1895" type="curve" smooth="yes"/>
      <point x="47" y="69.6504"/>
      <point x="54.8779" y="104.64"/>
      <point x="65.1602" y="143.945" type="curve" smooth="yes"/>
      <point x="113.484" y="350.797" type="line"/>
      <point x="118.776" y="375.712"/>
      <point x="136.663" y="442.875"/>
      <point x="136.897" y="452.654" type="curve"/>
      <point x="136.897" y="459.403"/>
      <point x="131.8" y="462.825"/>
      <point x="126.142" y="462.825" type="curve" smooth="yes"/>
      <point x="107.993" y="462.825"/>
      <point x="94.4932" y="455.455"/>
      <point x="77.2158" y="438.817" type="curve"/>
      <point x="63.2949" y="449.497" type="line"/>
      <point x="86.7686" y="486.535"/>
      <point x="125.239" y="513.075"/>
      <point x="183.041" y="513.075" type="curve" smooth="yes"/>
      <point x="210.262" y="513.075"/>
      <point x="241.679" y="502.293"/>
    </contour>
  </outline>
</glyph>
<glyph name="j" format="1">
  <advance width="353"/>
  <unicode hex="006A"/>
  <outline>
    <contour>
      <point x="281.313" y="724.008" type="curve" smooth="yes"/>
      <point x="307.766" y="724.008"/>
      <point x="325.573" y="703.343"/>
      <point x="325.573" y="677.569" type="curve" smooth="yes"/>
      <point x="325.573" y="638.04"/>
      <point x="289.517" y="608.008"/>
      <point x="257.313" y="608.008" type="curve" smooth="yes"/>
      <point x="230.213" y="608.008"/>
      <point x="213" y="628.482"/>
      <point x="213" y="654" type="curve" smooth="yes"/>
      <point x="213" y="693.629"/>
      <point x="247.865" y="724.008"/>
    </contour>
    <contour>
      <point x="301.644" y="472.362" type="curve" smooth="yes"/>
      <point x="301.644" y="446.09"/>
      <point x="287.293" y="393.941"/>
      <point x="277.684" y="354.378" type="curve" smooth="yes"/>
      <point x="211.644" y="82.4746" type="line"/>
      <point x="208.444" y="67.8809"/>
      <point x="204.152" y="53.543"/>
      <point x="200.842" y="39.3584" type="curve"/>
      <point x="187.132" y="-14.1152"/>
      <point x="165.882" y="-49.7178"/>
      <point x="113.512" y="-92.5576" type="curve"/>
      <point x="79.0908" y="-120.572"/>
      <point x="0.503906" y="-165.7"/>
      <point x="-74.3896" y="-165.7" type="curve" smooth="yes"/>
      <point x="-95.3408" y="-165.7"/>
      <point x="-126.214" y="-161.285"/>
      <point x="-146.976" y="-152.543" type="curve"/>
      <point x="-154.737" y="-149.218"/>
      <point x="-158.037" y="-142.543"/>
      <point x="-158.037" y="-136.325" type="curve" smooth="yes"/>
      <point x="-158.037" y="-102.089"/>
      <point x="-115.375" y="-88.2002"/>
      <point x="-90.54" y="-88.2002" type="curve" smooth="yes"/>
      <point x="-57.6436" y="-88.2002"/>
      <point x="-41.6338" y="-113.4"/>
      <point x="-17.7188" y="-113.4" type="curve" smooth="yes"/>
      <point x="-10.5625" y="-113.4"/>
      <point x="-0.245117" y="-110.669"/>
      <point x="10.2549" y="-105.739" type="curve" smooth="yes"/>
      <point x="67.9883" y="-79.3086"/>
      <point x="78.5908" y="-41.1582"/>
      <point x="95.4209" y="25.6162" type="curve" smooth="yes"/>
      <point x="177.506" y="366.48" type="line"/>
      <point x="183.066" y="389.902"/>
      <point x="194.425" y="436.954"/>
      <point x="194.666" y="448.088" type="curve"/>
      <point x="194.666" y="454.867"/>
      <point x="191.568" y="463.3"/>
      <point x="183.661" y="463.3" type="curve" smooth="yes"/>
      <point x="165.909" y="463.3"/>
      <point x="149.691" y="456.166"/>
      <point x="127.072" y="436.738" type="curve" smooth="yes"/>
      <point x="112.789" y="448.143" type="line"/>
      <point x="133.73" y="482.967"/>
      <point x="190.214" y="511.55"/>
      <point x="243.811" y="511.55" type="curve" smooth="yes"/>
      <point x="271.177" y="511.55"/>
      <point x="301.644" y="500.65"/>
    </contour>
  </outline>
</glyph>
<glyph name="l" format="1">
  <advance width="308"/>
  <unicode hex="006C"/>
  <outline>
    <contour>
      <point x="27.3105" y="48.3438" type="curve" smooth="yes"/>
      <point x="27.3105" y="74.0615"/>
      <point x="36.1113" y="106.391"/>
      <point x="45.4453" y="145.97" type="curve" smooth="yes"/>
      <point x="169.184" y="677.593" type="line"/>
      <point x="170.475" y="683.188"/>
      <point x="173.105" y="696.098"/>
      <point x="173.105" y="700.066" type="curve" smooth="yes"/>
      <point x="173.105" y="708.688"/>
      <point x="169.47" y="713.014"/>
      <point x="165.469" y="715.489" type="curve" smooth="yes"/>
      <point x="161.251" y="718.099"/>
      <point x="148.878" y="718.9"/>
      <point x="144.5" y="718.9" type="curve" smooth="yes"/>
      <point x="135.701" y="718.9" type="line"/>
      <point x="144.782" y="745.255" type="line"/>
      <point x="275.85" y="772.629" type="line" smooth="yes"/>
      <point x="277.994" y="773.182"/>
      <point x="279.97" y="773.851"/>
      <point x="282.75" y="773.851" type="curve" smooth="yes"/>
      <point x="288.642" y="773.851"/>
      <point x="293.956" y="768.831"/>
      <point x="293.956" y="762.09" type="curve" smooth="yes"/>
      <point x="293.956" y="758.017"/>
      <point x="293.031" y="753.453"/>
      <point x="291.619" y="747.42" type="curve"/>
      <point x="145.34" y="134.869" type="line"/>
      <point x="140.142" y="112.011"/>
      <point x="130.76" y="70.9297"/>
      <point x="130.76" y="60.5117" type="curve" smooth="yes"/>
      <point x="130.76" y="46.6133"/>
      <point x="145.265" y="43.7725"/>
      <point x="156.768" y="43.7725" type="curve" smooth="yes"/>
      <point x="173.177" y="43.7725"/>
      <point x="193.78" y="57.3916"/>
      <point x="208.484" y="68.4209" type="curve"/>
      <point x="217.074" y="58.9346" type="line"/>
      <point x="195.404" y="20.4277"/>
      <point x="156.084" y="-9.65039"/>
      <point x="105.412" y="-9.65039" type="curve" smooth="yes"/>
      <point x="74.5986" y="-9.65039"/>
      <point x="27.3105" y="13.0918"/>
    </contour>
  </outline>
</glyph>
<glyph name="m" format="1">
  <advance width="905"/>
  <unicode hex="006D"/>
  <outline>
    <contour>
      <point x="682.557" y="50.708" type="curve" smooth="yes"/>
      <point x="682.557" y="69.9434"/>
      <point x="690.868" y="107.871"/>
      <point x="701.196" y="148.327" type="curve" smooth="yes"/>
      <point x="744" y="331" type="line"/>
      <point x="748.206" y="348.542"/>
      <point x="750.255" y="364.531"/>
      <point x="750.255" y="378.549" type="curve" smooth="yes"/>
      <point x="750.255" y="426.835"/>
      <point x="712.014" y="465.7"/>
      <point x="655.825" y="465.7" type="curve" smooth="yes"/>
      <point x="619.998" y="465.7"/>
      <point x="577.671" y="444.168"/>
      <point x="533.229" y="397.082" type="curve"/>
      <point x="532.409" y="392.554"/>
      <point x="530.998" y="387.719"/>
      <point x="529.368" y="380.83" type="curve" smooth="yes"/>
      <point x="438.464" y="0" type="line"/>
      <point x="333.512" y="0" type="line"/>
      <point x="415" y="351" type="line"/>
      <point x="417.687" y="362.305"/>
      <point x="418.979" y="373.242"/>
      <point x="418.979" y="383.282" type="curve" smooth="yes"/>
      <point x="418.979" y="435.388"/>
      <point x="389.229" y="465.7"/>
      <point x="346.143" y="465.7" type="curve" smooth="yes"/>
      <point x="305.838" y="465.7"/>
      <point x="241.014" y="431.275"/>
      <point x="199" y="390" type="curve"/>
      <point x="107" y="0" type="line"/>
      <point x="3.87988" y="0" type="line"/>
      <point x="92.084" y="376.403" type="line" smooth="yes"/>
      <point x="98.2988" y="401.606"/>
      <point x="107.591" y="441.322"/>
      <point x="107.591" y="446.504" type="curve" smooth="yes"/>
      <point x="107.591" y="454.769"/>
      <point x="100.517" y="457.941"/>
      <point x="89.791" y="457.941" type="curve" smooth="yes"/>
      <point x="75.0176" y="457.941"/>
      <point x="57.8271" y="442.965"/>
      <point x="42.75" y="426.225" type="curve"/>
      <point x="31.2891" y="446.997" type="line"/>
      <point x="48.7334" y="479.261"/>
      <point x="104.489" y="512.52"/>
      <point x="155.467" y="512.52" type="curve" smooth="yes"/>
      <point x="209.423" y="512.52"/>
      <point x="216.418" y="489.666"/>
      <point x="216.418" y="473.075" type="curve" smooth="yes"/>
      <point x="216.418" y="465.347"/>
      <point x="215" y="458.679"/>
      <point x="214" y="449" type="curve"/>
      <point x="260.11" y="495.5"/>
      <point x="326.896" y="512.45"/>
      <point x="384.191" y="512.45" type="curve" smooth="yes"/>
      <point x="437.771" y="512.45"/>
      <point x="513.601" y="494.074"/>
      <point x="532.1" y="439.707" type="curve"/>
      <point x="584.213" y="497.655"/>
      <point x="638.931" y="506.522"/>
      <point x="697.086" y="506.522" type="curve" smooth="yes"/>
      <point x="772.759" y="506.522"/>
      <point x="845.897" y="449.623"/>
      <point x="845.897" y="357.812" type="curve" smooth="yes"/>
      <point x="845.897" y="344.932"/>
      <point x="844.2" y="331.108"/>
      <point x="840.558" y="316.189" type="curve"/>
      <point x="796.505" y="133.199" type="line"/>
      <point x="791.275" y="110.867"/>
      <point x="781.938" y="69.9258"/>
      <point x="781.938" y="59.5723" type="curve" smooth="yes"/>
      <point x="781.938" y="50.0869"/>
      <point x="790.423" y="41.9004"/>
      <point x="799.786" y="41.9004" type="curve" smooth="yes"/>
      <point x="811.952" y="41.9004"/>
      <point x="830.555" y="46.0391"/>
      <point x="852.235" y="62.5498" type="curve"/>
      <point x="864.811" y="51.8027" type="line"/>
      <point x="843.293" y="16.5527"/>
      <point x="793.71" y="-10.4502"/>
      <point x="753.941" y="-10.4502" type="curve" smooth="yes"/>
      <point x="714.847" y="-10.4502"/>
      <point x="682.557" y="14.5811"/>
    </contour>
  </outline>
</glyph>
<glyph name="n" format="1">
  <advance width="533"/>
  <unicode hex="006E"/>
  <outline>
    <contour>
      <point x="217.708" y="469.472" type="curve" smooth="yes"/>
      <point x="217.708" y="463.899"/>
      <point x="217.439" y="457.325"/>
      <point x="216.046" y="449.36" type="curve"/>
      <point x="251.013" y="480.687"/>
      <point x="290.839" y="512.461"/>
      <point x="360.124" y="512.461" type="curve" smooth="yes"/>
      <point x="442.145" y="512.461"/>
      <point x="507.495" y="446.782"/>
      <point x="507.495" y="359.705" type="curve" smooth="yes"/>
      <point x="507.495" y="347.254"/>
      <point x="506.917" y="337.942"/>
      <point x="503.522" y="323.559" type="curve" smooth="yes"/>
      <point x="458.355" y="133.191" type="line"/>
      <point x="453.09" y="110.706"/>
      <point x="441.785" y="67.7793"/>
      <point x="441.785" y="57.5732" type="curve" smooth="yes"/>
      <point x="441.785" y="49.1309"/>
      <point x="452.179" y="38.9004"/>
      <point x="460.632" y="38.9004" type="curve" smooth="yes"/>
      <point x="475.546" y="38.9004"/>
      <point x="495.354" y="46.0039"/>
      <point x="514.082" y="64.5498" type="curve"/>
      <point x="527.784" y="54.0186" type="line" smooth="yes"/>
      <point x="507.087" y="19.2236"/>
      <point x="460.009" y="-9.4502"/>
      <point x="409.595" y="-9.4502" type="curve" smooth="yes"/>
      <point x="377.827" y="-9.4502"/>
      <point x="343.859" y="12.3252"/>
      <point x="343.859" y="46.9854" type="curve" smooth="yes"/>
      <point x="343.859" y="72.501"/>
      <point x="352.204" y="104.311"/>
      <point x="361.059" y="143.718" type="curve"/>
      <point x="400" y="310" type="line" smooth="yes"/>
      <point x="402.228" y="319.387"/>
      <point x="406.295" y="335.491"/>
      <point x="406.295" y="343.854" type="curve" smooth="yes"/>
      <point x="406.295" y="409.474"/>
      <point x="382.263" y="465.5"/>
      <point x="319.824" y="465.5" type="curve" smooth="yes"/>
      <point x="270.777" y="465.5"/>
      <point x="244.523" y="432.877"/>
      <point x="200.775" y="389.739" type="curve"/>
      <point x="109.004" y="0.200195" type="line"/>
      <point x="6.4248" y="0.200195" type="line"/>
      <point x="93.6865" y="375.209" type="line" smooth="yes"/>
      <point x="100.562" y="402.557"/>
      <point x="107.912" y="437.348"/>
      <point x="107.912" y="447.261" type="curve" smooth="yes"/>
      <point x="107.912" y="452.657"/>
      <point x="99.5166" y="456.75"/>
      <point x="93.1123" y="456.75" type="curve" smooth="yes"/>
      <point x="79.0127" y="456.75"/>
      <point x="59.1133" y="448.095"/>
      <point x="44.1875" y="424.061" type="curve"/>
      <point x="34.791" y="445.322" type="line"/>
      <point x="54.7492" y="480.669"/>
      <point x="105.384" y="512.45"/>
      <point x="161.554" y="512.45" type="curve" smooth="yes"/>
      <point x="207.634" y="512.45"/>
      <point x="217.708" y="493.318"/>
    </contour>
  </outline>
</glyph>
<glyph name="o" format="1">
  <advance width="534"/>
  <unicode hex="006F"/>
  <outline>
    <contour>
      <point x="493.901" y="349.989" type="curve" smooth="yes"/>
      <point x="493.901" y="108.945"/>
      <point x="356.359" y="-10.375"/>
      <point x="199.683" y="-10.375" type="curve" smooth="yes"/>
      <point x="89.0605" y="-10.375"/>
      <point x="12.6758" y="29.4277"/>
      <point x="12.6758" y="149.855" type="curve" smooth="yes"/>
      <point x="12.6758" y="361.249"/>
      <point x="150.693" y="511.375"/>
      <point x="310.656" y="511.375" type="curve" smooth="yes"/>
      <point x="418.828" y="511.375"/>
      <point x="493.901" y="473.054"/>
    </contour>
    <contour>
      <point x="304.963" y="465.875" type="curve" smooth="yes"/>
      <point x="190.955" y="465.875"/>
      <point x="117.821" y="288.886"/>
      <point x="117.821" y="150.247" type="curve" smooth="yes"/>
      <point x="117.821" y="82.668"/>
      <point x="139.109" y="35.125"/>
      <point x="209.014" y="35.125" type="curve" smooth="yes"/>
      <point x="318.371" y="35.125"/>
      <point x="389.483" y="225.031"/>
      <point x="389.483" y="344.278" type="curve" smooth="yes"/>
      <point x="389.483" y="399.455"/>
      <point x="366.754" y="465.875"/>
    </contour>
  </outline>
</glyph>
